/* XPM */
static char *Untitled__8_1707903949[] = {
/* columns rows colors chars-per-pixel */
"50 50 254 2 ",
"   c #34292F",
".  c #241639",
"X  c #4B3435",
"o  c #59362B",
"O  c #75443B",
"+  c #152648",
"@  c #172E5B",
"#  c #2F3454",
"$  c #1C2C64",
"%  c #1B3367",
"&  c #293A66",
"*  c #343B76",
"=  c #242F67",
"-  c #473847",
";  c #4E384F",
":  c #683F4F",
">  c #1E4357",
",  c #2C4B5E",
"<  c #26495D",
"1  c #364B5B",
"2  c #2D515D",
"3  c #395259",
"4  c #2B4C63",
"5  c #2E4D6B",
"6  c #284A68",
"7  c #324D64",
"8  c #3A4C65",
"9  c #344E6A",
"0  c #3C4C6D",
"q  c #364367",
"w  c #2C5364",
"e  c #2C546A",
"r  c #2E596B",
"t  c #275366",
"y  c #325364",
"u  c #3B5464",
"i  c #34546B",
"p  c #3B556C",
"a  c #345A6D",
"s  c #3A5A6D",
"d  c #395866",
"f  c #2A4575",
"g  c #354D74",
"h  c #3C4E72",
"j  c #384879",
"k  c #2D5971",
"l  c #355373",
"z  c #3C5473",
"x  c #355C72",
"c  c #3B5C73",
"v  c #3C557A",
"b  c #3D5C7A",
"n  c #36587A",
"m  c #34616E",
"M  c #366273",
"N  c #3C6274",
"B  c #35657A",
"V  c #3D637A",
"C  c #3C6A7D",
"Z  c #38697B",
"A  c #37697B",
"S  c #1E4E65",
"D  c #584047",
"F  c #484A5A",
"G  c #554959",
"H  c #44565E",
"J  c #5B515C",
"K  c #4E4B4B",
"L  c #7F4343",
"P  c #6D5558",
"I  c #714D4F",
"U  c #464766",
"Y  c #43536D",
"T  c #425B6D",
"R  c #475A66",
"E  c #565467",
"W  c #454B75",
"Q  c #425473",
"!  c #435C75",
"~  c #495C75",
"^  c #44547A",
"/  c #435C7B",
"(  c #4B5E7C",
")  c #49557A",
"_  c #575B75",
"`  c #544F63",
"'  c #675869",
"]  c #775965",
"[  c #6D5A71",
"{  c #43646D",
"}  c #436275",
"|  c #4C6375",
" . c #43647B",
".. c #4A647C",
"X. c #446B7D",
"o. c #4A6A7D",
"O. c #436A75",
"+. c #51667D",
"@. c #536C7D",
"#. c #566676",
"$. c #48717D",
"%. c #556974",
"&. c #726E7B",
"*. c #833C36",
"=. c #A76E52",
"-. c #8D5C6C",
";. c #8E6E75",
":. c #A76A76",
">. c #AE6E73",
",. c #965349",
"<. c #C66F78",
"1. c #A4867E",
"2. c #CE8E75",
"3. c #E6A378",
"4. c #2C3995",
"5. c #384885",
"6. c #3A4E94",
"7. c #3E5986",
"8. c #3C6D82",
"9. c #3D6683",
"0. c #3C7288",
"q. c #3447A3",
"w. c #444A88",
"e. c #435B83",
"r. c #4B5D82",
"t. c #445582",
"y. c #575F89",
"u. c #4D5594",
"i. c #4D5A93",
"p. c #4B549C",
"a. c #48599E",
"s. c #525C9A",
"d. c #535A98",
"f. c #4C4C93",
"g. c #446582",
"h. c #4C6484",
"j. c #446C83",
"k. c #4A6C83",
"l. c #4C6D8A",
"z. c #48648B",
"x. c #536B83",
"c. c #566689",
"v. c #457284",
"b. c #4B7385",
"n. c #44738B",
"m. c #4C748B",
"M. c #44798C",
"N. c #4C7A8B",
"B. c #4B7985",
"V. c #537186",
"C. c #52748B",
"Z. c #537A8D",
"A. c #587588",
"S. c #4C6895",
"D. c #556797",
"F. c #4C7B93",
"G. c #487794",
"H. c #547492",
"J. c #557C93",
"K. c #5A7D94",
"L. c #597A99",
"P. c #667488",
"I. c #657698",
"U. c #6E7090",
"Y. c #414FA2",
"T. c #4B59A3",
"R. c #4859A9",
"E. c #525BA4",
"W. c #5855A4",
"Q. c #4D5EB9",
"!. c #5966A8",
"~. c #5B73A7",
"^. c #5D6CBD",
"/. c #5868B5",
"(. c #5267B0",
"). c #636DB8",
"_. c #6577B9",
"`. c #6970A9",
"'. c #5E69C3",
"]. c #5D67CB",
"[. c #5E6CCC",
"{. c #636CC7",
"}. c #6875C7",
"|. c #646DD3",
" X c #656DD9",
".X c #6973D5",
"XX c #6E76E3",
"oX c #8A7C8F",
"OX c #B17586",
"+X c #C87381",
"@X c #D07986",
"#X c #4C8396",
"$X c #548394",
"%X c #5A8396",
"&X c #53859C",
"*X c #5B849C",
"=X c #558A9B",
"-X c #5D899C",
";X c #548896",
":X c #54848F",
">X c #62859B",
",X c #638B9D",
"<X c #7D8598",
"1X c #5C8BA3",
"2X c #5A88A5",
"3X c #5E91A8",
"4X c #628BA4",
"5X c #6689A5",
"6X c #6491A4",
"7X c #6394AC",
"8X c #6996A9",
"9X c #6A98B4",
"0X c #739DBC",
"qX c #6F8FAC",
"wX c #72A2B9",
"eX c #759DC3",
"rX c #6F8CC3",
"tX c #74A0C5",
"yX c #85808C",
"uX c #968893",
"iX c #A99395",
"pX c #AF8D92",
"aX c #9092B6",
"sX c #B199AA",
"dX c #BBABB2",
"fX c #C59587",
"gX c #DCAA97",
"hX c #FFBB8D",
"jX c #FFB896",
"kX c #E9AD91",
"lX c #D5B5AB",
"zX c #CEB1B1",
"xX c #EABAA6",
"cX c #F9BDA9",
"vX c #EBBBB1",
"bX c #D6C1BE",
"nX c #F6C5AA",
"mX c #FBC9B7",
"MX c #FED3B7",
"NX c #F3CAB4",
"BX c #FFE6BF",
"VX c #FFC694",
"CX c #B0B1CF",
"ZX c #9E9BCA",
"AX c #C6BBCF",
"SX c #FDD9C6",
"DX c #F6DDD7",
"FX c #ECD2CF",
"GX c #F8E4DA",
"HX c #CFCDE7",
"JX c #E3DFFA",
"KX c #FEFCFE",
"LX c #F2EBF5",
"PX c #D0CED1",
/* pixels */
"| 1 w $.X.2 4 } / / %X4XZ...Y T A.w m B.j.z.z.l S.9.7.5XqXV.O.y | d a 0.M.=X2Xz i  .} r N } c i ! g.",
"| 1 y B.v.r i k.../ Z.,XZ.} u ! } $.B.V L.S.7.@ @ & 6 7.j.X.N , { u r 8.0.&X*Xl 4 p d y X.b.! i / X.",
"| d { Z.N.a i ....z m.-XC.c u ~ >XV i l.n.f f ~._.5X~.7.n e.b z | d t A #X2X#Xe i { a M %X%X..7  ...",
"| T } :XN.x i ..( p k.-XZ.s 8 ~ A.J.S.H.f ~._././.^.}.~.~.~.e.l...N r A #X2XJ.5 u s r N ,X4X..7 !  .",
"T u s B.B.M p  ...i X.J.b.c 8 ~ qX .g.~.~._.}.^.{.^.}._.).~.f g ..T w A &X3XL.i 9 i y Z ,X6Xk.i  ...",
"u y a X.X.r y Q ! 7 c b.X.a 8 ~ 5Xl.e.f _./.}.[..X[.|.^.^.}.~.7.~ s 4 B &X7X-Xc p i y m %X,X .8 i p ",
"s p N B.v.r 7 9 ! 4  .Z.N.X.p Q c.^ e.a.}.^.'.|.].].|.|.'.}./.$ ! ! t A 2X9X*X/ ! s 4 r B.Z.s <  ...",
"u y B B.B.N p Q Y z J.8X8XK.( ! ! + @ `.).}.[. XXX X|..X^.}.).$ ..} r 8.3X9X2X/ C...a m >X,XV.! ! ! ",
"p i V C X.B y ....!  .*XJ.m.! ( c.+ @ !._.{.|.|. X]..X|./.}.).= + @.m C 7X9X5Xc ..| m N ,X,Xb.s X...",
"u i a r M x u ..( ! a Z.J.m.b ^ D.) W d.}.).{..X X].|..X'.}.).j + @.s Z 3X9X5XV l.$.N N :X>Xl./  ...",
"! N C Z B.b. .+.x.! c ;X1XK.g./ I.c.W u.`.)./.|.|.].{.}.{.)./.i.@ @.N j.7XwX4X/ ..o.m m B.N.V z X.j.",
"c i B N.%XC.s | ..s c *X4X>Xg.t.c.= * d.!.).}.|.[.'.'.{.).!.E.d.# | N v.3X7X*Xc p } a r B.v.a 4 /  .",
"c 6 M =X6Xb.7 ! ~ p c -X1X*Xl.c.D.* w.E.E.p.R.Y./.).^.E.!.E.p.s.q | N v.3X8X2X..p s a m N.N.c i x C ",
"k.e 8.6X8Xb.8 @.+.! b %X-X*XC.D.= w.u.p.E.E.E./.R.Q.(.T.T.T.T.i.( | s Z &X2XJ.b } N y m N.Z. .a j.l.",
"g.e C -X6XX., x.+.! x J.F.l.b e.* s.E.p.p.T.T.R.R.T.T.T.T.T.E.i.~ p w k n.G.g.5 o.} r r B.N.V c C.J.",
"..c v.1X,XX.y @.@...V *X2XH.v j !.p.W.!.p.E.!.T.T.p.T.E.T.s.s.i.~ Y y j.1X1XH.b X.} a M N.b.c x g.m.",
"} c Z.4X*XX.d @.@.a n.~.qX`.( * E.R.T.f.u.!.d.i.d.d.W.W.W.d.d.^ Y T , d Z.-XL.l.V g.x p V.b.x x j.m.",
"T i m.7X4XX.u %.{ w 9.G.G.S.) t.D.T.6.w.w.d.d.d.E.p.W.Y.).f.D.@ p Y , 7 j.j.C r V l.z e j.k.a w V j.",
"s w l.9X9Xl.p @.| d 9.G.L.S.i q d.d.* !.i.!.5.a.R./.4.Q.Y.R.a.@ 8 d , i k.Z.m.C V k.x 4 } X.r t e c ",
"Z w n.eX0XH.! x...c 0.3X3XF.w # y.W * u.!.5.6.(.R.Q.q.R.R.6.S.@ Q ! y d j.N.m.V l.K.g.c V.K.Z l c g.",
"X.a F.tXeX~. .P.+.b G.~.N.Z 2 d ^ * * !.~.6.R.}.{.R.R.).!.f.y.U ~ | p a  .m.v.c m.>XV. .H.*XC a j.C.",
"$.m F.eXtX~.e.I.K.Q 9.0.Z m 2 R U = c.D.`.% /./.).Y.w.!.# . - ; _ @.p y Z b.v.a k.J.k. .C.Z.M t C m.",
"O.M F.eXrXL.r.H.I.c B 8.$.m 3 K ' ' [ CX! g d.`.).* = ; sXpXzX- #.@.c d N X.x < k.J.k.X.*XJ.B r j.H.",
"{ s &X9X9XL.g.C.m.l V l.O.H - J ] ] DXHXHXE aXw.W ZXAXCXsXOXgXX _ V.} N C.J.N.a c g.c c C.Z.a r j.C.",
"{ u J.7X3XG.B C O.w N V.@.J iXlXkXxXSXMXzXoXKXHX`.LXHX&.dX  uXX #...i p Z.$Xo.M c c p X.m.Z M e b X.",
"3 1 b.6X2XG.A j.$.$.a V.P.  I >.gXxXfXMXo [ oXaXU.U.yXPXKXbXX 1 R } i x Z.J.N w  .X.c  .l.8.8.x e c ",
"H 3 @.6X&Xn.Z B.:X$.y A.&.- pXlXlXlXfXo zXFXJXZXU.CXKXLXGXGXJ F ( ..c X.,X,Xb.s  .k.c c j.n.N.0.x  .",
"H 3 B.-XF.C M $.A.O.o.%XA.' iXiX  X D ;.P [ _ aXLXKXiXlXGXDXuX# ..O.a N >X,X$.M } V. .N j.N.F.n.n  .",
"{ 3 l.1X&Xv.} $.o.A.%Xk.P.#.J J :X1 K dXdXJXLXaXKXoXFXnXSXMXbX# ..X.a N >X,XX.2 N V.X./ j.N.G.B c X.",
"{ 2 V F.n.g.} @.x.{ :Xn.m.V.3 R N } # ] sXsXAXaXuXsXgX3.3.xXzXK ~ c p V ,X6XX.w a O.N  .F.$XF.A V l.",
"{ 2 k 9.9.l 8 R ( , G.2X0.8.a 2 l x.; OXOXOXoX&.J 1.kXjXMXkXI H u i , m ,X6XX.2 y } c X.J.1X2Xv.l X.",
"O.r j.2XK.c.Y ~ 8  .8.0.0.B < 4 c Y ; :.=.:.-.; D nXjXhXhXMXX %.o. .d } ,X8Xb.y }  .c k.%X2X&Xn.k  .",
"Z.s 8.1X%Xg.! ~ ! a M #X=X$.m s l Q J ;.>.fXOX>.L gXhXVXhXcX&. .X.k.l V %X%Xk.s s o. .X.5X,X2XM.x j.",
"b.a M N.b.c p ....a M #X;XC s ! c.Q F D >.<.+X<.O cXVXhXhXmXH k C.V.e p b.j.s w } x.! c K.-X&X0.k j.",
"k.x a v.b.x i x...s C ;X;XX.c ! h...%.] @X+X+X<.,.=.=.3.cXpXu x H.l.6 e b.k. .N N k.s , j.j.8.t B j.",
" .N V N.K.} 9 ....N C =X=XX.p ! ( +.R &.-.+X<.<.=.MXBXnXmXI %. .>XC.l V J.C.X.c s o.b i m.j.B S x 8.",
"p z V J.%XV 9 c.X.M A =X=XC p ! ( / R yX: OX<.<.=.MXMXSXSX;.P.c C.c.l j.-XZ.X.c p ! c c L.m.0.k x X.",
"p i x Z.J.N Q A.X.M A =X=XC p ! x.Y ! <X] fX<.<.2.MXSXGX-.aXI.4 b g.l 9.>X*Xj.a V k. .b J.G.8.k < y ",
"! y N Z.b.c ..K.k.a A #X&X8.c ( c.~ l _ [ OX>.,.xXgXbXzXG U.c...r.c.n g.L.L.j.t V.>XH.g.L.&XG.k a  .",
"..p  .J.k.a  .A.o.e k 0.N.M l ! Q Q 5 0 W ] L L xXSXlX' U.&.c.8 / z.l b *X4XH.b b 5XL.V L.3XL.t a  .",
"..p X.b.j.N / V...k 0.9X7Xv.a p ~ Q l / _ ; L L vXlXAX` y.I.c.0 / e.b l.qXwX8Xn X.I.V.g.J.4XF.l a } ",
"..p X.j.N x c A.b r 0.wXwXM.z Q Q Q n z.r.; -.I o X G U y.c.Y Q h.e.v g.4X9X4Xx m.>Xm. .L.4XF.a p } ",
"! s O.B.M e z k.c e 8.9X7Xk.p 0 Y h v z.r.F ' P : - F c.D.I.r.) e.v 5 7.L.2X%Xx j.J. . .J.-XN.e i s ",
"c s Z.$Xj.e 4 c n 6 8.7X9Xl.h 0 h g g z.r.U ` G G ` & r.j D.c.& ^ g 6 V L.J.v.x a j.c c J.*Xj.t w s ",
"! s Z.-Xv.r 6 z n t 0.0X0XH.Q 0 W g g z.r.Q Y F E U q S.S.i.c.Y 0 g g g.*XJ.Z e a o.c N Z.Z.$.e s  .",
"} c Z.;XB.M a b b 5 Z 3X4Xl.W W W h v r.e.v 0 0 r.^ g D.H.^ Q q 0 v g j.1XJ.X.x Z b.N N C.Z.X.a N o.",
"k.N B.$Xn.V a V g.e B -X2Xh.^ ) ) v v r.v n l l e.e.j t.i.e.W 0 ^ h.z V J.m.Z m X.B.} } Z.Z.X.a c k.",
"V.V N.=XF.C a c X.l v.9X0XH.) W r.^ ^ z.5 v 5 v z.e.f e.z.^ , Y c.L.b n b.N r r X.@.O.$.,X%XB.r } k.",
"A.V G.1X7X8.N d O.i l.0X2Xl.Y U @.| i n n 9 i 8 Q 7 v z.S.g.9 7 H.J.V N N.K.X.> a N c O.K.%Xj.a X.V.",
"l.c G.3X7Xv.N s } y n.0X2Xh.u 1 u d e g.l.b p 8 8 1 l.qX9XL.z 4  .j.l B J.>XC.4 d } N o.K.>Xb.s n k."
};
