/* XPM */
static char *Untitled__16_1707913708[] = {
/* columns rows colors chars-per-pixel */
"50 50 239 2 ",
"   c #2F3537",
".  c #4D3837",
"X  c #6A343C",
"o  c #3B4039",
"O  c #2F423C",
"+  c #6D4637",
"@  c #37394B",
"#  c #453746",
"$  c #573947",
"%  c #623D49",
"&  c #683D50",
"*  c #1E4452",
"=  c #1D5C59",
"-  c #2C4C5C",
";  c #254A5B",
":  c #354D5C",
">  c #3C4B5C",
",  c #384B55",
"<  c #295355",
"1  c #334F4B",
"2  c #286358",
"3  c #1E4F60",
"4  c #2D4C62",
"5  c #274B65",
"6  c #334D65",
"7  c #394D64",
"8  c #324F6B",
"9  c #394C67",
"0  c #2C5265",
"q  c #2D556A",
"w  c #2D5B6C",
"e  c #265767",
"r  c #335365",
"t  c #3A5365",
"y  c #345A65",
"u  c #33546B",
"i  c #3B556C",
"p  c #345A6D",
"a  c #3B5B6C",
"s  c #3D5966",
"d  c #2D5D71",
"f  c #2A5371",
"g  c #345772",
"h  c #3B5672",
"j  c #355B72",
"k  c #3B5C73",
"l  c #365D7A",
"z  c #3C5D7A",
"x  c #3A4D75",
"c  c #2A6669",
"v  c #39656A",
"b  c #2D6679",
"n  c #356374",
"m  c #3C6275",
"M  c #35647A",
"N  c #3C637B",
"B  c #3C6B7C",
"V  c #386977",
"C  c #38737A",
"Z  c #337768",
"A  c #57444A",
"S  c #474957",
"D  c #47525B",
"F  c #5A5858",
"G  c #564F4D",
"H  c #644A49",
"J  c #784849",
"K  c #694852",
"L  c #665456",
"P  c #7A5358",
"I  c #774C4F",
"U  c #404F6A",
"Y  c #435364",
"T  c #42546C",
"R  c #425C6D",
"E  c #495968",
"W  c #535A69",
"Q  c #425571",
"!  c #435C75",
"~  c #4A5D74",
"^  c #435D7A",
"/  c #4A5E79",
"(  c #6E5A64",
")  c #725E67",
"_  c #49666B",
"`  c #5B646A",
"'  c #436275",
"]  c #4B6474",
"[  c #43637B",
"{  c #4A647C",
"}  c #436B7D",
"|  c #4A6B7C",
" . c #476A73",
".. c #51647E",
"X. c #526579",
"o. c #44707D",
"O. c #487078",
"+. c #537978",
"@. c #4A7D6E",
"#. c #6D6971",
"$. c #81444A",
"%. c #844B59",
"&. c #895756",
"*. c #98595A",
"=. c #855E4D",
"-. c #8A6959",
";. c #916358",
":. c #80614F",
">. c #8D5A66",
",. c #955964",
"<. c #896969",
"1. c #996466",
"2. c #997567",
"3. c #826B75",
"4. c #8A757A",
"5. c #996D75",
"6. c #AC726C",
"7. c #A97B75",
"8. c #B07272",
"9. c #47877A",
"0. c #4A8E7E",
"q. c #93847F",
"w. c #A6847B",
"e. c #B5857C",
"r. c #B6917E",
"t. c #3C6480",
"y. c #3E6C82",
"u. c #3B7584",
"i. c #4B5C81",
"p. c #446582",
"a. c #4B6583",
"s. c #446C83",
"d. c #4B6C83",
"f. c #446C8A",
"g. c #4C6C8A",
"h. c #526682",
"j. c #536B84",
"k. c #536D89",
"l. c #586B8A",
"z. c #447385",
"x. c #4A7385",
"c. c #46748B",
"v. c #4C748A",
"b. c #457B8B",
"n. c #4C7B8D",
"m. c #487A85",
"M. c #517284",
"N. c #53748C",
"B. c #59738B",
"V. c #537B8D",
"C. c #5B7889",
"Z. c #4B7691",
"A. c #4C7C93",
"S. c #467A90",
"D. c #5C7593",
"F. c #547B92",
"G. c #5B7C93",
"H. c #557D98",
"J. c #5B7D9A",
"K. c #537492",
"L. c #637D8E",
"P. c #627D99",
"I. c #7F7784",
"U. c #617FA1",
"Y. c #977B84",
"T. c #8A7A87",
"R. c #A67C89",
"E. c #B07D8C",
"W. c #4A8588",
"Q. c #4E9888",
"!. c #569C8B",
"~. c #4D8492",
"^. c #4E8897",
"/. c #548394",
"(. c #5A8396",
"). c #55859A",
"_. c #5B849B",
"`. c #538B99",
"'. c #5C8B9D",
"]. c #578896",
"[. c #549794",
"{. c #578F86",
"}. c #6B888B",
"|. c #67988D",
" X c #62849D",
".X c #628B9D",
"XX c #658498",
"oX c #799394",
"OX c #739390",
"+X c #5DA795",
"@X c #66AC9A",
"#X c #78A39C",
"$X c #5D85A2",
"%X c #5D8CA4",
"&X c #598DA7",
"*X c #5A94A8",
"=X c #6385A2",
"-X c #628BA3",
";X c #698CA7",
":X c #6392A4",
">X c #6493AA",
",X c #6995AC",
"<X c #689AAB",
"1X c #6D9AB4",
"2X c #6599B4",
"3X c #739CB9",
"4X c #6CA4B3",
"5X c #71A2B4",
"6X c #79A5BB",
"7X c #6BB6A6",
"8X c #75CAB2",
"9X c #7EA6C0",
"0X c #9C8887",
"qX c #8F888E",
"wX c #AA8789",
"eX c #BD8785",
"rX c #B49697",
"tX c #B19194",
"yX c #91ADA7",
"uX c #BFACAE",
"iX c #CA9A9A",
"pX c #D99699",
"aX c #C08C88",
"sX c #C9A89A",
"dX c #D6A79A",
"fX c #E1A79C",
"gX c #CE9DA6",
"hX c #C6AEA2",
"jX c #C9B7AA",
"kX c #D8B6A9",
"lX c #D6AFAF",
"zX c #E7A4A6",
"xX c #E3B7A8",
"cX c #E5B9B5",
"vX c #E0C3B3",
"bX c #D4C1B3",
"nX c #AECCCC",
"mX c #D1DCE2",
"MX c #CCE9EC",
/* pixels */
"] : y | } ; 4 [ ^ ^ G.-XV.] T Q v.M d s.x.M.m a } m [ '.:XV.B e  .y c u.u.`._.y t ] ' y ' [ h h { p.",
"~ : y o.z.w u | { z G..XN.' t ~ V.y.l z.x.| a p | ' y | x.V c ; n y e C b.`.(.u - T r y } x.k 8 z [ ",
"] s v V.n.p i { a.h M._.V.k 7 ~ V.s.m N.M.| a R ] R - y | | x.a  .t e V b.).(.9 t R y m (.'.[ 8 ' p.",
"X.R ' /.V.j u { / i x.'.V.j 7 / G.x.m V.C.M.' ! +.{ y  .m.n.m.a { ~ u B ~.&XG.6 9 a y m .X-Xp.5 ^ ' ",
"R t v x.z.p a { { u [ F.x.k 9 / =Xn.t.H.J.F.k u p.' q V n.A.c.w ..Q 9 [ J.;XP.8 7 i r V .X:Xf.u ' { ",
"t r a z.o.w 6 h ! 6 m v.} p 9 ^ _.f.t.H.%XJ.N l s.M f t.A.).A.M / Q 6 l $X,XU.x i i 0 m ]..X[ u u i ",
"i i m z.z.p 6 i h 6 } V.N.[ h Q g.t.t.U.;X=Xd.N _.N.N c._.).c.j ! ~ x t.&X1XU.t.^ k ; q n.V.j 4 { a.",
"i r m m.z.k i h Q i G.,X:X(./ Q a.z z U.;X=Xa.' G.g.' F.-X'.v.l ^ / f y.&X2XU.i.k.{ p m ]..Xx.Q k ' ",
"i u m B o.m t { / ] N /.H.N.^ / h.{ ! k.j.{ s R }.L.R C.XXXXC.m ] g.d u.*X2X&Xt.[ [ p V .X-Xg.h { } ",
"i 6 n p n j u / { Q j v.Z.v.k h a.h.a.l.j...7 T L.B.u ' | j.' - ] M.c u.*X2X&Xl g.g.m V /..Xk.^ { [ ",
"^ k V V z.x.] { h.] k (._.(.a.^ J.g.p.g.D. Xz ' ;X X^ a.K.J.g.k v | w u.*X2X*Xt.p.a.n j x.N.i.h } a.",
"k u V c.].N.k ~ { h k ].-X=Xg.^ g.t.f.g.f.d.u g. XD.z [ d.K.p.u R +.n u.*X2X&Xf j m y p x.x.h 4 ' [ ",
"k 5 n ].:XM.r ~ / i k ].>X=Xg.i.D.a.a.l.N.M.4 i / { h ] a.P.i./ S ~ y | %X,X=Xp.h k w n n.V.k 8 l N ",
"a.u B *X<Xx.r j.h.~ l (.$XJ.g.h.i.~ 7 E D _ S , S D D G S W S S W W , k (.$XJ.h ^ ^ w j A.n.[ j f.g.",
"p.u B '.:X[ 6 h.{ k g F.A.f.z X.#.jXjXhXq.w.hXbXhXjXhXrX0Xw.-.<.0XT.Y E B.N.i.5 a.' q p n.c.N l v.H.",
"} k z.%X.X} r h.h.] [ '.).v.z X.L hXlXlXsXhXvXsXdXkXxXsXe.eX7.wXrXT.S W ;X=XP./ { [ g n n.c.k j p.v.",
"[ j n.:X_.B h l.h.^ g._.,X].' X.A <.( K K $ F G H J *.&.& X A A $ ( @ Q D.U.=X{ ] { j g c.v.p y } d.",
"m u z.*X%Xs.x h.j.h l z.n.s.u W F tXR.$ % ( $ K . I eXaX*.& # # K #.# 9 a.f.d.4 { d.j f f.f.p y N f.",
"a 0 z.<X<Xf.h k.a.u N n./.s.u E L gXgXX %.R.J -.J =.zXpX,.%.& & P T.# U g.K.G.! ^ d.j 5 t.y.y - u k ",
"' 0 z.5X5XV.^ l.a.h v.-X'.v.y E L iXpX$.8.iX1.e.e.*.zXpX*.,.,.>.%.Y.S U a.v.N.k j.G.t.t.Z.H.[ a k s.",
"d.p n.5X5XF.[ D.l.h f.H.n.B u D F rXiX;.eXeX6.e.r.;.fXpX*.*.,.5.%.Y.S U a.v.M.a x.XXv.t.H.J.' i [ v.",
"d.a n.5X5XF.[ D.D.h [ v.B p 6 > G sXsX2.6.6.e.6.r.;.xXdX*.$.,.,.J Y.S > a.v.o.y O.V.f.t.A.F.k 6 [ v.",
"| m ~.<X1XA.[ D.D.h B n.B j 6 , G jXsX=.6.6.e.=.6.-.xXdX*.X ,.$.J 0XS 7 } B y * | V.d.y.U.H.^ u a.K.",
"] R /.<X,XF.p.l.D.u l z.n j i Y F bXsXJ 6.8.6.+ :.-.cXfX1.$.,.& J 0XS Y G.F.x.v v  .j M A.Z.k u | N.",
"k p V.:X'.z.m a.^ k q c.n.u : , G 4.1.,.6.*.;.-.:.2.&.1.%.%.,.%.&.( @ y (.n.o.y a a d t.Z.y.k 0 m p.",
"6 - m.:X'.n.' d.B.p.n /./.p r E F uXlXgXzXcXdXvXbXrXwXhXtXE.E.E.q.#.D m F.v.} -  .| j t.c.s.[ a u j ",
"i y x.'.].x.p.N.D.' p n.V.u : t _ #.I.K 5.E.w.q.qXq.qX4.4.) ) ( F ( : l $X%XC.y _ | z l y.Z.n.d.j N ",
"' t x.].n.B k g.P.] B ~.W.m i T E S #.tXA . o o   S   S qXqXD 1 ` ` r N &X*Xn.r ] M.t.t.y.S.V.s.k ' ",
"R r z.'./.z.[ M.G.p.n.(.n.x.~ i { , oXmXyXo OXyXyXOX> oXMX#X{.|.qX}.w M &X$X} - E M.{ N u.S.S.n j a.",
"] r } m.z.V m g.a.' V.~.z.d.R 7 { R ~ MXnX` 9.#X|.+._ nXMX|.+X+X{. .e b &X*Xa.i T X.^ t.S.~.S.B [ g.",
"] - p V n w 0 k ' j V./.o.} T 7 / Q U I.0.O @.|.#X+., C.|.!.@XZ 2 r 3 t.*X2X[ : Y ~ k s.).&X^.z.p [ ",
"] u } ].].s.k k k 0 o.n.V a 6 6 Q T i  .< < Z 2 2 v < _ 0.@XQ.= c b d t.&X2Xd.i ~ X.k f.`.&X^.b.w [ ",
"N.m | './.[ ^ ' ^ g V ~./.z.i Q ~ 9 i z.c Z W.Q.Q.0.9.Q.@X@X9.2  .| p [ (.(.d.! R { [ } :X'.].b.g s.",
"g.p n c.x.k a { ' p b ~.^.B k Q h./ m C c [.@X+X8X8X8X8X7X@X9.< | | 4 y d.} p 4 ] x.[ a (.(.^.z.d y.",
"a.k p z.x.j i d.p.m y.^.`.y.a ^ i.i.N M b [.[.Q.9.Q.Q.+XQ.Q. .y C.k.u j N.x.p.' k a.a 5 } B B e n z.",
"[ k V V.(.N 6 ..[ m y.`.`.B h ! l.a.f.$XW.W.o.v c = = Z C c < p P.N.u N F.v.N k k a.k u v.B V 3 j s.",
"a h N F.(.N u d.[ j u.`.`.B p z i.x l $X%Xc.u ; C e w W.`.o.u 4 k.d.g [ (.K.' g g [ k l /.v.y.w p } ",
"i u k n.F.m Q B.a.d C ^.`.B u ^ g.i.t.;X6X6XD.{ ' p p z.<X1XK.x ^ ' u s.-X$Xv.l z g.' k F.v.u.w ; u ",
"^ u m F.N.k { B.d.j b ~.^.B k { a.i.z A.:X,Xk./ h.{ j y.:X9X;Xi.p.d.g N /.H.p.5 g. XG.p.J._.S.q p  .",
"{ u ' F.s.p { B.{ e d u.W.n u z g.t.l c.v.k 4 Q l.' g f.>X3XU.^ a.g.h l _.-XF.M [  XD.l H.-XH.e p [ ",
"a.a p.x.p.m ^ k.[ p u.4X*XV q ' x.M V A.].d.! t h.{ g c.>X1X=Xz k.N.k p.>X6X>XN s._.g.p.H.=XA.p p ' ",
"[ a B z.V a k B.^ q W.4X4Xb.j ^ | V B ~.^.| i i j.a.l v.>X,XJ.k K.N.l N -X1X$XM g.=Xv.p.G.-XA.j p ' ",
"^ p p.x.m u i h.k 0 B <X<Xn.' ^ m n C ~.^.| a i ..~ p m.-X>XJ.z N.g.l B _.-XA.n s.F.[ N G..Xv.e u i ",
"k p n./.s.0 6 ! a 5 y.*X4X/.[ i a w V ~./.C j ! ! u e z.%X%XK.k p.' u B )./.z.n g s.m z F._.f.0 0 a ",
"k m A.'.x.p 4 h u 0 z.4X5X].' i m y n b.~.} k ! k.m q m.-X'.g.u u p 0 s.].A.B d d d.m m N.F.s.u a [ ",
"[ j n.].v.j u ! z 0 C %X'.x.! Q { a n n.n.B g k D.[ g S.:X(.d.h h k p s.].n.z.w N M.N m N.V.s.p m { ",
"d.M c./.m.M h ' { 0 n /.].} h ~ ..^ N n.b.M j ! G.[ j A.%XZ.a.h d.d.m B W.c.B w } n.m [ V.V.| p m d.",
"v.V n.`.A.} p Q d.u z.1X3XK.Q T { ^ y.c.z.g u ! D.a.l A.).N h 6 D.N.j n B V w ; } x.' d..XXXx.q z d.",
"B.N S.&X>Xy.m t ' u c.3X=Xg.T t ] ' p M M q t t X.y s.A.A.p.8 4 V.n.n m n.(.} * p m k [ (.XXx.p [ M.",
"g.m Z.%X2Xz.m s  .r f.3X$Xd.t : s y q y.c.m y , , - v.,X1X$Xk 4 } s.p l F. XM.4 a k ' } C.(.x.j z d."
};
