/* XPM */
static char *Untitled__13_1707913707[] = {
/* columns rows colors chars-per-pixel */
"50 50 235 2 ",
"   c #3A3638",
".  c #563838",
"X  c #653839",
"o  c #64473F",
"O  c #243F5C",
"+  c #513D4A",
"@  c #1D4254",
"#  c #274A5C",
"$  c #344B5C",
"%  c #354A57",
"&  c #295855",
"*  c #34565D",
"=  c #1C635D",
"-  c #2B655D",
";  c #33615E",
":  c #1E4F60",
">  c #2B4D62",
",  c #2C4E68",
"<  c #274E66",
"1  c #334D63",
"2  c #364D66",
"3  c #255264",
"4  c #2C5265",
"5  c #2C546A",
"6  c #2D5B6D",
"7  c #275A6A",
"8  c #335365",
"9  c #3B5465",
"0  c #33546B",
"q  c #3A556C",
"w  c #345A6D",
"e  c #3A5B6D",
"r  c #385A65",
"t  c #2E5B73",
"y  c #345771",
"u  c #3C5671",
"i  c #345C72",
"p  c #3B5C73",
"a  c #3C5E7A",
"s  c #385A79",
"d  c #344C72",
"f  c #2A6966",
"g  c #3B636E",
"h  c #366869",
"j  c #37776A",
"k  c #346374",
"l  c #3C6275",
"z  c #3B6B75",
"x  c #36647A",
"c  c #3C647B",
"v  c #3C6B7D",
"b  c #376876",
"n  c #3A7379",
"m  c #4B4C57",
"M  c #4C5359",
"N  c #58535D",
"B  c #4B484E",
"V  c #7B4B4C",
"C  c #764749",
"Z  c #7C524B",
"A  c #664B55",
"S  c #755758",
"D  c #6F484A",
"F  c #7F6159",
"G  c #43566C",
"H  c #425C6C",
"J  c #495867",
"K  c #535765",
"L  c #5C5D6A",
"P  c #565866",
"I  c #425C75",
"U  c #435E7A",
"Y  c #475A73",
"T  c #555F76",
"R  c #404F62",
"E  c #685B67",
"W  c #775C63",
"Q  c #665F71",
"!  c #49636F",
"~  c #5B656B",
"^  c #426275",
"/  c #4B6374",
"(  c #456875",
")  c #43647B",
"_  c #4A647C",
"`  c #436B7D",
"'  c #4A697C",
"]  c #496B74",
"[  c #556578",
"{  c #45767C",
"}  c #537878",
"|  c #786168",
" . c #646273",
".. c #657378",
"X. c #844B4B",
"o. c #885457",
"O. c #95595C",
"+. c #8A514F",
"@. c #886559",
"#. c #956C5C",
"$. c #995562",
"%. c #A65D68",
"&. c #896767",
"*. c #98756B",
"=. c #8A6B75",
"-. c #966D76",
";. c #8B767A",
":. c #9A7677",
">. c #B56D6E",
",. c #A7786C",
"<. c #A57B7A",
"1. c #BB7973",
"2. c #AD696B",
"3. c #C87F7D",
"4. c #3A8576",
"5. c #438778",
"6. c #54877B",
"7. c #66807D",
"8. c #A7847C",
"9. c #B9827B",
"0. c #3F5B80",
"q. c #3F6581",
"w. c #3E6D82",
"e. c #3E7584",
"r. c #445A82",
"t. c #436681",
"y. c #4A6482",
"u. c #446C82",
"i. c #4B6C83",
"p. c #456D89",
"a. c #4D6D8A",
"s. c #4F6388",
"d. c #526C86",
"f. c #526D8A",
"g. c #566583",
"h. c #447284",
"j. c #4A7386",
"k. c #45748B",
"l. c #4B748A",
"z. c #4C7B8C",
"x. c #457B89",
"c. c #517385",
"v. c #53748B",
"b. c #59748D",
"n. c #537B8D",
"m. c #5A7A8F",
"M. c #4C7691",
"N. c #4D7C92",
"B. c #527491",
"V. c #5B7691",
"C. c #547C92",
"Z. c #5C7C93",
"A. c #5B7D9A",
"S. c #577D99",
"D. c #657489",
"F. c #617F96",
"G. c #607B98",
"H. c #7C7B80",
"J. c #5C7EA3",
"K. c #607BA6",
"L. c #A47C84",
"P. c #49878B",
"I. c #4B9684",
"U. c #519787",
"Y. c #4D8393",
"T. c #4F8997",
"R. c #548395",
"E. c #5A8295",
"W. c #568499",
"Q. c #5B849B",
"!. c #548A9A",
"~. c #5B8B9D",
"^. c #55858F",
"/. c #668984",
"(. c #62859B",
"). c #648A9D",
"_. c #658699",
"`. c #798F97",
"'. c #4CA58D",
"]. c #53A48C",
"[. c #58A594",
"{. c #5BB497",
"}. c #4DA090",
"|. c #65A999",
" X c #75A59F",
".X c #63B79A",
"XX c #5D8CA3",
"oX c #5D88A4",
"OX c #5E91A3",
"+X c #5F99A7",
"@X c #6186A2",
"#X c #638CA3",
"$X c #698AA6",
"%X c #6393A5",
"&X c #6493AB",
"*X c #649BAA",
"=X c #6B9DAE",
"-X c #6995A9",
";X c #6C9BB4",
":X c #6895B3",
">X c #749CBD",
",X c #6A8FAD",
"<X c #6DA2B3",
"1X c #6FA9B7",
"2X c #75A5B9",
"3X c #6FB9A6",
"4X c #6AC5A7",
"5X c #6FCCB1",
"6X c #7DA3C7",
"7X c #998789",
"8X c #83808B",
"9X c #A98986",
"0X c #B78986",
"qX c #B8948B",
"wX c #B79796",
"eX c #AA9599",
"rX c #BBA29D",
"tX c #A59FAB",
"yX c #8CACAD",
"uX c #B4A8AA",
"iX c #B9AFB0",
"pX c #AFB2B8",
"aX c #9296A1",
"sX c #C48887",
"dX c #C79C9B",
"fX c #C8968D",
"gX c #CA9EA5",
"hX c #C8A9A5",
"jX c #D8ACA6",
"kX c #CCB4AD",
"lX c #D6B9B3",
"zX c #E3B3AB",
"xX c #A9C6C2",
"cX c #A4DCCF",
"vX c #CDD3DF",
/* pixels */
"/ 2 4 { ` # $ _ Y U E.).n.z q U k.q.t w.k.l.a y u.x x #X&XN.v 5 ^ 9 p i.l.oXA.y 5 ) ^ q ^ ^ w 0 ) y.",
"Y 2 w j.j.8 9 ' _ p m.).n.z q U B.w.s k.j.p.s y a.c w u.l.z 6 # ^ 9 q ` M.A.oXt < e q 9 ' d.p 0 a c ",
"[ q ^ n.n.w q _ T u c.Q.l.l 1 U m.h.x l.j.a.p p ` p 3 w { h.h.k ( r 8 ` M.oXS.5 0 e w I F._.` , ) y.",
"/ H ( n.z.p 8 T / 9 j.Q.n.p 0 U Z.a.c m.n.c.^ l d.' w ^ j.j.j.g ' e 5 c C.XXC., 0 e 8 ( _.$X) > p ^ ",
"H q g j.j.g q _ _ 2 u.R.l.s 2 U _.c.^ A.Z.b.u q ' ^ 0 z c.n.j.r ( e 4 c W.OXW.7 4 0 8 ^ $X$Xi.5 ^ ' ",
"q 8 e ` ` 8 1 G Y > p l.` y 2 Y A.i.^ G._._.^ p ' p 4 l n.E.n.h g e 4 b oX:XW.t 5 w 8 H _._.` 0 0 q ",
"q q l h.h.0 > q u 1 ` C.z.) u I a.a p @X$X(.i.c E.l.l j.Q.R.x.w h l : w.oX:XoXx l e # 0 c.n.e # ) y.",
"q 8 z x.j.k q G G q Z.-X%XZ.U I y.a a @X$X(.t.q.E.l.c C.%XQ.x.k c z 7 w.OX:X!.q.l.` w g _._.j.p I U ",
"q 8 c v ` k q _ _ U t.R.S.n.I U a.0.q.a.M.s t q.S.N.w.M.oXW.k.i ' ( k h.%X;XXXx ( ) w ^ _.$Xj.w ) _ ",
"9 8 w i k l 0 ^ _ G a l.n.v.u U B.a.p.B.B.p.s a @XB.s a B.M.p.i ' ) w v oX:XXXx h.{ l ^ E._.a.l ) ' ",
"^ p z z h.j.^ d.d.U c S.Q.(.r.y.V.s._ f.G.f.l I ,XF.U H c.b.y.q ' } c h.XX;XOXs ` u.p e c.c.c i ` u.",
"u 0 b k.W.z.u U y.q l W.#X@Xg.Y V.T Y g.D._ G / F.D.T [ D.D.[ J H / l i.#X;XXXy w p r e i.j.6 < a ` ",
"p # k !.%Xl., U _ u l Q.#X#Xr.T T L K K ~ K M K L ~ m m N E N m R I e i.@X;X@Xb w e w g v.c.l 5 p c ",
"' 8 z +X=Xh.1 d.f.u l S.oXG.g.g.tXkXuXeXeXiXiXuXuXiX7X8.;.;.L.L.~ / q ) A.XXS.s c p 0 e n.n.z y t.a.",
"u.0 v ~.%Xv 1 d.y.u a C.n.j.u T uXkXhXrXrXkXkXhXkXkXwX8.:.*.8.7XP G 1 I B.B.y.< ) ^ 0 e c.z.c k l.S.",
"' i u.XX~.v 0 a.d.U u.Q.S.a.G T =.&.F S F F Z S @.*.@.Z Z D Z A N R 1 d.@XoXB.a ` ^ w g l.j.x y t.l.",
"^ g z.OX!.w.i d.i.) i.Q.$X_.G  .9XL.. D o o X.X #.9.8.V X X + W N m $ e v.@XA.a.U y.y 6 x.j.i u t.j.",
"p 0 l.%XXXw.q a.y.q i h.j.d.$  .gX0XD &.2.#.+.+.9.dXwXo.C C A =.E M % 4 ` j.y.2 y.i.w 7 u.h.y 0 c p.",
"p 4 h.*X&Xh.y d._ q ( n.v.' $ Q gXfX@.8.1.1.>.#.9.jXsX+.$.$.o.L.E m % * i.A.v.r._ i.w : b w.y , 0 p ",
"^ 4 k.<X<Xz.p f.U p j.)._.v.2 Q fXfX,.9.3.3.3.1.sXzXsX+.%.2.O.-.E M % 8 ` C.B.U d.A.` 6 l.C.t.y p t.",
"' e x.2X2XY.) V.f.p i.S.i.) $ Q dXfX#.8.8.9.9.#.9.zX0XX.+.$.V =.E P * 8 c l.l.r.f.(.j.b n.W.t.i u.v.",
"d.p z.;X;XN.c b.V.u ` j.z p $ L lXfXF 8.8.#.#.#.fXzXdXo.X.o.V -.E ! J e v j.y.u g.m.h.c Y.z.s , c l.",
"' e n.=X;XN.U b.V.y z n.( ^ $ K wX8.@.8.#.@.Z Z ,.qXL.X.C C D &.E ~ e q l x y O i.V.u.n R.R.c y i.B.",
"_ I R.=X=XC.c b.Z.q i u.i u 1 K 7XqX8.9.8.9.9.9.*.8.<.&.-.L.&.=.P T H z l.E.B.u I ' w k z.x.i 0 y.B.",
"I e n.*X~.l.a ' _ u w j.R.e # K eXwX0XdXhXhXkXjXqXwXwXL.L.-.-.=.P T 8 w z.W.i.p Y p 6 z l.v i 5 p u.",
"1 # l.%X~.x.) s.f.) i h.C.e $ K E S A S &.| S | S S | o.A A A + M J * w C.R.c > ^ _ h z h.e.c p 5 s ",
"G q j.~.R.k.` f.V.y.z x.n.u 2 J N E W + . B   B B   N ..M M m K P / e z ~.%Xi.q _ i.w k n x.M.p.i c ",
"U q j.W.N.u.p d.Z.y.` n.^.z 9 G ~ aXvX8XM } 7.7.~ M yXxX/.} ..`.! / w k W.OXj.u / c.b g e.x.N.p.p ) ",
"Y 8 j.~.W.j.) f.V.y.j.R.R.` H 9 H `.vXxX}  XyX3X6.7.cXcX[.{.|.} ! ] w b W.XX` > I c.z b n z.z.c a y.",
"U 0 ) z.k.c c d.i.' l.W.n.' I 9 ^ ] yX`.* 6.[.6.j { 4X.X].[.U.; ! H 8 v OX%Xi.1 q ] g z z.R.N.q.c i.",
"_ 1 y v b 6 1 a U a x.R.j.( H 2 ] r Y J & - 4.4.- ; 5.].{.'.4.- 8 0 # k ~.OXu.1 9 I w z Y.!.Q.k.y y.",
"_ 9 t.E.W.p.u I u e h.z.v w q $ 9 9 % 9 j 5.5.4.6.6.4.{.{.'.j - ] ] w z ~.&Xj.q ^ ^ h { W.~.W.k.0 ) ",
"v.p ` ).R.) ) U ) q x Y.T.h.e q H * ! h j I.]..X{.{.{.{.{.I.j ; ] ' w ^ E.E.a.I H ` ( ) %X).!.z.y u.",
"a.w k z.j.p q _ ) y b Y.Y.w.u H _ r h j 4.}.{..X.X4X5X5X3XI.j & c.d.4 0 u.( w # ^ d.^ e C.W.T.h.t u.",
"' p y h.h.i q d.) l v T.!.w.p I g.I b n P.[.}.5.U.I.].'.I.n e 8 m.f.8 i c.a.` ) I i.u < ` u.v 3 k h.",
") l c z.E.l 2 y.` p w.!.!.v u I s.U ` h.P.P.P.f - = = f n z l 0 G.v.q p C.j.) p p ' p 0 l.n b : k u.",
"q y c C.W.^ 2 i.c k e.T.!.v w p r.U y.W.*X*XR.h z h t x.+X<XS.r.d.i.y ) Q.C.c y y U p s S.k.v 6 i ` ",
"q 0 p n.C.l G b.u.t w.T.!.v w U r.0.0.XX2X2X).I z w 7 e.:X2XK.d U ) 5 u.#XQ.i.i c i.) p C.l.e.6 @ 0 ",
"U 8 a n.j.p ^ G.i.i x P.T.v p U B.0.t W.-X).b.e b.) y k.:X6X,Xr.y.y.y c A.W.q.< a.(.V.t.E.E.M.6 w ( ",
"' q c C.i.p U b.' 5 7 e.P.x 0 U a.0.t M.k.i p q d.I y p.&X>XK.0.y.a.y a Q.$XS.c c @XS.a S.oXW.3 w ^ ",
"' i ` l.u.p U d.) 0 x.1X+Xk 5 ) a.a x N.W.k.u 2 y.t.s k.&X>XK.r.B.v.a t.,X2X&Xc y.Q.v.t.C.@XN.y w ^ ",
"_ q ` u.l i Y b.U 5 e.1X<Xx.p a a.c w.Y.R.w.e q d.y.x M.&X:XK.s B.v.i q.@X;XQ.x a.@Xa.t.S.@XN.i q ^ ",
"I 0 u.h.l 5 q i.p , v *X*Xz.l I ) k v Y.T.h.w e _ p t k.XX&XJ.a f.f.i w.~.XXN.k u.C.) c Z.Q.l.5 8 p ",
"p i z.R.u.0 1 I q 4 v +X<XC.) Y p w b Y.R.n e p ^ w 7 e.XXoXV.s ) U 0 v W.R.h.k y p.p l C.Q.h.4 4 e ",
"p p C.~.j.w > u w 4 e.<X<XE.^ G U 0 i z.Y.u.p p d.p 7 x.OXoXa.0 y 0 5 u.W.Y.v 6 w i.p ) v.C.u.0 p ) ",
"c k z.W.h.l 8 U p 4 v OXOXh.I I y.p c z.Y.z w p m.( t x.%XE.i.y u p 0 h.W.z.v k z l.l l n.n.u.i p ' ",
"p.b x.R.k.c q U ' 5 k R.W.) u Y s.U u.M.l.b q p C.) t N.oXM.y.u a.i.k v z.x.z 6 w.l.l ^ n.n.' w p i.",
"j.v z.W.N.` w u ' q h.;X>XB.Y G T U t.k.u.w 8 U m.` k N.W.c u 2 v.c.k l w.z 6 3 ( j.^ i.)._.j.5 c i.",
"b.c M.OX+Xw.p e ^ q k.>XoXi.G M ^ I i x x 5 r 9 ] r u.N.N.t.0 > n.n.x k n.C.` @ w p l ' m.E.i.w ) c.",
"a.l M.XX&Xe.l e / 8 p.>XoXp.9 % r 0 5 u.k.l r % % $ j.:X;XQ.u , t.u.i i C._.c.> e ^ l ' E.E.j.p a i."
};
