/* XPM */
static char *Untitled__14_1707913708[] = {
/* columns rows colors chars-per-pixel */
"50 50 230 2 ",
"   c #2B3B3C",
".  c #542D2E",
"X  c #5A2C3D",
"o  c #543034",
"O  c #4E3E3F",
"+  c #66363B",
"@  c #5B4B3E",
"#  c #3F3F49",
"$  c #5D3942",
"%  c #683A45",
"&  c #1E4657",
"*  c #195355",
"=  c #2C4343",
"-  c #364648",
";  c #244D5F",
":  c #294C58",
">  c #354C5B",
",  c #384958",
"<  c #26545C",
"1  c #29565E",
"2  c #3B545A",
"3  c #1C4F60",
"4  c #264E62",
"5  c #2B4D63",
"6  c #2B4E6A",
"7  c #324D65",
"8  c #394D64",
"9  c #344D6B",
"0  c #245265",
"q  c #2D5266",
"w  c #2D536A",
"e  c #2D5A6C",
"r  c #2A5966",
"t  c #325365",
"y  c #3B5464",
"u  c #335C65",
"i  c #3D5A66",
"p  c #34546B",
"a  c #3A556C",
"s  c #345A6D",
"d  c #3A5A6D",
"f  c #2E5B72",
"g  c #2F5770",
"h  c #355671",
"j  c #3C5772",
"k  c #355C72",
"l  c #3B5C73",
"z  c #3C5D79",
"x  c #385679",
"c  c #2D6369",
"v  c #33636D",
"b  c #3A626E",
"n  c #37696B",
"m  c #356274",
"M  c #3C6275",
"N  c #3C6C73",
"B  c #356678",
"V  c #3C637A",
"C  c #3C6B7C",
"Z  c #366873",
"A  c #3C727C",
"S  c #397273",
"D  c #3D716D",
"F  c #574A53",
"G  c #425B5B",
"H  c #475657",
"J  c #534E54",
"K  c #684244",
"L  c #784649",
"P  c #764C55",
"I  c #7C4B54",
"U  c #774856",
"Y  c #6B5857",
"T  c #7F5559",
"R  c #765A4F",
"E  c #73645B",
"W  c #6F605D",
"Q  c #41596C",
"!  c #4B5B6B",
"~  c #425568",
"^  c #425C75",
"/  c #4A5D74",
"(  c #435D7A",
")  c #435873",
"_  c #695F61",
"`  c #7E5261",
"'  c #46666A",
"]  c #526667",
"[  c #436275",
"{  c #4B6474",
"}  c #446C73",
"|  c #43647B",
" . c #4A647D",
".. c #436A7D",
"X. c #4A6A7E",
"o. c #53687A",
"O. c #44737C",
"+. c #467778",
"@. c #57747B",
"#. c #7C6A75",
"$. c #766E6E",
"%. c #875659",
"&. c #8D554D",
"*. c #88665E",
"=. c #98625B",
"-. c #885B66",
";. c #896369",
":. c #996969",
">. c #8C716A",
",. c #996A74",
"<. c #857879",
"1. c #9B7875",
"2. c #916F73",
"3. c #A46A68",
"4. c #A27274",
"5. c #AA7B77",
"6. c #AA756E",
"7. c #91817C",
"8. c #A7867D",
"9. c #B9847A",
"0. c #C38A7C",
"q. c #3D5F82",
"w. c #3D6D82",
"e. c #3E6781",
"r. c #3D7182",
"t. c #3E7987",
"y. c #465D82",
"u. c #415780",
"i. c #456581",
"p. c #4A6683",
"a. c #446C82",
"s. c #4B6C83",
"d. c #466E89",
"f. c #4C6D8A",
"g. c #4A6789",
"h. c #546C83",
"j. c #516D8A",
"k. c #457284",
"l. c #4B7386",
"z. c #45738B",
"x. c #4C748B",
"c. c #447C8C",
"v. c #4C7B8C",
"b. c #4A7B83",
"n. c #517286",
"m. c #53748C",
"M. c #59748D",
"N. c #537A8E",
"B. c #5A7A8B",
"V. c #576E90",
"C. c #4C7592",
"Z. c #4D7B92",
"A. c #547592",
"S. c #547C93",
"D. c #5A7C95",
"F. c #5B7E9A",
"G. c #587895",
"H. c #617E97",
"J. c #5E7FA0",
"K. c #867D80",
"L. c #AC7E8A",
"P. c #4B8483",
"I. c #57868B",
"U. c #4C8494",
"Y. c #4F8997",
"T. c #548394",
"R. c #5B8395",
"E. c #55849A",
"W. c #5C849B",
"Q. c #548B9B",
"!. c #5D8B9E",
"~. c #548896",
"^. c #5A9695",
"/. c #62849C",
"(. c #628A9D",
"). c #66899A",
"_. c #659899",
"`. c #6A8A88",
"'. c #5E8BA2",
"]. c #5D87A3",
"[. c #5E93A3",
"{. c #6384A3",
"}. c #648CA2",
"|. c #6A8CA4",
" X c #668FAA",
".X c #6888A8",
"XX c #6392A2",
"oX c #6493AB",
"OX c #6A94AB",
"+X c #6C9AAC",
"@X c #6898A8",
"#X c #7396AE",
"$X c #6D99B3",
"%X c #7394B5",
"&X c #729BB4",
"*X c #7B9BBC",
"=X c #749CBA",
"-X c #728FAF",
";X c #6CA5B3",
":X c #76A2B9",
">X c #7AB2AC",
",X c #8C8B8D",
"<X c #AA8986",
"1X c #B78C88",
"2X c #B6938B",
"3X c #BC8B91",
"4X c #AD9596",
"5X c #B49293",
"6X c #B6A29B",
"7X c #88BCB7",
"8X c #BEAEAB",
"9X c #C79589",
"0X c #C79899",
"qX c #CE9892",
"wX c #CAA296",
"eX c #D7A498",
"rX c #CC9EA7",
"tX c #D7A9A5",
"yX c #CBB5A8",
"uX c #CBBAB7",
"iX c #D6B5B1",
"pX c #E9B7B7",
"aX c #E0AEA3",
"sX c #D8C3BB",
"dX c #E4C6BA",
"fX c #F2C0B7",
"gX c #819FC3",
"hX c #80A5C0",
"jX c #95CAC4",
"kX c #EBD0CA",
/* pixels */
"{ > t O...; > | / ( F.(.N. .a ) f.V g a.l.m.l k ..| | /.@XN.N w | s l a.x.R.W.s p | / a / V k p V ..",
"{ > t b.k.e p p.y.^ S.(.N.[ a / m.a.z x.s.d.k k s.z s ..l.V s ; V p p C b.W.R.p 5 j a s h.j.l p ^ | ",
"{ y b N.v.s a  . .j x.W.m.M 8 / A.d.B C.x.d.z l ..l q k k...O.M  .s p V v.W.R.q p z h ^ H.H...5 (  .",
"o.Q [ I.v.k p  . .p l.W.N.d 8 / F.z.V S.N.x.V z l.i.s V l.v.l.k a.M w | S.(.S.q p a a  .).|.| 5 z | ",
"Q y d b.b.s a  .( p i.D.l.l 9 / /.v.e.D.F.N.l h ..| p M m.N.b.p ..l q B R.XXT.w 7 p 9  .|.|.s.w [  .",
"y y s O...e 7 ) ^ > M l...j 8 ( F.a.z W./.F.V j ..M w V B.R.N.M M l 5 V W.OXR.k p a p ^ /./...q p a ",
"d a M k.O.s 5 a ) 7 ..S.m.| ~ ) s.z z W.|./.s.| H.m.[ f.R.R.l.s l l q V (.+XR.M l l 5 9 m.m.l ;  .X.",
"a t V b.z.l a j ) a S.+XXXD.( ) p.z V {.|.{.a.| D.n.| N.).).m.s |  .p ..}.+X).V n.s.p ^ /.).k.l l ^ ",
"a t V C ..M t  ./ / | E.D.A.( ^ s.i.z f.d.| p ( H.M.| n.|.).l.l X.s.l a.XX+XW.V |  .d | /.|.l.s [ X.",
"a 7 v s m b a { p.^ k x.v.x.z z m.d.| A.m.s.x ( /.M.a l l.s.| t | ..p V /.+XR.V l.f.l ^ R.(.z.B .. .",
"^ M V C z.l.| X.h.[ l E.W.F.p.( G.x.| A.M.m.^ ( #X)./ | m.m...d X.j.| a.|.;X).V | a.z l l.x.C s ....",
"l p M c.T.m.Q /  .d d W.}.].p.( j.i.z A.M.s.j ( H.M.z ^ B.N.s.s l s.M s.(.+XR.k p M s d l.l.e 0 V | ",
"l 4 m E.@Xl.8 / / a k W.oX}.p.y.f.i.z A.j.| 9 ^  . .p ^ m.m.} p s | l a.}.+XW.M s l p l N.x.f 0 k | ",
"p.w C [.+Xl.t h.o.) l W.'.W.j.j.G.f.p.F.M.i.9 |  . .a | n.n. .l ( ..s l T.!.S.m V M p k N.N.C e i.x.",
"i.h C !.(...> h.o.) l S.Z.d.z y.D.j.p.G.M.( 9 ) | ^ 8 l X.l s t ^ l 5 d v.v.w.q ..V p k m.v.B m z.S.",
"p.k z.'.(...q X.h.( i.].E.a.~ / o./ ~ o.o.) # H ! ~ , ! ! , , , Q d p s.}.!.x.M ..| s l v.l.m k a.x.",
"i.x A. X/...u +.X.a f.].+XB.,X<.<.$._ K.7.$.<.7.7.E W Y F W $.J , i > ) M.W.E.w.e...a s z.k.l p ..x.",
"z g C. X/.X.r } n.l i.i.s.n.uXkXsXuX6XkXkXsXdXdXsXwX2X<X8.5X5X<.H i , 8  .d.w.f y.s.s q A k.s a | a.",
"x w d.$X#Xl.e +.b 7 i.A.N.] 4X2X<X4X<X<X2X<X2X2X2X1.:.2.,.,.,._ - 2 , y s.A.z.f | s.s ; Z a.p 5 p k ",
"V w d.=X*XN.b b.X.d f..XXX] 7.%.o o $ o o . . T :.L + + X $ ` $ H [ 8 8  .C.C.a.f.D.X.s l.U.| j l i.",
"a.s C.:XgXS.B v.f.^ j.J.@.] 6X<XK $ ;.P P P + 0XrXL.U % X $ K.h., i y y i.C.C.e.n./.l.V U.I...j i.v.",
"s.l S.=X=XG.V S.s.j y.V.} G yXwX% W <X*.%.6.L eXpX3XU I % % L.,.H ' ~ Q s.z.e.0 h.M.X.N v.v.k 5 | x.",
"..l S.=X%XG.V C.{.y.u.j.D H yXwXL 9.9X6.3.9X=.0.qX9.L &.3.%.-.` ,X_.{ 7 h V V 4 s.M.s...~.T.V h i.M.",
"} m S.$X%XG.e.x.V.x u.V.' H yX9X=.9.6.0.9.0.&.eXeX0.L =.3.%.3.-.`.I.[ ^ l.W.c.w ^  .d M v.c.k h i.A.",
"d s S. X.Xd.z w.g.x x V.n.- sXwX%.9.=.9X3.6.:.qXaX3X% I 3.U 3.-.2 < : d B.S.V k d / s V t.w.f g V i.",
"1 0 x. X.XC.V d.f.q.u.J.).] sXwX*.4.:.1X:.4.%.tXpX3X% U -.X -.K.' r : b N.E.C e  .X.d N r.r.e.k w l ",
"i t v.'.F.x.C x.].y.x i.O.G uXeXI ;.L.,.L %.I rXrXL.U ` ` X -.K.' n q [ /./.z.s { h.d M r.t.C.d.k z ",
"M p x.W.A.| m k.G.g.V.].R.G <X>.3.4.5.%.%.4.%.%.,.3.U ` K.` -.% ' c t } (.+Xx.p | h.[ M r.c.Z.d.k i.",
"d w x.{.R.l.M O.m.| g.C.T.@.8XyX9XeXaXeXaXfXaX9.wX1X2X9.L.,.4.W ' c 1 M (.@Xl.; / n.{ M t.t.c.e.l p.",
"..p V C.l.| Z +.b.a.J.].v.] H.>.R 7.2X8.8.1.8.1.8.>.>.;.U % Y $.I.S 1 m /.}...; a { [ V c.U.Z.e.V f.",
"[ 5 k e.l u < c s s C.Z.k.u J $ H H ] -   = - # -   - = - = G `.^.S < M (.}.a.s y / d N U.Q.].d.k i.",
" .s a.W.R.O.u n k k z.C.r.u 2 $ 2 ' `.n : } D n } D +.S P.P.P._.^.v & V |.XXs.s [  .l O.Y.'.E.z.h | ",
"m.l a.(.R...M [ [ s B Z.Y.a.Q ~ Q 1 b 1 c I._._.>X>X7XjX7X_.+.D v [ q l R./.X.d d X.[ ..}.!.Q.v.k e.",
"l.s k v.l.l a  .| s B U.Y.w.l d X.s b v S ^.^.P.P.S D +.+.D n D 1 ^ t d X...d w [ h.| d R.T.~.r.f i.",
"s.l k k.z.s a o.| M C Y.~.a.a / j.d [ B N P.A * n 1 1 D +.} n m t ^ p d d.s...| l s.l ; i.A C 0 B k.",
"| l B v.F.M 9 s. .l r.Q.Q.C d z j.( f./.XX+XQ.Z N v N I.+X(.k.k D.M.l M B.S.s.l l X.l p z.r.B 3 m ..",
"a a M S.W.V y p.V m r.Y.Q.C e z / 9 y.{.&X&X!.m C k k m.#X&XG.x M.j.h z W.D.a.6 h | l z T.z.C e k ..",
"a p l N.N.M ) M.a.m B Y.Q.C s / V.y.( {.hX=XE.k a.k 9 p.-X*XJ.x x / p i.R.W.a.h z s.V z S.v.r.e & t ",
"| p l N.x.M  .M.s.k B U.Y.C k ( p.y.h A.%X'.x.V d.i.z V.%XgXJ.q.p.f.^ d.].E.i.g f.{.G.e.E.E.Z.e s ..",
"X.9 | S.s.s ( M. .w r t.U.B p ( ( h.x a.C.m w k f.| x g..X*XJ.y.p.s.9 z W.{.v.z V /.G.V G.'.U.0 p | ",
"X.d ..x.s.M ( h. .w c.;X[.B w  .f.[ M S.E.a.f r a.| x f. X%X].z f.m.l i.OX:XOXV i./.x.i.S.].C.g i | ",
" .s ..a.M k ^ M.M w t.;X;Xz.s [ f.M ..T.T.A f r l...V m. X X].x A.m.x e.'.$X].B x.{.x.| F.}.Z.f p [ ",
"^ s a.k.k p a s.l q C ;X+Xv.[ l [ m ..T.~.A c v V M k l..X XE.e.A.j.k i.W.'.Z.m i.S...V S.'.v.r t d ",
"z h v.T.a.w 5 / l 5 C [.+XS.| z l e Z N.T.A v m M s q a..X}.Z.k | ( e ..E.T.z.f f a.l z S.W.a.0 q d ",
"l l U.W.b.p 5 a s w k.;X;XE.[ a M e m v.T.A v m b.M t l.|.W.x.w p s 5 i.T.v.C e s s.M M N.S.a.e d | ",
"| k v.~.z.M p ) l w C Q.[.l.^ ) i.z V v.v.C v s N.[ a m.|.R.d.h l l s k.T.U.k.v C x.M M m.v.a.s l X.",
"a.m v.T.z.V d ^  .w m ~.R...j ) p.z e.x.z.B e l A. .l M.{.A.i.k s.s.M ..T.k.C r C b.M V N.N.O.s V s.",
"x.C v.~.Z...s ) X.p k.$X:Xm.) ) i.V e.x.z.s p [ B.X.z M.F.| h 6 N.m.k m C C e 4 ..l.[ l.)./.k.w M s.",
"M.V C.[.[.w.M s { s d.=X].f.) 2 { l k V B e t y o.i ..S.Z.a.6 5 m.S.B l v.R...& s M l ..B.).s.k | n.",
"f.l C.[.oXz.M i [ p d.=X].p.y > Q t w w.z.M i > , : a.OX$X].l 5 ..a.k k S./.l.> d l [ ..D.R.l.s z s."
};
