/* XPM */
static char *_620674c450446be9675aceae1a83c05yiUOgRiseK7MHtYg[] = {
/* columns rows colors chars-per-pixel */
"50 50 253 2 ",
"   c #0A0214",
".  c #16112C",
"X  c #3C3739",
"o  c #312632",
"O  c #231B28",
"+  c #4F363A",
"@  c #7F373A",
"#  c #594B3B",
"$  c #1B2449",
"%  c #3D3748",
"&  c #2A3B58",
"*  c #383A57",
"=  c #213349",
"-  c #263B6A",
";  c #363A69",
":  c #293A72",
">  c #2C3372",
",  c #1C2C61",
"<  c #483A55",
"1  c #503944",
"2  c #473E6A",
"3  c #1E4558",
"4  c #2A4C5D",
"5  c #364A5A",
"6  c #2E5059",
"7  c #2C4D63",
"8  c #294C68",
"9  c #324D64",
"0  c #384B6A",
"q  c #2C5264",
"w  c #2D546B",
"e  c #2E5B6C",
"r  c #265368",
"t  c #335465",
"y  c #3B5463",
"u  c #33546B",
"i  c #3A546C",
"p  c #345A6D",
"a  c #3A5B6D",
"s  c #385865",
"d  c #2D4871",
"f  c #3C4B74",
"g  c #384A76",
"h  c #2C5973",
"j  c #345472",
"k  c #3C5573",
"l  c #345C72",
"z  c #3C5C73",
"x  c #3C547B",
"c  c #3D5D7B",
"v  c #355C7A",
"b  c #36626E",
"n  c #356275",
"m  c #3C6274",
"M  c #34637B",
"N  c #3C637A",
"B  c #3C6A7D",
"V  c #3A6976",
"C  c #1C4E65",
"Z  c #464648",
"A  c #564647",
"S  c #464955",
"D  c #554A57",
"F  c #4A545C",
"G  c #535157",
"H  c #4E504F",
"J  c #664A49",
"K  c #695456",
"L  c #73534F",
"P  c #6D6359",
"I  c #464A67",
"U  c #584D67",
"Y  c #425B6C",
"T  c #475767",
"R  c #565965",
"E  c #414B74",
"W  c #454978",
"Q  c #435572",
"!  c #435C74",
"~  c #4A5D76",
"^  c #445D7A",
"/  c #495D7B",
"(  c #44547C",
")  c #545C7A",
"_  c #655A68",
"`  c #71576D",
"'  c #47626D",
"]  c #436375",
"[  c #4B6575",
"{  c #43647B",
"}  c #4A637C",
"|  c #446A7D",
" . c #4B6B7D",
".. c #446972",
"X. c #536779",
"o. c #49727C",
"O. c #5C6069",
"+. c #756A6A",
"@. c #636878",
"#. c #786774",
"$. c #746D74",
"%. c #93493E",
"&. c #823D40",
"*. c #8B5D56",
"=. c #8A6556",
"-. c #9A635C",
";. c #8B7777",
":. c #8D6D6B",
">. c #AB7174",
",. c #9E5F59",
"<. c #C87770",
"1. c #C6685C",
"2. c #9F807E",
"3. c #B68A7C",
"4. c #CD8978",
"5. c #E4917F",
"6. c #354A87",
"7. c #3D5887",
"8. c #33488C",
"9. c #3C6C82",
"0. c #3B6888",
"q. c #396E89",
"w. c #445B82",
"e. c #475986",
"r. c #575889",
"t. c #4B5C99",
"y. c #535795",
"u. c #454E91",
"i. c #446582",
"p. c #4A6583",
"a. c #436B82",
"s. c #4B6C83",
"d. c #436E8A",
"f. c #4C6C8B",
"g. c #47648B",
"h. c #536B82",
"j. c #566A8A",
"k. c #457284",
"l. c #4B7284",
"z. c #45738A",
"x. c #4C748B",
"c. c #4C7A8D",
"v. c #44798B",
"b. c #527284",
"n. c #53758C",
"m. c #547A8D",
"M. c #5A768A",
"N. c #4C6897",
"B. c #556A95",
"V. c #4C7B92",
"C. c #497596",
"Z. c #537C94",
"A. c #5A7D93",
"S. c #567897",
"D. c #676988",
"F. c #62738C",
"G. c #647486",
"H. c #787989",
"J. c #687994",
"K. c #727197",
"L. c #4F5DAC",
"P. c #5766A6",
"I. c #4778A4",
"U. c #5B77A6",
"Y. c #5969BA",
"T. c #5C73B9",
"R. c #6977B7",
"E. c #636BB1",
"W. c #6978C6",
"Q. c #6F79CF",
"!. c #5F68C5",
"~. c #927D92",
"^. c #987AA0",
"/. c #4D8497",
"(. c #5B8296",
"). c #55849B",
"_. c #5A849B",
"`. c #548A9B",
"'. c #5B8A9E",
"]. c #558296",
"[. c #5A8089",
"{. c #63849C",
"}. c #66869B",
"|. c #748595",
" X c #5D8AA3",
".X c #5C88A5",
"XX c #5B8DAE",
"oX c #628CA4",
"OX c #698BA5",
"+X c #6391A5",
"@X c #6493AA",
"#X c #6B95AD",
"$X c #6998AD",
"%X c #6C99B4",
"&X c #749DB8",
"*X c #7883AF",
"=X c #6CA2B4",
"-X c #73A1B8",
";X c #6E80CE",
":X c #908792",
">X c #A78A84",
",X c #B09691",
"<X c #B2AC9A",
"1X c #8B8EAE",
"2X c #B8A6A4",
"3X c #BEB4B5",
"4X c #B1A7B1",
"5X c #A79AA3",
"6X c #CD908C",
"7X c #ED978A",
"8X c #D6A498",
"9X c #CCA991",
"0X c #F4A589",
"qX c #E5A89A",
"wX c #F9AB96",
"eX c #EDA993",
"rX c #CE9BA7",
"tX c #C9A8A8",
"yX c #D9BAAC",
"uX c #C8AABC",
"iX c #D7B6B5",
"pX c #D1B1B2",
"aX c #EDB1AE",
"sX c #D0C7BA",
"dX c #FBD6AE",
"fX c #E8C6B5",
"gX c #FCD7B9",
"hX c #F5CCB2",
"jX c #F9E4B9",
"kX c #ECE8B5",
"lX c #B5AFD1",
"zX c #CABBC4",
"xX c #C7ACC5",
"cX c #D5CBCB",
"vX c #E7DDC9",
"bX c #FADBC8",
"nX c #E6D8D2",
"mX c #F9DCD6",
"MX c #E9CCCB",
"NX c #FEE6C7",
"BX c #FAE4D4",
"VX c #FFF1D7",
"CX c #EAE1DA",
"ZX c #D1D3EB",
"AX c #E7D7E9",
"SX c #F4D5EB",
"DX c #D6E6FA",
"FX c #F8E8FB",
"GX c #E9F8FF",
"HX c #FFF4FF",
"JX c #FEFCFF",
"KX c #F5FBF8",
"LX c #F0EAED",
/* pixels */
"[ 5 t o.| 7 7 } ^ ^ A.oXm.{ i ! s.l b o.c.a.p z B.x s.OX}.(.| q ..p p a.x.).'.p w | ] i ] { z j { a.",
"~ 5 s l.k.e u p.} ^ A.{.n.] i ~ A.z.w i.Z.i.7.x e.B.d g.f.a.q 7 ] u u a.x.).'.e 4 p t t  .s.z w c { ",
"[ s m m.c.p u } } k x._.n.z 0 ~ f.C.7.U.g.U.- 8.6., 8.6.N.B.g.c { a w N c.'.).q u a s ] J.{.{ 8 { } ",
"X.Y ] m.c.l u } } i s._.m.z 0 ~ n.U.7.N.U.N.T.W.T.T.;XT.U.- N.x s.z u N Z. XZ.r w p t ] }.OX{ 7 z } ",
"Y y a l.k.p i } } u | A.l.k 0 / }.n.p.B.N.R.: 8.T.L.6.6.N.U.- k { z q N ).oX).w q t t ] }.OXs.t { } ",
"i t p k.| p 9 Q ! 7 m l.| p 0 ~ }.j.! x P.t.R.P.Y.Q.P.U.R.e.w.^ ^ a 7 N '.@X'.l u p t ! {.{.{ w u i ",
"i u m k.k.p 9 i Q 9 | Z.c.{ i Q p.k w.N.6.Y.Y.Y.W.L.;XL.W.P.t.d ! z q N  X$X'.m m a 4 t n.m.z 7 } } ",
"y t V c.x.m i k Q i A.#X+XA.} ^ h.x d t.6.Y.Q.!.Y.Q.Y.8.R.P.u.: / { u | oX%X'.V l.| u z {.}.l.z z ] ",
"i u V B | m u } / ^ N ].Z.n.^ ^ p.( ; : P.P.W.L.y.E.R., P.R.> : / b.z | OX$X Xm { ] a ] }.OXx.l { } ",
"i t p e n z u } } k l c.c.l.k k M.Q $ E y.u.y.W ; r.K.E ; r.1X; & ^ z s.@X#X XV s.l.m ] A.{.l.N { { ",
"^ z N B k.l.] X.h.] z ]._.A.p.^  .M.= ) W $ $ % ZX< S O . W ; 0 5 h.{ s.OX#XoXV |  .a a l.n.N l { s.",
"k u V c.(.n.a ~ } a z _.+XoXp.^ M.! J.$ $     :XcXcXiX  . K.; r.0 h.z { oX%X Xp p m p a l.s.l 8 N { ",
"z 7 n `.+Xl.9 ! ~ i l _.@XoXf.p.g.N.g r.I <   + MXBXA O lX1XK.W & } a a.@X&XoXl p a t a n.n.l r l N ",
"s.w B +X$Xl.t h.h.! z (.'.(.p.f.U.N.: B.2 AX4X~.bXBXpXK FXlX^.; & } a { (._.Z.l m m t a m.m.N v a.x.",
"i.u B '.+X{ 9 h.X.Q l Z.V.d.c g.B.B.e.; * #.nXfXgXgXbXmXzX< r.r.5 ! 9 l l.z.a.q | V t p b.n.V l x.Z.",
"p.l z. X'.| t  . .] B '.(.x.^ h.OX( E ) U 1 J fXhXqXgX3.O _ U ) * a 7 a.@XoXZ.p { ] s z n.x.m l a.l.",
"] z V.@X'.B p  . .m d..X#XJ.~ X.K.0 r.r.* D J >.&.@ -.9X,XsX1 _ * Q 8 v C.XX{.] ' [ a p x.l.l p a.l.",
"a u x.@X X| s  . .p v d.C.p.T R H.5 r.r.lXHXJ :.6X>.rX*.KXvXmX+ % T 8 h q.q.| t ' X.a w d.d.p w { a.",
"a q k.$X#Xl.s X.{ j 0.C.S.a.y Y ' 9 r.2 ZX3X# NXgXmXmX` LXP BX:.X R w j d.d.n.Y '  .a 8 0.a.u 7 u z ",
"V q z.-X&Xn.Y j.} x C.XXXXC.p a n 8 r.D.` AXBX9X,XiXuXxXFX:XvXBXX R y w C.C.(.] X.F.a.v C.Z.{ p z a.",
"o.e v.-X-XA.~ F.j.x N.I.I.0.h v q.0.W K.xXJXLXnX3X4XAXHXHXAXzXcX#._ I t x.z.c.a b.{.x.9.Z.(.| p | n.",
"o.b V.-X&XS.~ F.F.x g.I.q.h r w C.e.* < HXJXJXLXcXLXJXFXHXHX;.nXiX+.F i x.M N p  .M.f.0.Z.C.z 4 { x.",
"V n V.%X%XS.~ F.F.k g.C.0.l t 5 / ) G P nXKXJXGXGXZXJXJXFXJX2XfXbXK G y a.9.l q s.m.d.d.).Z.m u a.n.",
"V n V.%X%XZ.} M.F.i 7.f.c i F G _ D ,XA 3XJXGXKXDXGXJXLXJXSXpXBXbXL _ T s._.x.w z a.v M Z.C.p t | n.",
"z p Z.#X.Xl.m [ Y i i.s.M.T + + + iXtX$.K.lXDXlX1XJ.ZXJXlXFX2.BXmXL G T m.c.l.u z N h 0.C.9.p q m i.",
"9 7 C.@X.Xx.V  .b.] u M.|.S :.aXaXaXiX#.K.*XB.*XDX1XG.4XlX#.,XyX:.J Z [ A.c.| p { | v 0.z.9.N a t z ",
"Q i C.XX.Xz.V o.[.| p M.@.$.pX3.aX7X=.sXR & K.r.S R $.nXmXJ BXyXfXpXS Y _.+Xn.q ] s.N M d.z.c.s.l { ",
"~ i x..XV.B n o.m...{ }.O._ iX8X>.aXL vXKXJX4X~.5XlXCX<X=.8X:.,X,X2XS ! (.@Xm.s ] b.N M q.V.m.s.z { ",
"Y t x..X).k.V  .o.l.c.A.G.G ;.pXL J A <X<X2XuXHXHXzX,XVXyX*.:.1 A G 5 { _. Xl.6 ' b.{ M z.V.x.m z s.",
"[ t N V.z.B m s.{ s.Z.d.J.@.H A D U + sXvXbXmXrXxXuXMX=.4.8X,XD +.S y z OX@X .3 y [ m 9.V.].V.N N s.",
"..6 e B M p t ! s.w Z.Z.f.] T S ~ X.F 3XgXgXdXbX>XK >.qX8XqX:.K D S 0 c oX X .y y ' a a.). X).l.l { ",
"..t | ).(.s.z k i l C.q.z.p 5 5 a q 5 +.bXdXdXjXfXL aXqXeXqX+ R R X.i { @XoX .s ' [ z a.'. X).z.u { ",
"M.z a.oX(.{ ^ } { l M /.`.a.a a m t X.Z bXgXkXkXbX,.7XwX7X8XZ [ X. .u N (.(.l.z a [ } | OX X'.c.v a.",
"h.k z c.l.z k { { l M /./.9.z k s.t S :X>XVXkXkXdX<.0X0XwX6XO.k n.s.w u l.| a 7 ] s.] z A.).).z.h a.",
"p.z l k.l.l i p.{ n 9./.`.a.z ^ a.| ~ @.+ hXNXdXgX5.0X7XeXL F a M.s.7 p c.l.{ z z  .z 7 a.a.9.r n k.",
"{ z N m.(.N t p.i.n 9.`.`.9.k ^ a.{ j.H.;.yXhXdXwX4.0XwXqXP X.z {.M.k { A.n.| m z  .z u l.a.M C l a.",
"k z V Z._.N i s.{ v 9.`.`.B i k z u E K.5XtX8X0X7X1.7X7X>.:X|.t n.j.j { A.n.{ l p { z z Z.z.9.h l | ",
"k t n V.Z.N z n.a.v B `.`.a.k ^ n.i.e.K.H.:.qX0XwX,.<.>.1 H.F.i ^ w.j i.{.(.s.z N s.N z Z.x.q.h 3 u ",
"{ u N V.x.z { A.s.l M /.).a.k } p.0 x F.@.o 6XeX0X%.6X~.U G.h.^ p.j.c i.{._.s.u f.{.Z.{ ).).V.h p | ",
"p.u N Z.a.l { n.a.w e v.c.N i / k j.- e.~ S aXqXqX*.rX:.@.j.j.0 x w.j c A.oXn.c N {.A.N Z..X/.r u { ",
"s.l a.x.a.N { n.N e z.=X@X| i Q / f ( w.p.T :.mXbX:.uX< ) B.j.E ( w.k i.OX&XOX{ a.(.x.{ Z. XV.h p ] ",
"{ u B k.M l z n.z e z.=X=Xc.k Q ( E e.w.i.Q D ,X2XX % I S.S.f E w.w.j { oX#X_.N x.{.f.{ Z.oXV.l p ] ",
"{ u a.z.n w p s.z w 9.@X$XZ.! 0 W E w.w.0.k 5 R H Z 5 ~ w.U.j.( e.w.d i..XoXZ.n a.A.{ m A.'.x.w t z ",
"z l c.].9.w 7 z l r 9.@X$XZ.^ 0 W f ! c N i.0 5 S T y k N.e.r.f ( x d i._.).a.p p s.z z A.(.a.r q a ",
"z z Z.'.z.l 7 z p w z.=X-X(.} f ( 0 u m N i.x f ) 5 5 u S.e.x g 0 j d i.(.V.9.e p  .z m m.A.a.u p { ",
"{ z c.).z.l t z z w B  X+Xx.! Q w.0 u ] { x 6.x ( Q z ] g.N.7.x j x j a.).V.a.p V b.] m n.n. .p m  .",
"s.N x.].x.N j ^ { w n `._.| k / e.c a ../ g 6.6.r.E 4 { B.e.x d g.g.c a.V.z.B e | b.] ] M.M. .p z s.",
"n.N V.).V.a.p z  .p a.%X&Xn.Q Q p.p.b ..} g 6.7.r.) a z g.x g.d S.S.N v B V p 4 | l.]  .}.}.s.u ] s.",
"n.N V. X@Xa.m s ] u d.&X.Xs.Y y [ ] p V N u i i X.i { Z.Z.i.w 7 n.Z.N m m.A.| 3 p m m | A.(.s.l { n.",
"s.z C.XX$Xk.m s ] t d.&X.Xs.y 5 s t w 9.z.m s 5 5 4 l.#X%X_.z q { a.l l A.}.n.7 p m m | A.(.s.z z s."
};
