/* XPM */
static char *Untitled__7_1707903949[] = {
/* columns rows colors chars-per-pixel */
"50 50 254 2 ",
"   c #080007",
".  c #1B0B0C",
"X  c #251D29",
"o  c #37393D",
"O  c #352634",
"+  c #492B16",
"@  c #4E3935",
"#  c #674730",
"$  c #584133",
"%  c #192752",
"&  c #2B365B",
"*  c #3B3A55",
"=  c #2F3349",
"-  c #32366E",
";  c #453A4B",
":  c #4D3D50",
">  c #4A3F6F",
",  c #294A5C",
"<  c #364A5C",
"1  c #365055",
"2  c #2C4D62",
"3  c #2D4E6A",
"4  c #254D64",
"5  c #334D64",
"6  c #3C4A6A",
"7  c #374869",
"8  c #2D546A",
"9  c #2E5A6D",
"0  c #285368",
"q  c #345365",
"w  c #3A5465",
"e  c #34546A",
"r  c #3B556B",
"t  c #345A6C",
"y  c #3B5B6D",
"u  c #375967",
"i  c #3B4974",
"p  c #2E5C72",
"a  c #2F5D78",
"s  c #345671",
"d  c #3D5574",
"f  c #345C72",
"g  c #3B5D73",
"h  c #3C557B",
"j  c #3C5C79",
"k  c #33547B",
"l  c #2C427E",
"z  c #356275",
"x  c #3C6274",
"c  c #36637A",
"v  c #3C647B",
"b  c #3C6A7C",
"n  c #366A7D",
"m  c #356975",
"M  c #1E485C",
"N  c #4A4544",
"B  c #474859",
"V  c #564859",
"C  c #4A535C",
"Z  c #595555",
"A  c #54494A",
"S  c #6D5254",
"D  c #786559",
"F  c #7D614C",
"G  c #494B64",
"H  c #43536D",
"J  c #435C6D",
"K  c #495765",
"L  c #585A69",
"P  c #444D73",
"I  c #484A77",
"U  c #425373",
"Y  c #435C74",
"T  c #495C74",
"R  c #445D7B",
"E  c #4A5C79",
"W  c #4B567A",
"Q  c #575B76",
"!  c #55496B",
"~  c #6C576C",
"^  c #48606D",
"/  c #446375",
"(  c #4A6474",
")  c #43647B",
"_  c #4B647C",
"`  c #436A7C",
"'  c #4B6A7D",
"]  c #496A76",
"[  c #51657C",
"{  c #536C7C",
"}  c #586677",
"|  c #46717C",
" . c #546975",
".. c #69686A",
"X. c #746967",
"o. c #6F6C79",
"O. c #A85D48",
"+. c #95705E",
"@. c #A96A50",
"#. c #957878",
"$. c #8A7171",
"%. c #A27467",
"&. c #8D5E56",
"*. c #9A847A",
"=. c #A3877B",
"-. c #B98977",
";. c #B98A68",
":. c #C08D6E",
">. c #373787",
",. c #3B5784",
"<. c #39498B",
"1. c #3B6582",
"2. c #3D6B83",
"3. c #396783",
"4. c #3D7689",
"5. c #494B89",
"6. c #475983",
"7. c #545A83",
"8. c #424595",
"9. c #485798",
"0. c #564F88",
"q. c #635D95",
"w. c #635A86",
"e. c #456583",
"r. c #4B6384",
"t. c #436B83",
"y. c #4B6C83",
"u. c #446D8A",
"i. c #4C6C8A",
"p. c #47648B",
"a. c #546885",
"s. c #457284",
"d. c #4B7385",
"f. c #45738B",
"g. c #4B738B",
"h. c #4C798C",
"j. c #517386",
"k. c #52758C",
"l. c #547A8D",
"z. c #5B778A",
"x. c #556A96",
"c. c #4C7691",
"v. c #4D7B92",
"b. c #467991",
"n. c #537C93",
"m. c #5A7C93",
"M. c #547D99",
"N. c #587A96",
"B. c #4C6693",
"V. c #657788",
"C. c #657D96",
"Z. c #6E6B8E",
"A. c #535BA7",
"S. c #4956A8",
"D. c #5767A8",
"F. c #5C67B8",
"G. c #536BA5",
"H. c #6779A5",
"J. c #666BB7",
"K. c #6A78BA",
"L. c #6C6DB7",
"P. c #605FA3",
"I. c #6A75C5",
"U. c #5C6BC0",
"Y. c #8B7C84",
"T. c #92768E",
"R. c #8979A7",
"E. c #807FCD",
"W. c #558294",
"Q. c #5A8296",
"!. c #55849B",
"~. c #5B849C",
"^. c #5A8A9B",
"/. c #508896",
"(. c #62849B",
"). c #65879A",
"_. c #738597",
"`. c #65808B",
"'. c #5D8BA3",
"]. c #5A87A5",
"[. c #628BA4",
"{. c #668DA9",
"}. c #688BA5",
"|. c #6393AC",
" X c #6A94AC",
".X c #6693A5",
"XX c #6C9AB3",
"oX c #6A98B8",
"OX c #758FB2",
"+X c #6FA1B9",
"@X c #70A2C1",
"#X c #968589",
"$X c #918D95",
"%X c #9D9494",
"&X c #928A91",
"*X c #A58885",
"=X c #AF9292",
"-X c #ABA599",
";X c #8D8FB1",
":X c #A599A4",
">X c #A88DA8",
",X c #95A4BA",
"<X c #B1A2A6",
"1X c #ACA6B0",
"2X c #D39983",
"3X c #C7AA99",
"4X c #DBA98E",
"5X c #EDA689",
"6X c #F1A688",
"7X c #EEB494",
"8X c #DEB2A4",
"9X c #C5ACB9",
"0X c #CAB1AB",
"qX c #EFB7A9",
"wX c #E39C86",
"eX c #FAC79A",
"rX c #E9C79A",
"tX c #D6C4B4",
"yX c #FAD8AB",
"uX c #FFDBB4",
"iX c #FFDCBC",
"pX c #F9D7B6",
"aX c #EDC9AF",
"sX c #F7E2AD",
"dX c #FDE4BC",
"fX c #FBE6B5",
"gX c #F0EAB8",
"hX c #9297CB",
"jX c #A6ABD7",
"kX c #ACB9D0",
"lX c #97AAD6",
"zX c #CFBDD1",
"xX c #B5C6D0",
"cX c #DBC8C7",
"vX c #DCC6D3",
"bX c #CCCAD0",
"nX c #E9D3C7",
"mX c #FBD9C6",
"MX c #F6D8D4",
"NX c #EED0CB",
"BX c #FFE3C4",
"VX c #FFE9CB",
"CX c #F9E4D8",
"ZX c #F2E9C4",
"AX c #D3D1EB",
"SX c #E6D9F5",
"DX c #D8E9EA",
"FX c #FCE5E3",
"GX c #E8E8FE",
"HX c #E9F5FD",
"JX c #FEFCFE",
"KX c #F8F8FB",
"LX c #F2EFEF",
"PX c #D7E2DC",
/* pixels */
"( < q | b 4 2 ] R R m.[.l.] H J ] m 2 l.c.i.P Y a.r.R OX}.m.y u / t y t.h.~.~.t e ( T u / / d s ) e.",
"( < u | | 9 e ' _ j n.).k./ w T { | g.,.G.,.i % % 7 k l x.h u 0 x e e b g.~.~.t , y r u ' y.g 8 j ) ",
"( w x l.h.f e _ _ d g.(.l.g 6 T n.c.k k ,.F.G.K.9.G.I.G.<.x.| 2 ] t 8 b c.~.M.3 e y u Y C.).e.3 ) _ ",
" .J / W.h.f e _ _ r y.^.l.g 5 T C.p.B.A.I.A.<.S.J.- <.U.D.,.p.d.` x q b N.'.m.3 e y w / ).}.e.4 g ) ",
"J u x d.d.f t _ _ 5 ` n.d.y 6 E C.B.l D.S.U.8.I.F.U.F.S.A.G.,.s ' g 0 v ~.{.W.3 5 q q / ).}.y.8 R _ ",
"w q u | | 9 5 y R 2 x g.` t w E C.,.F.<.U.F.F.J.U.F.S.I.A.9.i 7.Y y 2 x ~. X~.g u u q / ).).) 3 e y ",
"r w x s.t.9 5 r H 5 ` n.k.) r U 7.7 9.9.S.U.J.J.I.F.F.J.J.<.B.< Y g 3 v [. X(.c g r , q z.l.f 4 / r.",
"r u m h.d.g r d d y m. X.Xm.R T 7.& <.J.F.J.A.J.L.L.>.A.K.5.I & / ( t ` [.XX~.v k.' u Y `.[.g.g Y / ",
"r e x b | x q _ E Y v Q.M.l.R W i % 8.J.8.I.5.- L.L.8.>.I.P.> & r y.g g.{. X[.g ` _ u / (..Xg.f ) ' ",
"r q t 9 z x e ( _ Y f g.h.d.d U & Z.q.q.- > > ;Xw.Z.q.>.> q.5.I y ' t ` [. X[.v | | x / m.(.s.z ) ' ",
"R x b b s.d./ [ a.T g W.^.M.r.E E * B = Z.; -XbX$.X N zXG = = K ( j.g g..XXX}.g ' ' Y y j.h.n p ' t.",
"g e m f.W.k.Y T _ y g ~.[.[.r.E < L * B     D tXaX0X.   X G B G J y.t y..X X].t t y u u d.s.p 0 j v ",
"g 4 z ^..Xd.q Y T y f ~.{.[.i.r.- 0.q.w.T.O S mXmX$.! T.L.0.0.& U ] e t.{. X'.x t t q x l.h.p 0 a v ",
"r.8 b .XXXs.q a.a.Y g !.^.M.r.x.i 0.q.;XSX=X%.BXaXNX&.vXSX> 0.> R ] 3 v ~.^.!.z x x u t l.l.b p t.i.",
"e.e b ^.^.v < a.[ Y t l.v.u.j 6.I 0.! > T.nXdXyXiXpXNXzX~ w.> > 7 y 2 g c.h.s.4 ` x 8 u j.h.m z c.M.",
"_ f f.'..X` q { [ T ) '.~.g.R a.- ~ > : @ =.aXeX7XpX3XS : ; 0.7.< y e t.[.'.l.t ] ` u z h.f.z f t.g.",
"R j c.|.].2.y { V.w ) (. XM.r.[ > ~ ~ 3XT.#.&.@.@.%.#.T.%.T.V ~ = C t f n.{.m. ./ ` t p f.g.f u ) d.",
"J 8 c.|.].p.u  .K w ' k.i.v g E * X.MXNX>X$.T.2XT.2X=XT.%.FX<X! = K q 2 e.i./ w / ' a 0 2.s.u q ) t.",
"y , u.oXoXf.y { ( w r.M.v.e.e w O 9XMXMX1XT.CXmXmXNXzXkX#XnXFXX.o K 2 3 u.g.a.( / y.a 4 n t.u , 8 g ",
"( q f.@X@Xc.g { { w t.[.{.c.e K A NXMXT.vXvX=.4X2X0X=XMX-XtXMX%Xo K 7 3 c.c.m.y { W.2.a h.W.m u g ` ",
"] t h.@X@X!.c z.{ g u.M.c.v u C X.CX-XDXJXLXKX3X=.nXJXJXLX1XtXnXN C K 8 B.c.k.t j.`.g.n v.^.] u ' k.",
"{ g v.+XoX/.v z.' ] f.u.1.g < o 0XCX-XKXKXJXKXKXLXJXJXHXKXKX-XFXZ C ( e 3.3.k.r ' n.s.v v.v.y 4 x d.",
"] g M.oXoXv.v j.z.c 1.2.t./ 1 = CX*XPXDXKXKXJXJXJXJXHXHXHXDX*.CX-XB T e 1.,.g , ' l.t.2.!.W.x q t.N.",
"/ g W.oXXXW.v j.n.0 a c.t.< C *.CX=.xXxXDXDXJXSXkXKXHXHXkXxX*XCXnXA C g M.].c.g / ] f c v.g.f t ' k.",
"y u n.|.'.f.x ` ` f 0 M.N.< o 0XVX*X1X}.,X,XGXGXAXKXAX,X].,XX.FXNXX.C q Q.c.c.t y x e b f.b f 8 g e.",
"q 2 g.|.'.b.v ' l.e 3.3._.C A NXVX3XZ.hXkXxXGXGXKXGXAXjXlXhXY.pXBX*XN J M.M.t.2 / ' f v f.s.b f 8 f ",
"u q g.[.!.s.b j.m.1.1.i.V.L &.VXaXtX* OX;XAXJXJXbXKXHXjXhXW S VXiXaXN  .C.[.i.e ( { x x s.f.h.t.f j ",
"^ t g.~.n.` x ' n.g.e.z.V.Z 3XiXdX&.>XjX;X;X$X&XZ.:X;XhXE.zX@ aXuXBXD K (. Xk.r / { v x 2.b.v.s.g ) ",
"y e i.[.!.y.) d.k.t.m.z.o.X.BXuXdX# ~ >XGXPX#X:X..&X,XGXzX~ &.;.yXdX-XZ _.}.d.2 ^ { ] v u.b.f.c g r.",
"( q ) h.d.) x { y.g m.C.Z -XmXuXrX+ FXMX%X$XKXKXJXJXbX%XzXFX$.+.sXyXiX..C.}.y., u ] x / b./.v.3.v i.",
"_ 5 s e.v u q y / g y.z.o.8XeXqX-.+ CXpXZXCXY.vX9X%X0XZXiXmX=.# eX7XaX&X{ OXy.< w ^ u ` !.].].f.f ' ",
"_ e y.~.m.y.u J y u a.G :X*XqX-.&.@ pXdXVXgXMXY.X.0XZXgXyXfX*.$ 4X-.3X-X ._.{ q ^  .y y.!.].!.f.s v ",
"z.d t.).W.' Y T T 5  . .o.Y.T.8XZ @ 8XpXgXgXdXpX3XfXsXsXdXiXD Z =.=X*.$XL _.a.Y J _ ) e.|.'.].b.a t.",
"a.u x h.d.g r _ [ H ]  . .L : ~ L A %.mXsXgXfXfXrXyXgXsXmXaXN C ~ ~ ; G B Q Y 5 _ a.R h M.!./.4.f 2.",
"[ y t s.g.t r _ _ q ' `.`.} V L } L # CXpXgXsXuXrXfXsXsXBX*X..C Z.L C H } [ a.g j y.j 4 2.2.2.0 c s.",
"E Y v l.m.c e ' ' u | ^.).{ B L [ } : MXfXyXuXuX7XyXsXsXmX#...^ _.} K J ).j.d.f g e.j s c.2.n 4 f t.",
"H y / l.Q.v 8 y.4.9 4././.m 1 ^ _ H V 9XBXyXpXpX;.yXfXdXCXo.V.w  .( q x W.l.2.9 s v j j M.g.2.9 t ` ",
"H 6 g l.l.v g k.m p 4./.^.b y _ d.i Q $.iXyXpX7XO.yXeXdXzX..OX5 ] { f b ^.^.s.p v t.c g M.g.2.9 M 8 ",
"T e Y l.d.z ) N.4.m m b./.n t g i.R W V 8XeXqX6XO.6XeX7X#XC.Z._ ) t.t z ^./.n 0 f.'.n.) M.^.v.9 t ' ",
"[ 6 v l.s.t v k.4.p 9 4.b.3.j R j h P B 2X6X6X6XO.:.7X7Xo.Z.r.d y.e.s c |.!.f.3.c '.M.c n.'.W.4 9 ( ",
"_ t ' h.b j R k.b p f.+X|.2.i d U d 6.! %.5X5X6XO.6X6X8X: H.r.7 W R j i.{.+X Xc e.~.d.e.n.^.h.p t / ",
"] t b | v f g k.j 0 b.+XXXt.i U E i h Q &.5XwX5XO.wX6X8XG 6.W W 7.6.d p.}. X^.f g.~.g.` W.'.v.p t / ",
"v t ` s.z 8 r y.d 3 t. X{.e.P I P U h Q S qXqXqXO.qX8X$.w.OX7.P 6.W i e.C.[.M.x t.n./ c n.^.h.0 e d ",
"g t h./.b 8 2 T g 3 t. X{.6.I W P P h E A 0XmXqX%.aXmXY.I 6.a.* U i 7 r.C.M.g.g t y.g j n.Q.4.0 2 y ",
"g f n.^.s.t 2 y d e d.XXOXr.P P G 7 h r.L :XzX0XS NXzX~ x.x.Q P 7 i 3 ) Q.l.v 8 t y.g v l.M.t.9 f / ",
") j g.^.d.y q Y Y 8 v '.].e.i P E - h 6.P B A @ ~ ; ; P x.6.P 6 6 d s e.~.h.b t v d./ R k.k.y.f g y.",
"y.j g.W.d.v r Y ' 8 c /.!.t.i U U 7 h u.x.6 B A L K 7 h x.p.6 P d t.f v W.s.m m ' d.Y / N.N.t.s / y.",
"k.) h.^.n.` u y / t t.XX+XN.Y 6 H E h k ,.7 < C L G h p.,.h i 7 i.n.c a | m 8 4 ' d./ y._.(.i.t j y.",
"k.) c.].|.4.y u ( e f.+X[.i.J < } Y 3 k ,.7 6 C J < k 6.3.,.7 5 k.M.c z h.W.' M t Y x ` m.(.y.f ) k.",
"y.j c.'.|.f.x u ( t u.oX].r.H < K H e 1.i.j r < G 7 x. XoX].R 5 ) t.9 j m.(.d., t / y ' Q.Q.y.y g y."
};
