/* XPM */
static char *Untitled__12_1707909681[] = {
/* columns rows colors chars-per-pixel */
"50 50 254 2 ",
"   c #07000D",
".  c #342635",
"X  c #2E183C",
"o  c #562E34",
"O  c #793C39",
"+  c #735239",
"@  c #2A254B",
"#  c #2A375A",
"$  c #37365A",
"%  c #302F4C",
"&  c #2A3868",
"*  c #363A67",
"=  c #373A7A",
"-  c #2C3778",
";  c #1C2660",
":  c #4F394C",
">  c #623343",
",  c #1E4558",
"<  c #2A475B",
"1  c #374A5C",
"2  c #3A4B53",
"3  c #1D4766",
"4  c #2C4C63",
"5  c #294769",
"6  c #334E64",
"7  c #394E66",
"8  c #344C6C",
"9  c #3D4D6D",
"0  c #364566",
"q  c #2B5465",
"w  c #2D546A",
"e  c #2E596C",
"r  c #255267",
"t  c #335266",
"y  c #3A5263",
"u  c #34546B",
"i  c #3A546B",
"p  c #345A6D",
"a  c #3B5A6D",
"s  c #395866",
"d  c #364D73",
"f  c #3A4B75",
"g  c #2C5A72",
"h  c #355573",
"j  c #3C5472",
"k  c #355C72",
"l  c #3B5C73",
"z  c #3C527B",
"x  c #3B5D7A",
"c  c #2E4879",
"v  c #356374",
"b  c #3C6275",
"n  c #3D637A",
"m  c #3D6A7D",
"M  c #366879",
"N  c #3F707F",
"B  c #4A454A",
"V  c #454855",
"C  c #465358",
"Z  c #574A50",
"A  c #674A56",
"S  c #6B5454",
"D  c #484867",
"F  c #425B6D",
"G  c #495667",
"H  c #595567",
"J  c #444A76",
"K  c #425473",
"L  c #425D74",
"P  c #4B5B75",
"I  c #44547B",
"U  c #435C7A",
"Y  c #4A5B7B",
"T  c #4B5575",
"R  c #565977",
"E  c #534D73",
"W  c #675767",
"Q  c #645D76",
"!  c #7A566A",
"~  c #4A646B",
"^  c #446376",
"/  c #43637B",
"(  c #4A647C",
")  c #436B7D",
"_  c #4B6B7E",
"`  c #4D6274",
"'  c #53657E",
"]  c #526777",
"[  c #4D6D78",
"{  c #75676B",
"}  c #666477",
"|  c #746874",
" . c #736356",
".. c #885657",
"X. c #8F6951",
"o. c #896775",
"O. c #8A7577",
"+. c #8F766D",
"@. c #AB766E",
"#. c #9A8577",
"$. c #958468",
"%. c #B0886D",
"&. c #D78B7D",
"*. c #343B85",
"=. c #3C4986",
"-. c #3C5582",
";. c #3C5D81",
":. c #3C4C95",
">. c #3E5195",
",. c #3D6D82",
"<. c #3D6784",
"1. c #3E7384",
"2. c #474C88",
"3. c #485987",
"4. c #545586",
"5. c #495997",
"6. c #535B94",
"7. c #446482",
"8. c #4B6484",
"9. c #446B83",
"0. c #4B6C83",
"q. c #4C6C89",
"w. c #46668B",
"e. c #536A83",
"r. c #526B8A",
"t. c #566688",
"y. c #457284",
"u. c #4B7385",
"i. c #457489",
"p. c #4C748A",
"a. c #4C7A8C",
"s. c #457A8A",
"d. c #53738C",
"f. c #5B738C",
"g. c #537B8D",
"h. c #537285",
"j. c #496393",
"k. c #556697",
"l. c #4D7C92",
"z. c #487592",
"x. c #5A7591",
"c. c #547C93",
"v. c #5A7D94",
"b. c #577797",
"n. c #676886",
"m. c #697386",
"M. c #676996",
"N. c #657A99",
"B. c #747796",
"V. c #75758B",
"C. c #4D5CA9",
"Z. c #575EA4",
"A. c #4A4FA0",
"S. c #5868A9",
"D. c #5465B7",
"F. c #5C76A5",
"G. c #6876AC",
"H. c #636BB8",
"J. c #6375B5",
"K. c #6F76B2",
"L. c #645E82",
"P. c #5865C5",
"I. c #6572CB",
"U. c #707DE5",
"Y. c #8B7987",
"T. c #A37D87",
"R. c #4E8495",
"E. c #548395",
"W. c #5B8395",
"Q. c #55849B",
"!. c #5B849A",
"~. c #558A9B",
"^. c #5B8B9D",
"/. c #548997",
"(. c #4B818E",
"). c #61849C",
"_. c #628A9C",
"`. c #678796",
"'. c #708099",
"]. c #5C8BA2",
"[. c #5D88A5",
"{. c #5E93A3",
"}. c #638AA2",
"|. c #658BA7",
" X c #788AA5",
".X c #6394A5",
"XX c #6495AC",
"oX c #6998AB",
"OX c #6C9CB2",
"+X c #6996B2",
"@X c #729ABA",
"#X c #7491B2",
"$X c #6EA1B6",
"%X c #72A4B7",
"&X c #978895",
"*X c #959598",
"=X c #95898D",
"-X c #A68B94",
";X c #B48D98",
":X c #A69697",
">X c #B68F8B",
",X c #B3A796",
"<X c #8D8FA5",
"1X c #AB9AB2",
"2X c #80A3BF",
"3X c #B7A5A5",
"4X c #ACABAF",
"5X c #CF988D",
"6X c #E99A87",
"7X c #D4B496",
"8X c #F4A38B",
"9X c #E6A797",
"0X c #F7AA99",
"qX c #E9A890",
"wX c #CD98A5",
"eX c #C6A9A7",
"rX c #C9B6B4",
"tX c #D1B0AE",
"yX c #ECB1AA",
"uX c #DBC9BB",
"iX c #C8C5B3",
"pX c #FDDDAE",
"aX c #F7D7A7",
"sX c #F8D9B9",
"dX c #F2CAB1",
"fX c #FEE3B4",
"gX c #FFE4BD",
"hX c #FFE4AD",
"jX c #F6D796",
"kX c #AFB6CE",
"lX c #A1B5D9",
"zX c #D2BBCA",
"xX c #EEBBC0",
"cX c #BEC9D9",
"vX c #B6C8E0",
"bX c #D3C9D5",
"nX c #D6CACE",
"mX c #F9D7C7",
"MX c #F7D6D7",
"NX c #E9D4D0",
"BX c #FEE5C8",
"VX c #FAE5D7",
"CX c #F7EDCD",
"ZX c #D0D6F3",
"AX c #EFD5E1",
"SX c #D9E5F7",
"DX c #EDE8EB",
"FX c #FCEBE6",
"GX c #E8EAF8",
"HX c #F7EBFB",
"JX c #FFF5FF",
"KX c #FDFDFE",
"LX c #F7F9FB",
"PX c #F2F8F3",
/* pixels */
"` 1 s ) N q 4 ^ U U W.}.g.( i P ( ^ 8 N.j.2.2.- ; *.- 2.K.b.( t ` u p N (.~.!.t u ( b u M b s y ^ ) ",
"~ 6 s [ ) e u _ ( L c._.d.^ i P x.r.U w.d C.S.K.A.H.S.G.j.j.5 7 ` a e M 1./.!.l 4 j s e [ [ ~ t b / ",
"` s b g.a.p u ( 8.j h.).d.F 7 P b.;.w.z J.S.5.*.P.C.A.>.S.S.3.4 ( a q M 1././.p i l p b W.`.^ 6 ^ ( ",
"] F ^ (.g.v u ( Y i y.^.g.v 7 P b.F.5 3.:.D.S.Z.P.P.:.J.>.5.-.l ^ ~ q M (.^.E.t t a u M `..X^ < F / ",
"F s a (.y.v s ( ( t / c.h.a 7 Y F.F.c S.D.P.J.D.U.I.5.S.J.>.j.5 ' a q M R.{.c.6 7 u w n _..X0.6 ^ ( ",
"y s p ) ) e t K L 4 b p.9.p 8 U #Xc -.c I.D.J.C.P.U.5.G.D.5.5.f ( F q v /..X!.a j h w b !.`.7.7 t a ",
"s s b _ 9.p 4 i K t / g.p.) i T 5.& =.S.C.D.G.S.P.I.5.- K.J.k.; K F q M ~.oX!.L L l 4 g g.g.x < ( ( ",
"i s M u.s.b i i K i v.oX.Xv./ T t.& 5 k.S.5.S.& Z.G.K.# 6.K.k.* < s e N {.oX!.^ d.8.u v !.}.0.L L ^ ",
"i t b m ) b t ( Y L n W.v.c.U U t.# k.2.J * = A.$ B.B.* $ 4.3.4.J i n i.{..X|.l 7./ k n _.|.q.j / _ ",
"i t v p v v s ` ( L k p.z.p.j K P # @ D X L.@ 1XzXY.X : 1XE @ ; 0 t.k y.~.$X^./ e.q.n n Q.[.p.L / / ",
"/ l M M u.u.^ ' e.^ l E.~.v.( Y B.P $ @ X   X zXNXiXV.    $ E 4.# t.;.<.].$Xc.^ ( 0.v k p.p.n x / 0.",
"l t M a./.d.l P Y a l !.|.}.0.Y ' 1 * L.Z { W o.mXsXA . Y.&XE 2.& -.<.<.OXOX!.L j l h k i.y.h 4 n / ",
"l 4 v ~..Xu.t L ` i k !..X}.q.3.f.0 * V.=XnXo.xXBXBX+.-XDXY.M.J f * h <.XXoX|.U a l u v a.a.l 8 k n ",
"8.w m .XoXu.t ' e.L x v.[.v.w.r.N.0 M.D W rXMXmXBXaXVXNX&XE 4.*.6.z 3 <.z.].c.u ^ l e k a.g.m k 7.p.",
"7.u m ^..Xn 6 e.' L p c.l.q.x 8.r.z J E : A tXmXqXaXdXO.A Q = Z.6.5.3 <.z.].w.4 ( / e p u.a.n k z.c.",
"8.k y.]._.) t e.e.U / ^.Q.p.x 8.#X* D &XzX+. .X.%.X.+ ! &XE 2.A.5.j.-.c [.[.d.x ( ^ p v a.p.b h 8.p.",
"U x l.{.^.,.h r.0.U 0.^.oXW.P ' B.H 3XNXVXO.$.$.%.%.@.tX-X} 2.:.Z.5.3.- l.[.v.0.U ( a p p.u.k k 7.y.",
"L u i.{.].,.h q.0.h v 9.h./ s P V.{ VXVXiX,X,XCXVXVXxX;XzXR K.*.=.5.3.5 <.j./ 6 ( _ i t 9.9.g e / w.",
"l 4 i.oXoXi.h q.8.h m a.c.) 7 G B rXsXuX3XNXiX*X3X;XMX;XHXGXM.*.=.6.-.d b.b.l.x ^ _ a < ^ 9.e r e l ",
"/ w i.$XOXl.x r.8.h p.]._.h.F G Z BXBXmXeXPXPXDX3XO.;XJXKXKXZXM.# I 8 h 7.q.c.9.0.v.0.l h.c.m k k 9.",
"e.p a.%X%XE.n x.r.x 0.c.h.( s C $.jXjX7XtXFXLXLXJXAXJXKXPXKXZXV.1 P 1 7 _ y.a.h p.!.q./ g.W.) p 7.d.",
"e.l l.$X$Xl.<.x.f.l m i.M s 1 2 ,XCXaX%.FXKXLXPXLXGXJXKXFXKXGX} Z } D C h.h.) r 9.c.q.n x.c.k 4 / p.",
"( b a.OXOXl.n x.f.l ) a.) v t . CXfXaXX.KXKXcXPXLXLXZXLXLXcX<X' H { } 2 G y l p q.l.w.9.v.c.b u 7.d.",
"` l (.OXoXl.7.d.x.u M ) v a t 2 uXCXsX>X+.&XkXlXlXlXZXSXSXbX<X} 1XO.S o m.'.h.t n w.k n c.p.v e 7.c.",
"L p (..X^.i.x ( L l e y.g.t < V >XVXdXyX@.rX| kXvXGXcXbX4X*X| &X-XT.Y.W V B.( j x <.g <.s.N e q M _ ",
"6 4 u.{.{.s.n 0.d._ k (.W.b y H o.yX0X&.qXdX#.:XJXKXNX:X*XY.T.A wXT.o.A H m.` i / 7.k n y.N M v w l ",
"a u u.^.E.i.7.d.f.( p a.E.q < C S %.6X0X6XdX+. .: +.$.CXFXAXAX> o Y.3XW H V.N.6 7.q.n x y.s.(.N p n ",
"^ u s./.a.m x 0.W._ b g.g.~ y G H A ..0X@.%.+.rXrXnXAXFX-X-XT.! A o : H <X X' a / q./ v 9.i.(.) k / ",
"a t s.^./.i.^ u.f.0.a.E./._ ~ G ` G ! wXo X.T.&XkX4X*X4XGXJXJX| W Q C P f. X_ q U h.7.n y.a.s.b l 0.",
"^ t M a.i.M ^ 0.0./ d.(.u._ a y u.# : o.tX@.zXJXHXPXPXiX*X*X-XY.G ] y ' `. Xb < p / b / d.E.a.M n q.",
"( q e M M e w l ` l (.E.[ ) s y [ H : wX6XyX>X;XT.;X#.iXNXVXmX#.y p , s /..Xy.p u ^ a ) W.!.E.q.k / ",
"` s ,./.E.y.i L a q [ (.M p 4 1 2 V A @.9X8X0X@.o >XgXsXgXsXBX .~ N e v oX{.y.q b ) l ) W._.Q.i.e / ",
"h.l ) _.W.^ L L / u v (./.y.a F ~ B H o.9X8X8X&.O mXpXfXaXfXuXZ ' 0.p n W.E.u.b l ( / ( .X_.^.a.k ,.",
"u.p v a.y.l i ' U p M (./.1.j F ] G C { yX8X8X0X@.mXsXhXjXfX:XV f.0.w e 0.) a < ^ u.^ l v.Q.~.1.k ,.",
"_ a s _ u.a i ' ( l m /./.) l L ' ' G W -XqX6X8X5XmXgXhXaXfX{ D f.0.4 p p.u./ l l _ a 4 <.,.<.r v y.",
"^ ^ b (.W.b 6 _ _ l 1.~.~.m j L L L e.V.o.eXyX9X5XsXfXfXpX7XW T N.x.h n v.g.) b a _ l u p.1.<.3 k ) ",
"s a b (.`.b 7 8./ k ,.~.~.m h j x.h j N.| Y.>X5X@.fXpXpXsXO.} Y x.t.j 7.v.x.) a h ^ l x c.z.1.g v ) ",
"s u b a.g.b L f.7.k ,.~.~.9.j U x 3.7. X<XV.> o + pXpXfXCXZ m.J U 3.8 7.).!.w.k n 0.n h c.z.1.g , e ",
"^ t b d.p.l ( f.0.k v R./.<.l Y j.q.h x w.n.H A + hXhXgXNXH n.f t.t.U 7.!.v.q.w q.).l.<.[.~.1.g p ( ",
"( u n (.y.p / f._ u g s.a.x i U j.5 h 7.-.f D B $.fXfXsXrXH P j j 3.d x v.|.b.x ^ ).b.<.l.[.R.r e ( ",
"( l ) a.9.b ^ r.n p s.OXXX,.j j I z h 3.w.;.D V $.pXpXCXO.} M.8 3.I z 8.|.2X|.n 7.!.p.7.c.^.l.g u ^ ",
"( u m ) b k x f.l e s.$X$Xp.j J 3.j h 7.j.3.9 B +.BXsXmXV n.T K 3.I d x v.#X}.n p.).0.m Q.].R.g p ^ ",
"^ u 9.i.v w h 0.x r ,.OXoX0.j J K j K 8.j.-.d V +.jXVXeXQ M.T D 3.U d h b.}.c.k 7.v.) b c.^.i.w t a ",
"l l a.E.,.w 4 l x 4 ,.XXOXp.K 9 9 7 K 3.j.-.8 2 NXNXMXW R T ' K T K 8 z z.v.9.p p 0.l b g.Q.y.r q a ",
"L l c.^.i.k 4 l x r 1.$X%Xb.I J 7 7 K 3.5.-.8 2 { { { D k.t.T 0 0 d 8 z c.c.<.u p _ b b g.c.y.q a / ",
"/ l d.!.i.k w x ;.r <.{.|.q.K F i i J 4.3.3.i y G H $ R N.j.T J 8 z h <.!.E.m v b u.b b h.g.y.p l _ ",
"e.x p.Q.a.n p n <.w M ~.!.7.K T L i I 4.3.z h 9 R R D 3.k.c T 0 I w.U 7.c.a.v M ) u.b ^ g.g.) p b 0.",
"d./ l.!.l.,.u l / h i.@XOXd.K K ^ l I 2.-.z 7 7 T R f 6.w.;.d 0 r.r.x k y.M q e [ [ ^ u.`.`.y.q n 0.",
"d./ l.].{.,.b u ( e 9.@X[.q.F G ` ^ x 7.;.8 t 7 P 1 I w.j.w.9 6 x.c.n x c.v.( , p b b _ W.W._ l / u.",
"0.x z.[.+Xi.b a ~ u i.@X[.w.y 1 y y u 7.z.U F 1 0 1 q.|.+Xv.j 4 / 9.g k c.).u.4 s b b ^ g.`.y.l l 0."
};
