/* XPM */
static char *_51707904068[] = {
/* columns rows colors chars-per-pixel */
"50 50 152 2 ",
"   c #353F48",
".  c #2E454C",
"X  c #32454F",
"o  c #2F4651",
"O  c #2E4A55",
"+  c #2D4D5B",
"@  c #324654",
"#  c #3A4651",
"$  c #344A55",
"%  c #3B4C56",
"&  c #344C5B",
"*  c #3B4E5C",
"=  c #2F505E",
"-  c #35515E",
";  c #3A515E",
":  c #37585C",
">  c #2F4E61",
",  c #354F61",
"<  c #3B4F61",
"1  c #2F5564",
"2  c #2F5969",
"3  c #355364",
"4  c #3A5464",
"5  c #355A66",
"6  c #3B5965",
"7  c #345569",
"8  c #3B566A",
"9  c #355A6C",
"0  c #3C5A6C",
"q  c #3C5771",
"w  c #365E72",
"e  c #3C5D72",
"r  c #355F79",
"t  c #3E5F79",
"y  c #396067",
"u  c #34616B",
"i  c #3B616D",
"p  c #356273",
"a  c #3C6275",
"s  c #3D6975",
"d  c #36647B",
"f  c #3D647A",
"g  c #3D6A7D",
"h  c #415566",
"j  c #435C67",
"k  c #41566B",
"l  c #425B6D",
"z  c #425773",
"x  c #425D73",
"c  c #445E7A",
"v  c #44616F",
"b  c #436275",
"n  c #496675",
"m  c #476877",
"M  c #43647B",
"N  c #49657D",
"B  c #446A7D",
"V  c #4A6A7D",
"C  c #43707E",
"Z  c #3E6C83",
"A  c #3B698C",
"S  c #3E7185",
"D  c #3E748B",
"F  c #456682",
"G  c #4B6682",
"H  c #446B83",
"J  c #4A6B84",
"K  c #49678C",
"L  c #456E8A",
"P  c #4B6D8B",
"I  c #506786",
"U  c #516D8C",
"Y  c #437385",
"T  c #4B7185",
"R  c #467886",
"E  c #487885",
"W  c #45738B",
"Q  c #4B738C",
"!  c #45798C",
"~  c #4B7A8D",
"^  c #52748D",
"/  c #51798D",
"(  c #4C6E92",
")  c #536E91",
"_  c #457592",
"`  c #4C7492",
"'  c #457B93",
"]  c #4C7B94",
"[  c #4E7499",
"{  c #467E99",
"}  c #4C7C99",
"|  c #537393",
" . c #537C94",
".. c #54779A",
"X. c #59769A",
"o. c #537C9B",
"O. c #5B7B9D",
"+. c #557EA2",
"@. c #5B7EA2",
"#. c #607DA4",
"$. c #4D8195",
"%. c #47809C",
"&. c #4C839C",
"*. c #4E899E",
"=. c #518295",
"-. c #53849C",
";. c #5A849C",
":. c #52899E",
">. c #5C889E",
",. c #4F84A0",
"<. c #4D88A4",
"1. c #5483A3",
"2. c #5A83A4",
"3. c #548AA3",
"4. c #5B8BA4",
"5. c #5586AA",
"6. c #5A85AA",
"7. c #558CAA",
"8. c #5A8CAB",
"9. c #5590A6",
"0. c #5B91A6",
"q. c #5492AC",
"w. c #5B92AB",
"e. c #5D8CB1",
"r. c #5E94B3",
"t. c #5E9DB7",
"y. c #5D9DB9",
"u. c #6385AB",
"i. c #6887AE",
"p. c #638CAB",
"a. c #6591A7",
"s. c #6294AD",
"d. c #6A96AD",
"f. c #6499AD",
"g. c #628DB2",
"h. c #698EB2",
"j. c #6391B5",
"k. c #639AB5",
"l. c #6B9AB4",
"z. c #6595BA",
"x. c #6B94BD",
"c. c #639CBB",
"v. c #6D9ABF",
"b. c #65A1BF",
"n. c #6CA1BB",
"m. c #72A3BD",
"M. c #6D96C0",
"N. c #6D9EC2",
"B. c #719AC4",
"V. c #67A5C4",
"C. c #71A2C5",
"Z. c #76AFC9",
/* pixels */
"M $ 3 B B + @ M t 8 X.h.| N h j I x 5 H W Z 9 4 N x M e.7.&.Z , e w 4 Z ] -.;.3 - N 0 0 M b 3 8 x N ",
"N , 3 L T 7 O M t 8 ..h.^ c % c | G e W W W e 6 V x 6 f Z g 3 + c w , s ' -.$.4 $ e 3 3 M H 8 & x N ",
"N 3 b ;.` p 3 M M 7 | u.U c % c [ J a W W W e 6 J l $ i S D g 6 M 8 - f ~ :.] 4 @ w , f 1.5.M & l N ",
"N 7 e } _ 9 7 H M 4 U @.U c # n o.P B ` ] ~ 0 4 J x 3 f R ! Y 0 s 0 * d $.3. .- 4 9 , e 8.8.F @ l N ",
"M 3 0 ` ' 9 1 F M , M @.| c # c 2.J M =. .` e 6 J b ; f ! $.D y M 8 * a *.0. .3 * 3 $ f e.e.H $ l N ",
"4 @ 4 Y H 7 + 4 x & k | N *   n u.J j 2.4.$.f * V x - g $.$.R : M w + a &.r.=.8 4 4 @ F 1.8.F & ; k ",
"k , a ! Z 5 + * < & P ;.U b 4 4 V k h 4.p.;.T l O.I 6 R *.*.R : 6 4 X p 7.t.;.i z e & 3 H Q 0 % x N ",
"3 * B ! S p 5 8 x 8 P z.z.o.M k c x l 8.p.;.Q x #.) i $.9.9.S : i M 5 g q.t.4.a J F , c &.7.W ; b l ",
"3 & e s s p 5 x F q M o.5.[ q z F F x Q G x 4 x #.) 0 ] 3.:.E i m B 9 S q.t.w.0 M J 4 M ,.4.W 6 b M ",
"9 + w w w 9 4 M F q 7 L [ F 4 x K P c F  .J * z i.X.k v V E b : b B 9 Y q.t.3.0 M Q 8 e } 3.W 0 V H ",
"r 7 Z Z ` W e J J 0 c +.g.+.F z [ K K ( o.( 8 c i.#.k x Q  .B 6 n Y 9 Z q.y.7.i M P 0 0 W } Z 3 N H ",
"w 7 w A -.Q k N F , t +.g.6.c z K K c P ( F 4 c X.#.j x Q ] H ; l T a S q.y.3.6 8 8 * 0 H Z = O f H ",
"w + 7 5.k.Q ; l b 4 x +.g.6.I G U G c ) P F , 8 x M 0 x Q ] H 4 6 b 6 Z q.y.3.e 8 q 7 t { ' d 1 4 f ",
"f , Z 4.l.J ; N G l 4 @.6.+.c I X.I c X.[ F & 8 J f * M [ Q H 7 x M 3 a &.3.$.q e t 7 9 { { d w M ` ",
"F 7 H -.s.m ; J G q 0 ` | G k G X.U c +...c % 6 G q O 0 B 0 3 3 x q $ f ` W f & t t , 7 ' D p 9 J ] ",
"Z 7 H 4.4.n * J J x M 2.2.` 8 I @.U c +.6.c & k B b 5 g s 9 1 & x w & H 5.8.[ 8 c Z q 7 { D p 2 H ` ",
"M 0 H w.a.v ; U P x N 5.g.2.x I O.U N @.g.F * 0 M V g *.-.! p = 8 0 $ 9 ` 1.2.F M F w , ! D p 2 H J ",
"e 9 H s.4.V h J J 4 a J Q M * c O.U G +.j.` * 4 b H s B C s = O 3 8 + , M N B ; t F q > Z g 2 1 f F ",
"- @ T k.s.T h G c * b ` o.L & 8 M l q @.j.O.8 % x j a *.*.R : . * 9 o * L ` ` 0 e M 7 + d Z 9 + 8 0 ",
"M - ~ c.l./ x U F 4 Q e.5.W 7 9 f d e 2.j.2.0 4 V l 0 :.9.! y o 4 0 $ - J W ] M J ;.H w ' %.g 5 0 N ",
"J 4 ~ n.n.~ b ) P 8 F 1.P f 1 7 Z Z d 2.z.;.0 6 J b 3 :.w.$.y : e M 4 - H ` Q 4 J ;.Q a { { d 5 b ^ ",
"H 4 ~ C.v.T b | ) z F _ Z w > 7 Z t e o.c.1.0 j T J 6 -.w.R y : M L 0 4 f J F ; J  .Q a $.&.9 3 b / ",
"H 3  .n.k. .c ) X.x f L f d + 3 Z r q &.c.>.f v Q J i -.0.E y : M T 0 3 a t 9 @ B ] H 9 { &.9 - M Q ",
"J 0 =.k.s.] M P X.* 8 J f w + 9 Z r 7 &.k.4.B 6 J b 6 $.f.$.u : H T b 0 _ 1._ , l M 0 a %._ p 3 V ^ ",
"8 4 ` w.4.Q a n n * 4 W ~ 3 O + w 9 9 ] k.w.B 4 x 4 * =.n.:.m : b b 4 4  .-.L 3 0 b 6 0 { Z 1 : b M ",
"& $ Q w.3.Y a J Q b 8 ` 3.a - 0 H a p { k.7.N l F x 4 ~ 0.=.s X k x & 9 ` Q s * b V 0 e _ Z s 0 - 6 ",
"8 4 T w.-.H a P  .M 0 Q Q 6 @ 0 L d 9 ] r.3.B 0 F q , / >.Q : $ M G 8 s 3.q.Q : n m b 3 d ' $.S 0 e ",
"q 8 J 3.&.f e Q o.V J o. .b - 4 H w 9 ] w.3.M x P q 8 2.m.4.5 o c F 8 a 3.9.R ; v V n 9 Y W ' C 0 f ",
"e 4 H 3.$.g a Q ` B Q o.Q B 0 3 f w 7 W 7.&.M 8 ( z 4 >.m.;.a $ M M 9 f :.w.C $ v V V n W W W f 0 H ",
"M 4 b ] ` g p P J N  . ./ J 0 3 M e 7 Z 3.' f & K c 4 >.m.>.H 4 x e , f 3.w.m # j n v b ] { ' Z 0 P ",
"l & & M f 9 3 6 l 0 /  .Q b 6 * f e , d J H q @ x q *  .l.a.~ 6 4 4 o 0 w.w.V % % k 6 b <.3.&.H 4 N ",
"M 3 N 7.&.H 4 x 0 ; J ~ g 6 : @ 4 & 4 ..6.2.P < G c * / l.d. .b N M & a w.9.C 6 l J x H 5.7.3.D 3 a ",
"` 0 J 7.&.H 0 b e * Z &.' Z a 4 x ; x e.j.2...x P c & U d.l.>.n J F < e 3.3.B h x V x F 5.7.,.D w F ",
"W 0 0 T J b 4 M F * g &.&.W 6 6 M 0 0 o...` c < G G @ l G V n j ^ G , 3 M F w * l G x e ,.7.3.D 9 H ",
"H 8 0 T H 4 < J H 3 B *.:.Z : l G b e ( o.+.M < K c , P 6.} e % ..K 8 8 _ J F x c I x $ p Z p + 7 L ",
"f w b  .^ 0 4 n N 0 b 7.3.g 4 x J c f @.M.x.@.z F z 8 o.z.g.[ x @.P , t [ Q F e j N k 4 D D p + w H ",
"t 7 a  .;.b 4 M M 4 B 9.*.B - 4 n 4 q 6.B.B.u.k c k , [ z.M.o.4 U | 4 N +.` J , * x 4 4 { D Z 2 3 Z ",
"3 $ x  . .0 0 } H e g 3.*.p 5 x V x x 6.B.B.6.x F q 7 L e.V.1.* x x < b 5.5.J 3 x [ J 0 %.%.D 2 o 8 ",
"e > e  .T 0 i ] H 7 9 -.&.g 4 M I M w ..M.6.( e J t 7 L j.C.6.x G J 8 x 5.o.e 8 J 2.| a %.<.D 2 8 M ",
"F 3 e Q J 0 b ] Z 7 3 W ! s $ N J x 3 A L e * 4 J f , ( e.C.6.0 V G 4 0 ;.4. .0 F 2.` a %.7.{ 2 4 F ",
"H 3 b ] J 0 f _ d 1 W V.8.g - a H q p { &.Y - 4 F Z 7 _ e.N.2.0 ^ J 6 B w.Z.k.9 H o.` d { 7.' 3 4 M ",
"F 0 b B 5 3 e D r > A V.c.! 3 a L a g &.&.W 5 4 H F q ( e.l.o.l | ^ 4 B 3.c.-.0 Q o.( s } q.' 5 4 c ",
"f , s ! s + 9 Z r + A y.c.~ a a H w g &.%.S 0 3 M e 7 P 8.z.o.x ^ ^ 4 M 3.0.! a H } H a &.3.W 3 < e ",
"8 7 &.*.g 1 + w 7 + Z y.c.:.0 ; 4 . g &.&.g i 6 M & @ _ 6.8.` 4 x n $ i 3.&.Z 5 * M e a  .=.J & % 4 ",
"q w ` *.Y 2 = 9 w > Z k.b.-.v k x 3 a &.%.g i 6 J 0 & _ 8.5.P - @ 8 , Z *.' g 5 0 C y 0 Q $.B ; 4 b ",
"t q W $.! u 1 w t 3 f 8.0.E i k M w 9 ' %.s u 0  .b , [ 8.o.P 4 0 M 7 g &.] g 5 b Q b i Q  .B : k G ",
"F e W =.! d 5 e d 7 e 2.;.x ; h M e s %.S u u 6 ] M 7 [ 7.| e 7 Z F 9 Z *.! p 5 i ~ b f  .=.V 4 j P ",
"` M E :.$.d 3 a f 7 c v.M.| k h f a s ' g u 5 v ` H e ` } F & & ` } f 3 s g 3 - B E f B ;.;.b 4 l U ",
"| f R 4.:.Z 9 4 H 3 n M.h.U * h F M 7 p w 1 O 4 b 0 b ` o.H + $ _ } M 5 } *.9 $ 6 b 6 B >.;.B 6 b U ",
"J 8 Q w.f.R p 3 a 4 U x.@.G < # 4 & + L W Z 9 @ % X J y.N.1.w + e F 3 e &.3.E X * v 0 H ] -.V 0 l V "
};
