/* XPM */
static char *_f4b42cd98d74450b39e8e77788686d4yJE8cln5seZ0ibUD[] = {
/* columns rows colors chars-per-pixel */
"50 50 39 1 ",
"  c #4B692F",
". c #4B692E",
"X c #4C6931",
"o c #546C3D",
"O c #526C3B",
"+ c #4B6930",
"@ c #526C3A",
"# c #546C3E",
"$ c #4D6A32",
"% c #4E6A34",
"& c #556C3F",
"* c #506B37",
"= c #516B39",
"- c #526B3A",
"; c #516B38",
": c #4D6A33",
"> c #4F6A35",
", c #556D3F",
"< c #4F6B36",
"1 c #4C6A31",
"2 c #4C6930",
"3 c #4E6A35",
"4 c #4A692E",
"5 c #566D41",
"6 c #536C3C",
"7 c #516B3A",
"8 c #536C3B",
"9 c #4E6A33",
"0 c #536C3D",
"q c #506B38",
"w c #576D42",
"e c #4F6A36",
"r c #556D40",
"t c #566D42",
"y c #506B36",
"u c #546C3F",
"i c #4D6A31",
"p c #566D40",
"a c white",
/* pixels */
" .XoO+.. @#$.       .%&*$#=     . -o$;#:. .>,<.   ",
"*:1oO2%32>*242>%233+4%,*$#=2>%2%32@#$;,:$<X$*$X<: ",
"5;XO=XO6X +X $o7X682490<$6q10@XO6X;61*6$<&% X %#* ",
"w=+$X260X4$@e$#-X66242:X :X1oOX86XX$+1:+*r%:O%%,q ",
"->2%:2**+49,=X*>X66X9% $%+42q<X60X$%2.4 %=$>r<9,q ",
"X+X6@2 22 :oq 2+X8@X=OX;o$ 22 2OOX=0$ 2 2X >,e:#* ",
"O>1oO+4$7%2%$X;<29: :%2=#$%=$4 ::2O#$>=$%=$>r<2%$ ",
"t=1oO24>r* .4$#O 42%X4 -#$q,%2%24 *=X;&:*r%:-%..  ",
"5=16O+4%#*  .$o- 4>#e. =o$*#9>#>  22 =#:<#% X2    ",
"w=2%% .1e$ ..2%9 .<r*..:>2$>X<,>$;94 =,:$eX$q:$;% ",
"o* .2$2   2$X+$X  %8%+$X   ..<,>%,*. *O$...>,e9,q ",
"$2  >0%  .$6*1O=  21+:6y     <,>%,*  2X+  .>,e9&q ",
".:*X<r>X*$:,;$#O+.$y$%r;  9*X$*1X*:  .4 :*X>r<X*:.",
" *&9e,>%,y:#;1O= 4>,e:6*  q&%. XX    2X *,%%0>  2$",
" q,9e,>%,*:u=+$X .>,<+$X  ;,%4+=-2.  *O$*,3+$2. *o",
" q,%:;$$;:Xq3 .$eX>,y.... %;$4 **29>2=,::;$4 %%2=w",
" *o9     22+   *#%%#e  22    +22 +-0$;#: +2+2O61qr",
" i92.  . *=X4. *r32%X  y714..%@94 O#$;,942;qXO#1X%",
"   9:+::2O#$$%2%-:.... -,:X%2<re4 <=X>=14Xo6X<q2$>",
" .X6-X@OX=0$*o: 2   +  =o$*#:e,> +22 +22 X6O222 q,",
".41#OX60X$%2=,94 .. *q2:%2q,9<r>$=%..42;<2%92<*2:<",
"%XX=*X66XX$+<@$. $$28#X4. q,%%O9%,*+:X$#O 44+8#X4 ",
",q 22286X;61+X+ 2O-X@0X   q#% X 3,y$6*$o-+  2O0X. ",
"w- .4 3>2@#$42*3Xo6X%>2%*X:<X.44>,*:,=2>92<e2%> . ",
"#*  2$2. @#$4$#-X==2.. 7#$4  2$+96>:#= X2X662.+$X ",
"$X  >6%4 @#$4$#@+XX  . 7#$4  >6%+$+:#;XOqX6624:6< ",
".:<Xyr<. 3y242*>2%%2%>2%*X:<X<re444X*9$#-X6624%,q ",
" *#93o3. 2X 2X+ X6OX@0X+X q#9e,> X2+X+$o-X@-24%&q ",
" q,%2:2. *=X<@$4X06XOo1<-1q,%e,>:O%$Oe$#@2$$ 4%,q ",
" %=$4 9%2O#$=,942*y2<*X-,$%=$9=$%,*1=>2q< 4X>1$=%.",
"  22 2O8X=6$*o:. 22 22 =o$ +  + 3,* +222  .>#< +22",
" .2;*X6oX$% $%242q*2*;X$%+.   44>,*. >=14..e,<. <6",
" .XoOXq;24+91 :$X06X*=24+9$  X%2:@3  =,:X%2>,<. <6",
" .XoO2+2 .:o*i6=X682+2+ $0; .e#> 2+  =#:eo%3u<  2X",
" .Xo8+44 .9,;$#O2%% 41;%$#- .*r<44.  =,:*r>X>1$;%.",
" .X-;21$ .9u;X-q+i$ .%,*$#7 .%6%+$X  yO$389+$+%,q ",
"   X22-@24:#= X22--24%&*$#=  21 %0<  2X+21 %0%9&q ",
" 9*X420oX4X<92e%2e>+.1*:2<%2<> 4>r*X*92<% 4<r<9,q ",
" q&%42-@2.+12$o-+XX    XX+.XoO24%0>:#;$o- 4%03:6< ",
" q,%4 $$ .$O<$o-X==2.. *Oi4Xo82.2$29,;$o@ .2$22$X ",
" %qi$eXXe$1;%$#-X66X9%2-,:42*>2%% 4Xq%$#@2%% ...:*",
" 2X <&3%#* X+i6=X6OX-61q0$. X22O6X 2+ i6=X682+2 =5",
" >-$<r>%r*i7>+:$X06XOo119+42=*X66Xy=X4 :$X06X*=X=t",
" >7$9-:$7%:,= .4+q*XOoX4+%$1oOX66X-#$$%24+q*XOoi=t",
" 2X+ 2222 :#=   22 2@6X4$o;10@XO8X-o$*o: 22 2O01;p",
" %;$4 **+49,=  %=$4 9%+4$#=ioO2:92@#$;&:9=$428o1$>",
" q,%4260X4$@<  *,32:X. .$#=X=q2$$+*=X;#:*r>4 q=XX9",
" *#%4266X +X2  *,%%o>  .$#=+X22-OX2X ;#:<&%. 22 q,",
" :<X.266X>*2.  *,%>,<Xq%2e92<>X60X%*2:eX$<X$q:4 =t",
"     266X-#$.  *,%>,e9,q  .XoOXO6X-#$.    .>,<. =5"
};
