/* XPM */
static char *Untitled__9_1707905839[] = {
/* columns rows colors chars-per-pixel */
"50 50 256 2 ",
"   c #110505",
".  c #3C231F",
"X  c #33142F",
"o  c #1A2933",
"O  c #3B2335",
"+  c #180A24",
"@  c #453012",
"#  c #56352A",
"$  c #6E3D39",
"%  c #5B4531",
"&  c #68483B",
"*  c #694837",
"=  c #271E48",
"-  c #0F2657",
";  c #293748",
":  c #35304D",
">  c #253865",
",  c #35356E",
"<  c #4B384D",
"1  c #653A4B",
"2  c #433865",
"3  c #403B7E",
"4  c #274A59",
"5  c #374A5B",
"6  c #324C52",
"7  c #2B4C64",
"8  c #294967",
"9  c #334D64",
"0  c #394D64",
"q  c #3A4A6B",
"w  c #2D5266",
"e  c #2C536B",
"r  c #2D5B6C",
"t  c #295563",
"y  c #335265",
"u  c #3B5364",
"i  c #34546B",
"p  c #3B546C",
"a  c #345A6D",
"s  c #3B5A6D",
"d  c #385A65",
"f  c #2B4971",
"g  c #3C4C73",
"h  c #374976",
"j  c #2C5574",
"k  c #335472",
"l  c #3C5572",
"z  c #355C72",
"x  c #3B5C73",
"c  c #3C5279",
"v  c #355A7B",
"b  c #3C5C7A",
"n  c #36547A",
"m  c #3C616D",
"M  c #366167",
"N  c #356375",
"B  c #3C6274",
"V  c #36647A",
"C  c #3D637B",
"Z  c #3D6A7D",
"A  c #3A6C74",
"S  c #346A74",
"D  c #174F4C",
"F  c #5A4C4B",
"G  c #474958",
"H  c #5A585A",
"J  c #514D58",
"K  c #74585B",
"L  c #6A4D4C",
"P  c #76665D",
"I  c #454969",
"U  c #554B67",
"Y  c #425B6D",
"T  c #455569",
"R  c #575869",
"E  c #454C76",
"W  c #435572",
"Q  c #435C74",
"!  c #4A5B74",
"~  c #44547B",
"^  c #445D7B",
"/  c #4B5C7B",
"(  c #4B5379",
")  c #575979",
"_  c #5A4774",
"`  c #775D69",
"'  c #695673",
"]  c #43646E",
"[  c #446A6B",
"{  c #436375",
"}  c #4C6275",
"|  c #43647B",
" . c #4A647C",
".. c #436A7D",
"X. c #4A6C7C",
"o. c #486A75",
"O. c #52647C",
"+. c #546878",
"@. c #43737B",
"#. c #5A717A",
"$. c #55666E",
"%. c #6A6675",
"&. c #716D74",
"*. c #83584E",
"=. c #956C51",
"-. c #825D69",
";. c #8C6B73",
":. c #A67D71",
">. c #99856D",
",. c #A58779",
"<. c #B58375",
"1. c #C4917C",
"2. c #C9AD7B",
"3. c #2F3F8A",
"4. c #3B4C85",
"5. c #3A5786",
"6. c #394A95",
"7. c #395A90",
"8. c #3C6B82",
"9. c #3B6587",
"0. c #3E6F8B",
"q. c #484C86",
"w. c #425484",
"e. c #475988",
"r. c #535887",
"t. c #444B95",
"y. c #4A5899",
"u. c #575996",
"i. c #564E8A",
"p. c #645989",
"a. c #745E84",
"s. c #446682",
"d. c #4B6583",
"f. c #446B82",
"g. c #4B6C84",
"h. c #4C658A",
"j. c #446C8A",
"k. c #4B6C8A",
"l. c #43678B",
"z. c #536B83",
"x. c #516C8C",
"c. c #556688",
"v. c #467285",
"b. c #4B7386",
"n. c #44738B",
"m. c #4C748B",
"M. c #4C798B",
"N. c #457C88",
"B. c #53748C",
"V. c #5A738B",
"C. c #537B8D",
"Z. c #557686",
"A. c #4A6A96",
"S. c #546C91",
"D. c #596397",
"F. c #4B7493",
"G. c #4D7C92",
"H. c #467496",
"J. c #547C93",
"K. c #5A7C94",
"L. c #587895",
"P. c #637B96",
"I. c #71708A",
"U. c #485AA3",
"Y. c #575BA7",
"T. c #5866A8",
"R. c #4D79A3",
"E. c #5D78A7",
"W. c #596AB9",
"Q. c #516EAF",
"!. c #6578AA",
"~. c #646DB6",
"^. c #6875B7",
"/. c #6D6DAB",
"(. c #625CA6",
"). c #5D72C2",
"_. c #5B6DC6",
"`. c #656BC7",
"'. c #6C78C9",
"]. c #6F72D0",
"[. c #977A88",
"{. c #837282",
"}. c #977FA9",
"|. c #A36D84",
" X c #4D828C",
".X c #4B8294",
"XX c #4C839C",
"oX c #548295",
"OX c #5A8495",
"+X c #5B859B",
"@X c #558A9A",
"#X c #5B8B9D",
"$X c #55859A",
"%X c #54848A",
"&X c #62859C",
"*X c #648699",
"=X c #738896",
"-X c #5A8DA3",
";X c #5888A7",
":X c #5C92A4",
">X c #558CAB",
",X c #628CA3",
"<X c #658AA7",
"1X c #6393A4",
"2X c #6394AB",
"3X c #6A98AC",
"4X c #6799B5",
"5X c #729DBA",
"6X c #738CAC",
"7X c #6DA2B3",
"8X c #73A5B7",
"9X c #6683CA",
"0X c #6FA4C6",
"qX c #8F8693",
"wX c #A09493",
"eX c #B09089",
"rX c #B496AB",
"tX c #B9A9B4",
"yX c #979AB0",
"uX c #D59C95",
"iX c #D1978F",
"pX c #E79C8C",
"aX c #D5AE92",
"sX c #E8A88A",
"dX c #E6A696",
"fX c #F8A79A",
"gX c #F6B29A",
"hX c #D9ABA5",
"jX c #D4AFAF",
"kX c #E4ACA3",
"lX c #F1B3A7",
"zX c #DA9FA7",
"xX c #F0D298",
"cX c #E7CAA6",
"vX c #FCD9A9",
"bX c #FADAB9",
"nX c #E8D0B3",
"mX c #FFE3AA",
"MX c #FFE6B7",
"NX c #FFF2B1",
"BX c #DBC3B7",
"VX c #B8B1CB",
"CX c #95ADC7",
"ZX c #C6BDCD",
"AX c #D9C7D5",
"SX c #F8DCC8",
"DX c #F5D9D9",
"FX c #E4CCC6",
"GX c #FCE6C8",
"HX c #FCE8D4",
"JX c #F5EECA",
"KX c #D0D3ED",
"LX c #EEDAE8",
"PX c #FCFCFE",
"IX c #F5F4FF",
"UX c #F9EBEB",
/* pixels */
"} 5 w @...t 4  .^ Q K.,XC.o.T W o.B r 8.@.@.T ( r.~ g.+X:XoXo.t } s z f.M.OX+Xz i |  .p } { d y | X.",
"} 5 d b.v.r i  .d.Q J.&Xm. .u ! Z.X.Z 8.M...~ ~ D.e.e 8.0.v ] D { i i ..m.$X+Xj 8 l i i X.X.s y x | ",
"} d m C.M.a p  . .l m.&XC.x 0 ! Z.g.0.0.+XZ ~ - - - > 9.H.9.Z.5 { s w ..F.#XJ.e i x s Q P.*X{ w  . .",
"} Y o. XM.z i  . .p g.+XC.x 0 ! V.F.H.R.j.n !.!.!.^.E.0.- <X{ [ o.B y Z J.#XoXw i k i  .,X=X..4 x | ",
"Y u m b.b.z s  . .i ..oXB.x 0 / P.S.6.Q.R.A.E.~.^.Q.Q.Q.9X- H.i { { w N oX1XoXe w j i | <X<Xf.i | o.",
"p y a @.@.r 9 l Q 9 x b...a 0 ! 6Xe.f 6.6.Q.T.T.~.).9X)._.W.x.x { s 7 B #X1X@Xz i z e C &X*X| t i p ",
"Y u B v.f.r 9 p W 7 ..C.M.| p W W h T.W.U.Q.Q.~.U.).'._._.W.w.f x x w A #X3X#XN C l 7 i B.J.z 7  . .",
"u i B N.b.B p l W p K.3X1XK. .~ c.4.'._.Q.'.T.U.6.'._._.].W.y.g | { a ..-X3X#XV n.f.a x &X&Xb.x x { ",
"s i B Z Z B y  ./ Q | oXoXJ.^ ~ g u.^.~.^.^.~.T.U.6.].`.`.`.~.> / g.z v.1X2X#XZ Z | z | &X<Xn.z | X.",
"i 9 N a N m p }  .x z m.F.m.l W ~ u.(.^./.i./.T.t.t.(.`.].`.U., k.B.x f.1X7X1Xr f.b.b | OX#Xk.C | { ",
"{ x V Z v.b.{ z.z.{ x OX+XK.d.^ x.> i./.= I q.u., , 3 (.].W.U.y.> h.b s.&X3X2XN ..f.x z B.C.Z z | f.",
"x i N N.OXB.x ! / Y z +X<X-Xd./ S.D.= = KXrX: : i., u.2 u.Y.y.U.8 h.d.m.&X,X+Xa a B a z k.g.r 8 C s.",
"x 8 N $X1Xb.9 ! ! s z +X1X,Xk.d.S.c.' <     + p.a.2 VX2 i.T.U.U.5.e.n A.6X3X+XB a z a x C.B.a t x C ",
"d.e Z 1X3Xb.i +.z.Q b OX;XK.h.h.c.V.J wXFXF qX: 3 2 ZXU p.(.U.U.e.5.8 s.-X+XJ.V B x i s C.C...a l.m.",
"s.i 8.#X1Xo.7 z.O.x l G.G.j.b d.6XY &.UXlXiXLX1 {.' [.J 2 r.y.U.D.e.f e.L.l.8.w ..{ y s m.B.B z n.L.",
"X.z v.-X*XZ y z.O. .| #X$Xm.^ h.K.Z.J wXSXDXDXO _ {.O < E D.U.U.A.e.> l.<X<XJ.a ..| s x Z.b.B a f.m.",
"{ s  X:X@X..s z.x.| g.+X<XL.b B.;Xx.! %.wXAXjXX ' }.qX, E u.i.Y.y.T.w.5.L.-XoXC | f.n l x.b.z d s.m.",
"B r v.:X#X8.i z. .i z n.G.f.k e.L.L.C =XqX` 1 |.zXrX) q E 4.u.u.y.T.4.n 9.g.v.z Z h.k k j.g.a r Z f.",
"s w v.3X3Xv.z z.d.i C G.$Xj.k W N o.z V.5 ZX;.jX|.UXJ o , 4.t.Y.Y.T.4.n s.n.b.B | k.n 8 | f.r 7 i z ",
"| e v.7X7XM.z V.c.Q m.+X#Xk.p W o.s { CXyXyXLX,.SXSXLXo W 4.t.U.U.e.f k g.C.C.B g.K.k.v B.J.C a z s.",
"d.z M.7X8X.X| V.z.l b.OXM...p W ) T 6XKXIXPXP JXSXJXLX; > 4.6.3.q.5.f f g.b.v.B m.P.x.| L.OX8.r ..B.",
"g.N G.7X7XG.| V.V.l ..m...s 0 T ) R KXIXPXPX>.cXvXGXLXX , q.4.y.w.h.c x | Z Z a f.L.k.| L.J.z t | m.",
"f.v .X4X4XJ.C B.P.p ..b.{ s d d G < PXIXPXPX& NXMXvX:.*.1 = 2 , ~ h.b a B Z B 4 b.J.k.s.K.J.V z f.L.",
"| V G.7X4XG.| L.V.y B b.{ ] 5 O wXDXwXLXPXUX% mXvXvX=.1 rX` U I c.V.x B Z.OXM.t B { x x J.F.z r f.B.",
"^ z G.2X-Xn.C d./ i i b.%X6 G ZXbXbXSXaX* @ 2.mXvXMX;.& tX&.$.t {  .p a C.OXg.m s B a | m.Z N e b ..",
"7 7 N.1X-Xn.| g.V.g.B X.*XX.T &.GXvXGXGXxXmXNXMXMXhXjXjXO I.[ 6 m B y s C.oXB t | ..s { v.8.9.N e z ",
"x i m.-X$Xn.s.B.P.i w C.Z.; 5 ZXP kXcXNXvXvXMXbXSXK AX{.$.#.M D ] o.s | &X,Xm.s o.X.B x f.n.H.n.z C ",
"Q p v.@XG.8.b k.K.Z.b.B.*X#.6 ; G F ,.,.cXcXFXFXqXUXLXZXZX=XD t o.{ a C ,X,Xk.a B B.{ m f.M.G.0.v  .",
"W y b.#XoXn.Z x.x.| m.OXC.o.G } g.i 5 &.< ;.[.rXFXeX,.MXJXAXJ 6 o.o.a Z ;X<Xl.7 { Z.{ m g.M.H.V x s.",
"} y { M.v.Z b k.z.s.J.C.b.#.Y 9 0.j.l ' tX-.;.[.jXJXmXmXcXJX< I Y m i | <X3Xf.e i ..] { M.oXG.8.C k.",
"} 5 a A V r i b | x C.M.X.X.! 5 s d H # lXkXeXSXSXvXNXxXJXFXJ ( u y 7 x <X<Xf.e i { s o.oX#X$Xn.z  .",
"} p g.OXoXg.s b b 7 v.J.A d u 5 ] 5 F *.sXsXpX<.bXMXNXxXaX@ {.%.$.] i 5.<X4XA.k C ..Y ..oX@X;XH.j | ",
"V.Q ..,XOX..Q / | i S .XoXv.s s { J L eXsXsXsX1.bXbXvXMXNX>.:.L H &.u Y J.4X9.j 9.Z }  .:X:X>XH.z 8.",
"g.a B M.b.z W  . .a S .X@XZ x p B J % dXgXsXsX# eXSXGXcXcX=.uX<.F H < R s.V 7.j C g.} s  X@X;Xn.z f.",
"g.l a v.b.l p d. .x 8.@X@Xf.s Q m.I -.zXpXgX*.F L BXbXbX2.sXlXuXhXzXjX# #.Z.f.Z N o.d 6 S Z 8.8 v v.",
"{ x C C.K.| 9 z.| x 8.@X@XZ l Q / U iXpXgXdX` H &.;.kXsXsXsXkXzXdXlXzX;.I.Z.d M d [ [ 5 N.8.V 8 z f.",
"s k C J.OX| p  .| z 8.@X@XZ i W ! J kXfXdXkX&.T R J iXiXgXdXjXjXzXpXlXjXa.#.#.d d [ T s  XN.8.r z ..",
"s i B M.J.B Q V.| N Z @X@XZ s ! ' K fXfXkX:.%.e.q.U 1 L $ & F F L $ zX[.=X=XZ.7 m o.] x  XN.0.j 4 i ",
"^ i B C.b.z  .V.g.a N .XoX8.W R L iXfXpXlX@ %.h r.E 2 1 ;.&.a.U R ` : %.=Xn.^ z b.&XL.s.XX>XR.j z | ",
" .i V J.v.a  .x. .r r N.M.B s R *.fXdXpX# J q , i.q.U ) O.P.E / T Y ! T +X2XL.5.5.<XL.5.XX>XXXj i { ",
"X.l ..n.f.B { z. .a  X7X:Xb.4 R hXsXkX,.H R 4 q q.q.q.w.k.S.r.c V V b S.:X0X4Xv f.!.S.d.G.>XR.v s { ",
" .a Z f.N a b V.z 7 Z 8X7XM.! qXhXdXhX` G { c n q.w.4.7.A.F.h.c 5.5.c h.>X9X;X9.F.+Xx.s.XX:XL.k p { ",
"^ i f.v.B r a g.z z n.3X1XM.q R F P {.U p h.v 8 ! g h e.A.S./ I / c g w.J.>XoXz 8..X..B  X#XZ.9 y x ",
"x l C.J.Z r 7 x y r Z 2X3X&XW ; G : ( r.e.l.j f l g q w.x.x.! I ( ~ 2 r.L.oX@.r r @.M m  X%X+.5 y s ",
"Q x J.#Xv.a t l a t r 7X8X&X! ! { u E r.A.4.f n ^ q q ( c.c.( I g E 2 ) P.C.o.r M Z m B  X%X$.u s { ",
"{ x C.OXv.N i x | V V :X,Xg.W ! e 8 g r.u.w.j k / l 0  .z.s.~ E h ~ E c.*X%Xo.d S b.B B N.N.X.p Q X.",
"z.x M.oXn.C a { i V N @XJ...W W s.C W ( E E c c r.~ p  .0.9.4.4.5.n.! ^ C.b.{ s ..M.| C .X.Xf.s B d.",
"B.| M.+XG...a x | B V 8X8Xk.T W {  .~ / / q g I / T i C 8.5.4.4.0.XXZ k 8.o.a y | m.| j.>X;Xj.i C d.",
"V.| G.-X2X8.B y { i j.5X<Xg.T T { { z s.| i 0 0 ! 0 b A.F.l.q 7 G.G.V b C.K...4 i { x f.J.+Xf.z | B.",
"g.x F.>X4Xv.B d o.i j.5X-Xd.u 5 u y e f.n.B Y 5 5 7 A.2X4XOXs 4 Z n.z z J.&XB.4 s x B o.K.&Xb.s C d."
};
