/* XPM */
static char *_3ef79cbffc14a97b7ad3259838a70a4SUCAoUfuHnFnwD5Z[] = {
/* columns rows colors chars-per-pixel */
"50 50 256 2 ",
"   c #0A0000",
".  c #3E1D11",
"X  c #0F0A2D",
"o  c #2C1A2F",
"O  c #312435",
"+  c #4A2F31",
"@  c #63250C",
"#  c #3D4037",
"$  c #5A473B",
"%  c #74462B",
"&  c #271D56",
"*  c #373646",
"=  c #353050",
"-  c #2E366C",
";  c #17325E",
":  c #4B3B4F",
">  c #563C55",
",  c #27495B",
"<  c #384B5A",
"1  c #2B515A",
"2  c #33505E",
"3  c #2B4C63",
"4  c #294967",
"5  c #334D65",
"6  c #3A4C64",
"7  c #3C4C6B",
"8  c #36486A",
"9  c #265164",
"0  c #2D5264",
"q  c #2D546A",
"w  c #2E5A6C",
"e  c #2B5667",
"r  c #335364",
"t  c #3C5263",
"y  c #34546A",
"u  c #3B546C",
"i  c #345A6D",
"p  c #3B5B6D",
"a  c #385A65",
"s  c #2B4976",
"d  c #334C74",
"f  c #3A4B7C",
"g  c #3B4974",
"h  c #295973",
"j  c #345474",
"k  c #3C5472",
"l  c #355B72",
"z  c #3B5C73",
"x  c #3D5B7A",
"c  c #37567C",
"v  c #3D616A",
"b  c #356274",
"n  c #3C6275",
"m  c #35657B",
"M  c #3D637A",
"N  c #3D6A7D",
"B  c #376A78",
"V  c #2E6077",
"C  c #1D4252",
"Z  c #49444B",
"A  c #54474B",
"S  c #464658",
"D  c #594859",
"F  c #485159",
"G  c #5C5353",
"H  c #65484C",
"J  c #6F524F",
"K  c #6B5C5D",
"L  c #715354",
"P  c #4A4C6D",
"I  c #444A68",
"U  c #435B6B",
"Y  c #485669",
"T  c #555768",
"R  c #464A77",
"E  c #435573",
"W  c #435C74",
"Q  c #4A5C74",
"!  c #445C7B",
"~  c #4A5D79",
"^  c #4A5479",
"/  c #545A7A",
"(  c #564A74",
")  c #645867",
"_  c #675B73",
"`  c #715A66",
"'  c #45636B",
"]  c #576369",
"[  c #436375",
"{  c #4D6374",
"}  c #466974",
"|  c #43647B",
" . c #4A647C",
".. c #436A7D",
"X. c #4B6B7C",
"o. c #4A6A75",
"O. c #51647D",
"+. c #536B7D",
"@. c #576677",
"#. c #47757A",
"$. c #5A707D",
"%. c #776569",
"&. c #766677",
"*. c #6B6C71",
"=. c #7B6557",
"-. c #82523E",
";. c #8C6D5C",
":. c #87747C",
">. c #967A78",
",. c #9F6958",
"<. c #8F827F",
"1. c #AD8F7D",
"2. c #F79D76",
"3. c #DBA17C",
"4. c #E39A7C",
"5. c #3F3D86",
"6. c #3B5887",
"7. c #36498B",
"8. c #3E6581",
"9. c #3D6C83",
"0. c #396A8A",
"q. c #3F7183",
"w. c #3C748C",
"e. c #3F7198",
"r. c #394EA1",
"t. c #475987",
"y. c #535C84",
"u. c #48599A",
"i. c #545B98",
"p. c #504D94",
"a. c #446681",
"s. c #4C6583",
"d. c #446B82",
"f. c #4B6C84",
"g. c #4A648B",
"h. c #456C8A",
"j. c #4B6C8A",
"k. c #45658E",
"l. c #526C84",
"z. c #526D8B",
"x. c #576689",
"c. c #457384",
"v. c #4B7385",
"b. c #45738C",
"n. c #4B748B",
"m. c #4C798C",
"M. c #457989",
"N. c #527285",
"B. c #53748B",
"V. c #59738C",
"C. c #527A8D",
"Z. c #597686",
"A. c #496996",
"S. c #546A95",
"D. c #4D7B93",
"F. c #4A7795",
"G. c #547C92",
"H. c #5A7D94",
"J. c #577796",
"K. c #6A7489",
"L. c #757889",
"P. c #647797",
"I. c #6F6E8E",
"U. c #495CA8",
"Y. c #5A5AA4",
"T. c #5257AF",
"R. c #615FB3",
"E. c #5763A9",
"W. c #5868B6",
"Q. c #5E73B8",
"!. c #5372A5",
"~. c #666EAF",
"^. c #5B6AC7",
"/. c #5D6ECB",
"(. c #666CC5",
"). c #6677C7",
"_. c #6A74D5",
"`. c #9C7D85",
"'. c #89748F",
"]. c #A97783",
"[. c #4C8494",
"{. c #4A8499",
"}. c #558295",
"|. c #5B8395",
" X c #5B849A",
".X c #558A9A",
"XX c #5B8A9D",
"oX c #55849C",
"OX c #4A818E",
"+X c #61859B",
"@X c #62899C",
"#X c #678498",
"$X c #728890",
"%X c #5C8AA2",
"&X c #5987A5",
"*X c #5B93A6",
"=X c #4F91A2",
"-X c #648CA4",
";X c #668AA6",
":X c #6491A4",
">X c #6392AC",
",X c #6B9CAD",
"<X c #6994AA",
"1X c #6A98B5",
"2X c #719DBA",
"3X c #7088AA",
"4X c #71A5B7",
"5X c #7491CD",
"6X c #75A2C2",
"7X c #8A8691",
"8X c #AC9490",
"9X c #8E8DAA",
"0X c #AD98AE",
"qX c #9AA2AF",
"wX c #B5A6AC",
"eX c #A7A3B0",
"rX c #A5A58E",
"tX c #DA9E96",
"yX c #C89A92",
"uX c #E49988",
"iX c #D6A999",
"pX c #D6B79C",
"aX c #E7A68B",
"sX c #F8A582",
"dX c #E5A997",
"fX c #FBB393",
"gX c #D5A6A7",
"hX c #CBAEB0",
"jX c #E7AAA3",
"kX c #E7B8A8",
"lX c #F0B6AF",
"zX c #D7CABA",
"xX c #FDDCB8",
"cX c #F0CCAE",
"vX c #FAE3BD",
"bX c #EAE5BB",
"nX c #B5B1CC",
"mX c #CEB8CF",
"MX c #E5B9C6",
"NX c #DBCDC3",
"BX c #D0CBD5",
"VX c #EAD9C6",
"CX c #FCDDC5",
"ZX c #FADBD7",
"AX c #F1CAC9",
"SX c #FBE2C4",
"DX c #FBEBCA",
"FX c #FCE8D3",
"GX c #F2EBCE",
"HX c #CCC6E2",
"JX c #E8EAFA",
"KX c #EAF3FD",
"LX c #FDFDFF",
"PX c #F8FAFF",
"IX c #FAEBE8",
"UX c #E5DDE9",
/* pixels */
"{ 2 r #...9 3  .! ! H.-XC.| u Q B.m h B #.} U 7 x. ....X*XM.n a [ p i d.v.|.+Xi y  .~ u !  .u y | a.",
"Q 2 a v.c.w y s. .W G.@XC.[ u Q f.d.q.M.#.} W ^ y.s.i b 9.9.n , [ y y ..v.|.|.y , u u u s.l.z y M | ",
"{ a n C.m.i y  . .k n. XB.z 6 Q V.f.8.9.#.X.! R i.t.q b b.n.X.y | i r | m. XH.0 y W u W P.#X| 0 |  .",
"{ U [ C.m.l y  . .y f. XC.z 6 Q ;XS.a.D.C.B.t.p.u.t.4 b b.n.l.W X.z y | C.@XG.0 y z u  .#X;X| 3 z  .",
"U t p M.c.l u  . .y ..G.v.z 6 ~ P.S.k.&XB.g.u.W.W.Q.k.j 6.j.V.E  .z 0 M |.:X}.q 0 y y  .;X<Xf.q [  .",
"u r i c...i 5 E W 3 n M...i 6 ~ 3XS.6.S.k.S.W.5X).).Q.A.A.A.z.W W z 3 n  X<X Xl y y y W +X+X..q y u ",
"u y n c.c.i 5 u E 5 ..G.m.| u E x.t.- 7.s u.U.^./.^.W.).Q.A.t.k z z q m %X,X Xn n z 3 y B.C.l , |  .",
"t y n m.M.n u k E u G.<X<XH. .E k g.u.W.U.Q.W.W.^._././.^.W.S.z | | w ..-X,XoXm m.a.y z  X@Xc.b z [ ",
"y y n N ..n y  .~ W M }.}.B.! ! s.f Q.^.(.W.Q.r.r.).^.^./.).s ! f.a.z d.XX,X:Xb | | z M +X:Xc.i |  .",
"u r i w b z y  . .z l m.m.v.k k V.c )._.Q.W.).E.U.W./._././.!., x | l d.-X2X%Xl f.f.n M H.XXc.n | | ",
"W z M N c.v. .O.l.[ z }. XH.s.! z.g.E.R.R.i.E.~.7.- (._.^.(.S.; s.J.a.d.-X2X&Xb ..a.z z v.m.n i | f.",
"z y m m.|.B.z Q  .p z  X:X-Xs.! z.- E.~.- R S.t.f - p.R.(.(.u.d j z.M 8.-X,X}.x l z i l v.c.w 9 M | ",
"z 3 b .X:Xv.5 Q ~ u l  X>X-Xj.s.z.y.X & HXnXO = / - - & Y.p.u.6.; x c f.<X2X X8.l z y z C.m.b 9 l M ",
"f.q N :X,Xv.r l.l.W z |.XX|.s.z.S.x.I.&.+   X ( I.= 0X= p.Y.E.A.d x j 8. X%XG.M M x y z C.C.B l d.n.",
"a.y N XX:X| 5 l.O.E l G.D.h.x s.P.y.: 8XhX=.:.* ( : BX> ( ~.7.u.t.x 4 j j.m.f.q | | y l B.m.n l n.G.",
"a.l b.%X%X..r +.O.[ N %XoXn.M g.~.x.T NXCX8XZXO _ '.:.> S y.E.U.u.f d j.-X;XH.l | | z z B.M.b i d.v.",
"[ z D.>X&Xa.u +.N.y h.*X&X>XM s.&XS./ L.NXFXZX+ L '.o D P g W.T.Y.p.- d J.+X|.d.M f.l l n.v.i i ..v.",
"p y n.>X;Xf.y +.[ z m 0.F.9.3 [ J.j.~ L.<.zXgX. H 0X: o : R E.U.p.i.f d a.v...i | s.j q f.d.i e M a.",
"p 0 b.1X1Xj.u l.p i 9.F.oXf.E Q N.[ Q L.7X` L `.`.8XwX:.Z P 5.R.Y.i.f d j.H.m.i M j.j 4 M d.w 9 q z ",
"[ 0 v.2X2XD.z B.l.0 n.>XH.N.t < Y Y Y K.7X'.IX` ZX>.zXIXNXO R Y.i.i.f k a.v.C.d.j.H.f.z n.G.N i z a.",
"o.a m.6X6XJ.| V.Z.y d. Xf.+.* *.] ] nXJXJX_ &.BXwXhXVXGXVX8X: ( i.t.8 k f.B.c.n n. Xz.| G.|.N w ..B.",
"X.p D.2X6XD.| B.X.| a.f.l.Q : 7XqXL.LXHXJXLXLXLXBXwXNXzXFXVX+ I.^ ^ 4 k v.c.n 0 f.H.f.| G.G.l 9 | n.",
"o.p G.2X2XF.8.B.N.| a.| { < K &.* nXJX9XLXJXLXPXLXmX%.FXvXDX1.: = E | z i i p a f.V.f.a.|.H.B w a.B.",
"' v G.1X1XF.8.B.H.3 z  .{ F hX:.) nXnX7XLXPXKXLXLX0XK VXvXxXxX+ T V. .p N.@XC., n ..z z C.m.l w a.B.",
"v a D.>X&XF.M ..| n l N.+.* %.:.I.'.9XL.UXKXBXLXLX9XhX$ xXvXxX$ ]  .y p C.|.X.p p W y | m.N b e M a.",
"1 1 n.>X&XF.M f.v.z i +X$XT A + : I.9XP.qXJXHXHXmX0XhX1.vXxXFX$ Y [ y p C.H.n 3 [ X.p [ c.d.N l q z ",
"a r n.%X&Xb.| N.#X| l B.l.Y Z A L.I / K.K.KXLXeX0X`.J CXDXSX<.A Q } p | @X;Xf.i [ X.p n d.M.m.b.l | ",
"' a b.&XF.9.z X.Z.| v.|.f.{ S T Y Q E I qXPXLX0XAXZX% pXcXVX%.S { [ a n +X;Xf.i [ N.[ n ..m.D.b.l | ",
"a r v.%XoXv.[ +.Z.[ n.%XG.Z.< F +. .E O.@.*.>.8XlXCXSXcXvXrXS 6 o.} a M  X-Xa.0 [ N.[ [ c.m.b.m z f.",
"' 0 M D.n.| [ +.Z.[ b.D.b.n.p U  .z y $.] NXVX=.yXCXSXCX;.zX@.k U p y M -X<Xs.3 a o.' [ C.}.D.8.M f.",
"} 1 l 8.m y 2 U a p D.{.F.m p y z a.3 ' *.VXvXpX-.iXiXkX$ # K.k y r , z -X>Xh.4 y [ a } |.XXoXb.l | ",
"} y d.oX|.f.p U p p b.w.w.h y 3 M 3 U $XrXbXvXxXxXlXdX-.. 8X*.T ] ] Y Q ;X<Xv.y [ } U X.|.%XoXb.j | ",
"Z.z d.-X|.| W Q [ i B [..Xc.z p t Y { T GXSXcXxXxXcX@ aX3.% dX;.. L A ) #X@Xz M p } ' } *X*X&XF.l d.",
"f.i z m.v.z u  . .i B [..X9.z p Z.< T ) VXSXDXxXcX1.aXaX4.fXuXdXjXkXgX+ @.n | q n X.' p [.{.&Xb.l d.",
"f.z l c.v.l u s. .z N .X.X9.z z M X.F 8XSXvXcXzXJ >.jXlXaX4.lXjXtXgXgXD K.f.z.u W o.Y < ..9.9.s M c.",
" .z M C.|.n y s. .z q..X.XN u z 8.o.K iXxXxXFXG T D 8XiXiXlXgXgXlXkXgX&.K.z.j.| E O.Y t v.d.8.4 l d.",
"u p M G. XM y s. .l N .X.XN y W g.I @ sXfXaX%.< / P A A + $ D D H H mXD 3Xj.s.k k [ Y U G.b.h.j l ..",
"u y z C.G.n E V. .l N .X.X..u ! S.S uXsX2.dX7X! g.^ S *.7XqXL.S ) %.O _ P.<XJ.4 M f.Q E G.M.h.j , y ",
" .y n C.n.z  .V.f.l b [..X..z ~ O.D 4.2.sXiXI 6.6.^ I T @.P.P./ $.S _ E G.{.h h.b.XXV.| [.{.D.j i ..",
" .y M D.d.i  .V. .q w M.m.n u Q T H aX2.dX<.u s t.g ^ P V.S.t.^ E Z.6 ~ %X*XF.h m .XG.b [.=X{.q y | ",
"X.z d.n.d.n W l.| q q.4X,Xd.u T H yXaXfXgXZ k s t.^ P ^ A.!.g.f ! W E z.*X4X>Xm 9..Xn.N {.=XF.l i [ ",
" .y N d.n l z B.z q M.4X,X..u T J jXdXtX;./ 4 f ^ P P ! A.!.k.c a.! k f.%X*X&XV b.XXv.N {.*XG.l u [ ",
"W y d.c.b q y f.y 9 q.,X,XC.l.&.gXjXjX]._ / 4 g P P I ! e.e.0.c 8.x 7 s. X%XH.x d.G. .M D.XXB.8 r z ",
"z z m.}.N q 3 z l 9 N >X,XG.E S 8XyXMX` P k ! 8 P I 7 x h.A.6.d c k 8 y.H.}.N.z l s.E W G.|.l.6 6 p ",
"W z G.XXc.i 3 z z q q.,X4X|.E = A O * ^ s.t.y k ^ I g t.S.x.^ R j j 7 y.H.B.[ y p f.E W C.G.l.7 u | ",
" .z C. Xc.b y z z q N *X:XB.O./ F T E S.c c 8 7 y.R f t.x.y.( P d x 7 s.|.C.| p [ N.W W m.m.s.E W X.",
"f.z m.}.n.m i [ a.w b .XG.z 7 Y +.6 s 6.g.7 6 E t.6.6.t.s.Q P E x h.x  .C.M.n v N m.n M OXOXX.u W f.",
"B.| m. XD.N i z | q 9.2X4XH.Q Y Q ! A.6.x k < 7 t.6.6.k.| u I E b.{.| z c.B e 1 N M.M c.XX.Xf.y [ f.",
"B.| F.%X>X9.n a [ y h.2X-Xf.U t { [ c 8.M y t 6 W 8 6.A.F.a.r 2 m.D.M z C.}...C i n n ..}.|.f.z | N.",
"f.z F.*X>Xc.n a [ y h.2X&Xf.t < t r q 9.v.n p < 6 3 j.>X1X Xp , | d.l l G.@XB.3 p n n ..H.|.f.z z f."
};
