/* XPM */
static char *bd075e61e9e641b5aaf269574da193cb78o7HNiZiNzFVvSs[] = {
/* columns rows colors chars-per-pixel */
"50 50 49 1 ",
"  c #010101",
". c #080707",
"X c #0D0C0C",
"o c #100F0F",
"O c #131212",
"+ c #181717",
"@ c #1D1B1B",
"# c #201F1F",
"$ c #232121",
"% c #292727",
"& c #2D2A2A",
"* c #312D2D",
"= c #363434",
"- c #3C3939",
"; c #423D3D",
": c #454242",
"> c #4E4A4A",
", c #534D4D",
"< c #575151",
"1 c #5A5454",
"2 c #5E5A5A",
"3 c #635D5D",
"4 c #645F5F",
"5 c #675F5F",
"6 c #676262",
"7 c #696161",
"8 c #6C6363",
"9 c #6B6464",
"0 c #6C6464",
"q c #6F6868",
"w c #706767",
"e c #726A6A",
"r c #736E6E",
"t c #776F6F",
"y c #777070",
"u c #787171",
"i c #7B7474",
"p c #7D7777",
"a c #7F7878",
"s c #807A7A",
"d c #837D7D",
"f c #857F7F",
"g c #878181",
"h c #888282",
"j c #8B8484",
"k c #8C8686",
"l c #8E8888",
"z c #918B8B",
"x c #938D8D",
/* pixels */
"750kg7777i5O*7750jh05ep=O,70kg7777i5O*77pzy577ep- ",
"7epsu750pf5O*77epsu7tsa=O,tpsu750pf5O&7usae57tsa- ",
"0aly707ull5O*00plu70fzs=O<dly707ull5O*ekf0970fzs- ",
"pdhspppshj6O-padhsppfjd=O6hhspppshj6O-ahfppppfjd- ",
">>>>>>>>>,-.$>>>>>>>>>>#X;,>>>>>>>,-.$>>>>>>>>>>$ ",
"XXXXXXXXXX. .XXXXXXXXXX. .XXXXXXXXX. .XXXXXXXXXX. ",
";;;;>2>;;>;X@;;,2>;;;:,$.=:;;>2>;;>;X@;;,2>;;;:,$ ",
"870tsht0uf6O*0udht70tps-O<00tsht0uf6O*0udht70tps- ",
"770hfq7tkk5O&ejf0770dzs=O,00hfq7tkk5O&ejf0770dzs= ",
"iupjhiuskl6O-pkguuiphlf-O5apjhiuskl6O-pkguuiphlf- ",
"5555555556>X&5655555565%O,655555556>X&5555555565& ",
"OOOOOOOOOOX .OOOOOOOOOO. XOOOOOOOOOX .OOOOOOOOOO. ",
"&-:=&**&&-&.O**&*;;*&*-+.$-:=&**&&-&.O*:-****&*-+ ",
"qaje5777qp5O*777egd09tp=O1dje5777qp5O*tjs77770tp- ",
"lde0777tjk6O*77ujp00sks=+the0777tjk5O:hi07778sks- ",
"xftttttall6O=tydlptuhzf=+yhtttttall6O:lpttttuhzf- ",
"yrrrtttttu1O=tyttttttyr*O2utttttttu1O=tyttttttyr= ",
"$$$$$$$$$$+.o$$$$$$$$$#X.+$$$$$$$$$+.o$$$$$$$$$#X ",
"@@@@$&$@@$@.X#%%@@@@@#$O.+@@%%@@@@$@.X@@@@%%@@#$O ",
"3333rge35t2O&7fi533339t=o>57sp5335t2O&3536sa537r= ",
"770sfpeefj6O;gst8770pjd-O<pgst07tfj6O*78ygst07ea- ",
"eetkge0izl5O:lu0eeeegxd=O1flu0eeizl6O=eeali0eeya- ",
"pipsapipsf5O-saippipadp=O5dspipipsf5O-ipaspippap= ",
"=-====-==-%.+=--=======O.&-=======-%.+=-===-==-=+ ",
"OOO+OOOOOOO .OOOO+OOoOO. XOOOO+OOOOO .OOO+OOOOOO. ",
",,<rq<,,,5,X%,<,<eq<,15&X:<,,5y5,,5,X%,,6y3,,,15& ",
"8tsfp07esh6O*80tsfp0ufd-O<00pfftesh6O*0pfft70ufd- ",
"0aly707ull5O*00plu70fzs=O<0ejg07ull5O*ekf0970fzs- ",
"pdhspppshj6O-padhsppfjd=O6sagfppshj6O-ahfppppfjd- ",
">>>>>>>>>,-.$>>>>>>>>>>#X;,>>>>>>>,-.$>>>>>>>>>>$ ",
"XXXXXXXXXX. .XXXXXXXXXX. .XXXXXXXXX. .XXXXXXXXXX. ",
";;;;>2>;;>;X@:2<;;;;;:,$.=;:11:;;;>;X@;;;:11;;:,$ ",
"870tsht0uf6O-pjs0770tps-O<tphs07wuf6O*80euhs0eps- ",
"770hfq7tkk5O:ky77770dzs=O,sku777tkk5O*77iku70dzs= ",
"iupjhiuskl6O:ksuiiiphlf-O5hkauiuskl6O-ipfksuphlf- ",
"5555555556>X&5655555565%o,655555556>X&5655555565& ",
"OOOOOOOOOOX .OOOOOOOOOO. XOOOOOOOOOX .OOOOOOOOOO. ",
"&-:=&**&&-&.O**&*;;*&*-+.%**&-:-&&-&.O*:-****&*-+ ",
"qaje5777qp5O*777egd09tp=O,070pjt7qp5O*tjs77770tp- ",
"lde0777tjk6O*77ujp00sks=O,00fft7tjk5O:hi07778sks- ",
"xftttttall6O=tydlptuhzf=O3uukhttall6O:lpttttyhzf- ",
"yrrrtttttu1O=tyttttttyr*O2urttttttu1O=tyttttttyr= ",
"$$$$$$$$$$+.o$$$#$$$$$#X.@$$$$$$$$$+.o$$$$$$$$$#X ",
"@@@@$&$@@$@.X@@$&$@@@#$O.+%&$@@@@@$@.X@@$&$@@@@$O ",
"3333rge35t2O&35tf03339t=o,if033335t2O&35tf03339t= ",
"770sfpeefj6O*0ffpe70pjd=Oqhu0777tfj6O*0ffpe70pjd- ",
"eetkge0izl6O*tlfeeeegxd=+ihe0eeeizl6O*tlfeeeegxd- ",
"pipsapipsf5O-psapiipadp=O9dpiiiipsf5O-psapiipadp= ",
"--------=-%.+---------=O.&-------=-&.+---------=+ ",
"                                                  "
};
