/* XPM */
static char *_ad036f8b9fb4bd3ad0ab207e9efe64cTk0FSlsTjIJKf9wF[] = {
/* columns rows colors chars-per-pixel */
"50 50 208 2 ",
"   c #0E110E",
".  c #12150F",
"X  c #171914",
"o  c #1B1B1B",
"O  c #201F1F",
"+  c #1B211A",
"@  c #22221E",
"#  c #26291B",
"$  c #242B1C",
"%  c #28341B",
"&  c #0A1F29",
"*  c #162327",
"=  c #0C2734",
"-  c #142732",
";  c #17323D",
":  c #252423",
">  c #292726",
",  c #262A26",
"<  c #292C25",
"1  c #2C2B2B",
"2  c #302F2E",
"3  c #243524",
"4  c #2C3325",
"5  c #2E3B21",
"6  c #2E312A",
"7  c #31332D",
"8  c #343B2B",
"9  c #293939",
"0  c #343433",
"q  c #373B31",
"w  c #3A3A35",
"e  c #343839",
"r  c #3C3C3B",
"t  c #463B27",
"y  c #334324",
"u  c #3F4327",
"i  c #374A25",
"p  c #394D26",
"a  c #364329",
"s  c #39452D",
"d  c #3B4C2C",
"f  c #3C5227",
"g  c #3E532B",
"h  c #3D5C2B",
"j  c #2A463B",
"k  c #3B4333",
"l  c #3B4736",
"z  c #365D36",
"x  c #3E6438",
"c  c #41572D",
"v  c #435B2B",
"b  c #4D5E2F",
"n  c #505C2F",
"m  c #444B3B",
"M  c #544834",
"N  c #435432",
"B  c #465B32",
"V  c #495A36",
"C  c #4A5D34",
"Z  c #545C3A",
"A  c #6A5D3A",
"S  c #73593C",
"D  c #46622D",
"F  c #49652E",
"G  c #4B692F",
"H  c #4C6533",
"J  c #4B6930",
"K  c #4D6A33",
"L  c #4E6A34",
"P  c #4E6936",
"I  c #4E6439",
"U  c #4C683C",
"Y  c #546637",
"T  c #506B37",
"R  c #516B38",
"E  c #526C3B",
"W  c #536C3B",
"Q  c #536C3C",
"!  c #546C3D",
"~  c #556D3F",
"^  c #686338",
"/  c #726A3B",
"(  c #66703E",
")  c #0C3346",
"_  c #173942",
"`  c #073853",
"'  c #233943",
"]  c #073F61",
"[  c #1C4449",
"{  c #1B5259",
"}  c #244D45",
"|  c #384848",
" . c #1C6157",
".. c #336949",
"X. c #2F7050",
"o. c #07476B",
"O. c #055776",
"+. c #245E7F",
"@. c #096A7B",
"#. c #167576",
"$. c #356F6E",
"%. c #454443",
"&. c #4C4C43",
"*. c #4A5645",
"=. c #5A5746",
"-. c #4D5556",
";. c #5A5C54",
":. c #685C43",
">. c #725D46",
",. c #685E51",
"<. c #42664F",
"1. c #556D41",
"2. c #566D41",
"3. c #5A6947",
"4. c #5C6458",
"5. c #676846",
"6. c #7A6548",
"7. c #697343",
"8. c #777648",
"9. c #746D55",
"0. c #456D70",
"q. c #6A6D66",
"w. c #697260",
"e. c #787564",
"r. c #855F3C",
"t. c #815F40",
"y. c #886A46",
"u. c #8A6C4C",
"i. c #9A764C",
"p. c #8A7559",
"a. c #957A5A",
"s. c #AC7948",
"d. c #887A67",
"f. c #7F8252",
"g. c #938557",
"h. c #A8884B",
"j. c #A5875C",
"k. c #B68A59",
"l. c #98846B",
"z. c #88837A",
"x. c #9C8E7E",
"c. c #AD916C",
"v. c #B6996A",
"b. c #A89478",
"n. c #B89D79",
"m. c #C3864D",
"M. c #C59C56",
"N. c #E39D56",
"B. c #D8A75E",
"V. c #EEAE5D",
"C. c #C69B6C",
"Z. c #C19A71",
"A. c #D9A369",
"S. c #D3B27E",
"D. c #E8AE6D",
"F. c #F3B967",
"G. c #E5B575",
"H. c #F3BC70",
"J. c #FBC46A",
"K. c #F6C170",
"L. c #076982",
"P. c #097988",
"I. c #036799",
"U. c #2D6584",
"Y. c #32758E",
"T. c #026FA8",
"R. c #1778A8",
"E. c #046DB2",
"W. c #0175B8",
"Q. c #007CD2",
"!. c #168689",
"~. c #1E9B94",
"^. c #33858B",
"/. c #3F8A99",
"(. c #1998A1",
"). c #0581BE",
"_. c #0991B7",
"`. c #43879B",
"'. c #0289C5",
"]. c #049BC7",
"[. c #0184D3",
"{. c #018AD8",
"}. c #008BD9",
"|. c #0094DD",
" X c #03A8CC",
".X c #0BB1C6",
"XX c #03A2D2",
"oX c #02B7D4",
"OX c #0098E4",
"+X c #01A6E7",
"@X c #01B6EC",
"#X c #07C3D8",
"$X c #04C9EA",
"%X c #00C6F4",
"&X c #02D7F7",
"*X c #05E5FF",
"=X c #AA9B8A",
"-X c #BBA385",
";X c #B3ABA7",
":X c #D4B58A",
">X c #CBAF92",
",X c #D9BC98",
"<X c #E5BB82",
"1X c #C6B9AC",
"2X c #EEC686",
"3X c #DDCDBA",
"4X c #EDCEA8",
"5X c #D0C9C3",
/* pixels */
"G G K ! E J G G G E ! K G G G G G G G G G L ! T K ! R G G G G G G G R ! K R ! K G G G L ! L G G G G ",
"T K K ! E K L L K L T K G K L L K L L J G L ! R K ! R K L L K L L K E ! K R ! K K L K K T K K L K G ",
"2.R K E R K E Q K G J K G K ! R K Q E J G K Q L J E R K Q E K E Q K R Q K T Q K L ! L G K G L ! T G ",
"2.R J K K K Q Q K G K E L K ! E K Q R F D F K D v H K K ! E K E Q K K K J K K J T 2.L K E L L ! R G ",
"R L K L K K T T J G K ! R K R L K ! R v c c D g i v D K E T K Q Q K K L K G G G L R K L 2.L K ! R G ",
"K J K Q E K G K K G K ! R G K F F R H p a d v s 7 i v J G G K E E K R Q K G K G K K G L ! L K ! T G ",
"E L K ! E J G K R L K L K K T B i c g 5 8 s g l w s N H v v G K K K E ! K L R K L R K L 2.L K L K G ",
"2.R K ! E G G L 2.T G G G K R N 4 i y $ 7 q y k r k m N i p K K G G T R K R ! K T 2.L K R L G G G G ",
"2.R K Q E J G L ! T G G G J I N 7 8 6 : q q $ 6 r %.m s 4 s U L F G K K G R ! K L ! L G K K G G G G ",
"2.R K L L G G K L K G G F D c s 0 w 0 , 0 0 @ 1 r %.w < 6 l V c v L K G G R ! K K L K K R K K R L G ",
"! T G G K K K G G G K K F v y 4 0 r e 1 0 0 : 1 r %.7 + 7 k s y i I L G G T E K G G G L ! L K ! R G ",
"K K G G L Q L G G G K Q H p $ @ 1 r r 1 0 0 1 1 0 r 1 o 0 q < 4 k V L G G K K J G G G L ! L K ! R G ",
"G K T K L 2.L K T K K ! H i $ : 1 0 0 1 1 2 1 1 2 0 1 : 0 6 : 7 k c D G G G G G K T K L 2.L K T K G ",
"G T ! K L ! L L ! T K ! B y < > > 1 1 > 1 1 > 1 1 1 1 > 1 1 > 0 k p v G G K K G T ! L L Q L G G K K ",
"G R ! K L ! L L ! T K ! B 5 : : : > > : : : : : : > : : > > > 0 q i v G G T E K T ! L J K K G G T ! ",
"G R ! L K R K K R K K R g % o X o o * * - ; ; ; _ _ _ _ [ [ [ [ j f F L K R ! K K R K G G K K G R 2.",
"G T ! K G G G G J J K J f 3 * & = = ) ` ] o.O.O.O.@.L.L.P.P.P.@. .g I ! K R ! K G J K J K E E K R 2.",
"G K K K G G G G J L R H z  .L.I.I.I.T.T.E.W.'.'.]. XoXoX#X#X#X.X!.z I ! K R ! K G K R R K E ! K K L ",
"G G G K K J K K K Q ! H X.#._.}.[.[.}.}.{.{.OX+X@X%X&X&X*X*X*X$X~.x F R K L R K G K ! Q K L R K K L ",
"G G K Q R K E E K R Q H X.!.].|.Q.Q.[.}.[.Q.{.|.+X@X$X%X&X&X&X#X~.x D K G J G K G K Q E K K K G R ! ",
"G G K ! E K Q Q K K K F X.!.XXOX[.[.).R.R.E.E.W.'.'.].]. X.X.X(.$.U H G G G K R L K L K K L T K K L ",
"L K K R T K Q Q K K K F ..#._._.R.R.Y.0.$.U.+.U.Y.`.`./.^.^.^.$.<.2.L J K K K ! E G G G J E ! K G G ",
"! R G K K K E Q K R Q J z } $.0.4.=.>.y.u.6.>.6.l.-X-Xb.p.6.y.A Z Q L K Q T K ! R J G G K E Q K G G ",
"2.R G G G G L L G E ! K h g =.u.s.s.i.a.a.u.t.r.i.Z.Z.j.y.y.u.^ Z 2.L K ! R K L K K L L K L L G G G ",
"! T G G K K K G G E ! K F Y y.m.N.N.C.=X=Xx.d.6.u.v.c.a.d.d.d.5.I E L K ! R G K G K Q Q K G J K K G ",
"K K G G L Q L G G E Q K ( g.v.A.N.V.G.,X3X5X=Xz.l.:X:X-X1X;Xz.3.F K K K ! R K E T K Q Q K G K Q L G ",
"G K L K T 2.L G G L L J 7.j.S.G.D.F.K.2X4X4X>X-Xn.:X:X,X3X1Xx.5.D G G K T K K ! R K Q Q K G L ! R G ",
"G T ! K L ! L G G K J G ( g.S.<XG.F.J.J.H.D.A.A.C.c.n.:X,X>Xb.7.D K K J K J K ! R K E R K G L ! R G ",
"G R ! L K K K G G T R K Y 8.v.v.j.B.J.J.F.A.k.i.>.=.,.d.-X-Xd.! H R L K R L K ! E K K K G G L ! R G ",
"G L R K G G K L K E ! K L 3.f.8./ h.M.M.h.y.S M w 0 %.;.d.e.=.H H V H H R L K R L G G K L K K R L G ",
"G G K K G K E E K R Q K T ! T G G ^ / A t # @ > 2 0 %.&.=.m y v v d c F G K K G G G G L ! L G J K K ",
"G G K R T K Q ! K K L G K L F F F Y V u # o o o > 1 r m k s f c N d c F G L R K G G G L ! L G G L Q ",
"G G K ! E K R T G G J K K G K K K U B i 5 $ o o O > 7 q a g c *.*.N v G G R ! K K L K L ! L G G L Q ",
"G G K ! E K J K G G K ! T K Q R K R R F c 5 @ o o : 4 i v N m 4.4.B D G G R ! K L ! L L ! L G G K K ",
"G G K ! E J G G G G K ! R K ! E K L L J c a > o o : 4 y g 3.q.q.3.H F G G R ! K T 2.L K L K K R L G ",
"G G K R R K K K G G K ! R K R R J K K F N 8 , : : > < 8 N w.z.w.2.L K G G T E K L E K J K J L ! R G ",
"G G G K K K R E K G K ! R G K K G R R F N q > : : > , q :.9.e.3.L E L G G K K J K K G L Q L K ! R G ",
"G K T K G K Q ! K G K L K K L L K L L b 5.6.=.| ' e r &.6.6.3.L L 2.T K T K K L L G G L 2.L K ! R G ",
"G R ! L G K R E K G J K K K ! R J K F n g.v.p.-.{ | *.;.5.^ F D L Q L K ! R K ! R G G L Q L K Q L G ",
"G R ! L G G K K G G K E L K ! R K R L n i.k.6.| ) 9 9 | Z Z F G K K K K ! R K ! E G G K K K K K K G ",
"G L R K K L K K L K K R L K Q R K E I b 8.y.M , & + 3 l B H F K L G G K R L K ! E K L L G G G G K T ",
"G K K G L ! L K ! T G J G J R L F I I D C N $ .   . % g v v D I I F F F F F K Q R K Q E G J K G R 2.",
"G L R K L 2.L L 2.L K R L F H D v C B v N a X . X X $ i g c g B C v H L F F F K K K ! Q K T R K R 2.",
"G L R K K R K K R K K E L D v v v c g f d a + X o + $ 5 s d p N N v B I D H H F F J R T K E ! K R 2.",
"G K K J G K K J J G J E L D v v g f p i p a % $ $ $ % % s i i g N g B C D L E H F G J G K E Q K R 2.",
"G L R K G G T T J G K E L D D v B c f f p p y y y a i y d d p g g c C I F L E K K R K G K E ! K K L ",
"G R ! L G K Q Q K G K R L F D H I B v c v f f f g N N g c c v c v v H L F L E K L ! L G G T R K K K ",
"G T ! L G K Q Q K G J J J G F L E H H I H D v v v I H v D D D I I F F F F R E K L ! L G G K K G R ! ",
"G K L K G K Q Q K L T J G G G L ! L L Q L H L H F L H F L L H R E K L L K K L K K L K K R K G G R 2.",
"G G G G G K Q Q K R ! K G G G T ! L L ! L K ! R G G G K ! E K E Q K R ! K G G G G G G L ! L G G R 2."
};
