/* XPM */
static char *Untitled__11_1707909681[] = {
/* columns rows colors chars-per-pixel */
"50 50 249 2 ",
"   c #3A3237",
".  c #362724",
"X  c #4F3838",
"o  c #74352C",
"O  c #6A4938",
"+  c #4A453F",
"@  c #1B2D5A",
"#  c #28365D",
"$  c #322D4F",
"%  c #283964",
"&  c #363376",
"*  c #483958",
"=  c #57374C",
"-  c #753C46",
";  c #6A2F41",
":  c #4F3769",
">  c #194C5D",
",  c #2C4A5E",
"<  c #25495A",
"1  c #384A5B",
"2  c #31545D",
"3  c #1D5263",
"4  c #2C4D63",
"5  c #2A4967",
"6  c #324D64",
"7  c #3A4E65",
"8  c #334B6C",
"9  c #3A4B6D",
"0  c #37456D",
"q  c #2D5366",
"w  c #2D546A",
"e  c #2D5A6C",
"r  c #265567",
"t  c #335266",
"y  c #34546B",
"u  c #3B556C",
"i  c #345A6D",
"p  c #3C5A6D",
"a  c #365765",
"s  c #354B73",
"d  c #3C4D73",
"f  c #374678",
"g  c #2F5874",
"h  c #365672",
"j  c #3B5473",
"k  c #355B72",
"l  c #3B5C74",
"z  c #3C5D7A",
"x  c #38587B",
"c  c #2B4974",
"v  c #2A626B",
"b  c #37616B",
"n  c #356274",
"m  c #3C6275",
"M  c #3B6B76",
"N  c #35657A",
"B  c #3C637A",
"V  c #3C6A7C",
"C  c #336A78",
"Z  c #49464A",
"A  c #4B4958",
"S  c #515157",
"D  c #695557",
"F  c #6B494D",
"G  c #474B69",
"H  c #41546A",
"J  c #47596A",
"K  c #585969",
"L  c #424D75",
"P  c #474A76",
"I  c #425474",
"U  c #435C74",
"Y  c #495C75",
"T  c #44557B",
"R  c #435C7B",
"E  c #4A5C7C",
"W  c #4D5573",
"Q  c #55597B",
"!  c #504C65",
"~  c #645967",
"^  c #73546D",
"/  c #436276",
"(  c #43647B",
")  c #4A637C",
"_  c #436B7D",
"`  c #4A6A7D",
"'  c #4A6775",
"]  c #56657A",
"[  c #47727E",
"{  c #56696E",
"}  c #616479",
"|  c #776B79",
" . c #894836",
".. c #895434",
"X. c #87464E",
"o. c #8C777B",
"O. c #956A71",
"+. c #AE7075",
"@. c #9F5B61",
"#. c #CB7374",
"$. c #B98766",
"%. c #C48E71",
"&. c #3B3E81",
"*. c #394D84",
"=. c #3C5884",
"-. c #3B4F9A",
";. c #3D6C82",
":. c #3E6083",
">. c #3D7487",
",. c #3E58A5",
"<. c #4B5C83",
"1. c #465A88",
"2. c #535D86",
"3. c #434697",
"4. c #4C539D",
"5. c #4C5C9C",
"6. c #465A97",
"7. c #555B99",
"8. c #524B90",
"9. c #446581",
"0. c #4B6483",
"q. c #446B82",
"w. c #4B6B83",
"e. c #4B6B8A",
"r. c #48678B",
"t. c #536B83",
"y. c #536C8B",
"u. c #576688",
"i. c #457284",
"p. c #4B7385",
"a. c #447389",
"s. c #4B748B",
"d. c #4C7A8D",
"f. c #447989",
"g. c #53748B",
"h. c #537B8D",
"j. c #57748A",
"k. c #496495",
"l. c #576996",
"z. c #4D7B91",
"x. c #4F7591",
"c. c #537294",
"v. c #537C92",
"b. c #5B7D94",
"n. c #5A7E99",
"m. c #5B7494",
"M. c #6D6986",
"N. c #647794",
"B. c #6F728C",
"V. c #4C5CAA",
"C. c #4957A6",
"Z. c #5557A8",
"A. c #4D57B1",
"S. c #5659B5",
"D. c #4A4BA4",
"F. c #4D63A4",
"G. c #5666A7",
"H. c #5C6BBB",
"J. c #5765B6",
"K. c #5A6FB4",
"L. c #616CBC",
"P. c #6474BA",
"I. c #6B6AAC",
"U. c #685885",
"Y. c #5E6BC3",
"T. c #5D67C6",
"R. c #5D71C8",
"E. c #636EC5",
"W. c #626CCB",
"Q. c #6473C4",
"!. c #6572CB",
"~. c #6A78C7",
"^. c #6873D2",
"/. c #656FD1",
"(. c #825C81",
"). c #8F7C8A",
"_. c #B77B88",
"`. c #A27882",
"'. c #C67987",
"]. c #CC718B",
"[. c #4B8595",
"{. c #548394",
"}. c #5B8495",
"|. c #558399",
" X c #5B859A",
".X c #558A9A",
"XX c #5C8A9D",
"oX c #568897",
"OX c #56848D",
"+X c #628395",
"@X c #62869B",
"#X c #628A9D",
"$X c #6A889B",
"%X c #71848B",
"&X c #5D8CA2",
"*X c #5D85A3",
"=X c #5C90A8",
"-X c #638CA3",
";X c #688CA7",
":X c #6392A4",
">X c #6992A6",
",X c #6493A9",
"<X c #6D9AAC",
"1X c #6998AC",
"2X c #7698A6",
"3X c #6A9BB2",
"4X c #689AB1",
"5X c #7298B7",
"6X c #71A1B6",
"7X c #76A3BB",
"8X c #6DA1B5",
"9X c #739EC0",
"0X c #97878F",
"qX c #B3908E",
"wX c #9593AB",
"eX c #928FAB",
"rX c #A99AA7",
"tX c #B09EAD",
"yX c #B4ACBB",
"uX c #B2A8B4",
"iX c #CEA991",
"pX c #E9B799",
"aX c #F4BB94",
"sX c #D6B7A7",
"dX c #CAB4B9",
"fX c #D0AFB1",
"gX c #E6AAA9",
"hX c #EEB6AC",
"jX c #D99C99",
"kX c #F9C49A",
"lX c #EEC99F",
"zX c #DFC1BF",
"xX c #FAC9A7",
"cX c #FFD8B9",
"vX c #F1CBB1",
"bX c #FFE1BD",
"nX c #BBAFC3",
"mX c #CAB8C8",
"MX c #FFDCC7",
"NX c #F8DEDA",
"BX c #E7CEC7",
"VX c #FFE5D6",
"CX c #FFE0C0",
"ZX c #D2D0E7",
"AX c #EDDAE6",
"SX c #FAEBF8",
"DX c #FBF7FF",
"FX c #EBE1FA",
"GX c #CCC7DB",
/* pixels */
"' 1 2 [ V 4 , / R R }.-Xh.' u J j.q q.:.c.r.m y ` p 9.,X;X{.b e / p i _ p.}.@Xi a _ Y u / ' i y / ( ",
"' 1 a [ i.e t w.) R v.@Xh./ 7 Y h.' x r.r.c.m z ` / k :.x s.b < m i i _ p.}.}.t < p u a ` p.l t ( ( ",
"' a / h.d.i u ) ) j g.@Xg.l 7 Y j.h.=.c.c.k.h l e.x c =.r.s.M 2 / a t m d. XOXq y l u U N.+X_ q ( ) ",
"] u / OXd.n y ) ) y w. Xh.l 7 Y j.c.r.k.G.*.1.( 9.s c k.c.c.[ b _ m i V OXXXh.t t p u / $X;X/ , l ( ",
"J a b p.p.i i ) ) t q.{.p.l 7 Y $Xy.=.6.G.6.K.P.c.G.F.k.k.c.n.k / m q B }.:X{.t q t t / $X>X` q / ) ",
"u t b [ [ e t I R 4 l p._ i 7 Y N.r.s G.K.Q.P.P.~.~.R.K.G.=.c.B m p 4 m  X>X}.i y u t / N.$X_ q y u ",
"u u m [ _ i 4 u H 6 _ v.s.( j I m.s 3.P.Y.~.Y.J.P.H.H.Q.P.f 1.l R m q M #X2X Xm m p , y j.h.l < / ` ",
"7 a m d.f.l u j I u v.<X>Xb.Y Y <.% G.~.R.T.!.!.Y.!.^.R.H.*.k.j / / y V XX2X}.m g.` u l +X#Xi.m l / ",
"u y m V _ m t ) ) Y B {.n.h.R R N.@ I.L.^.T.W.W./.!.W.T.E.P.1.R R w.l ` :X<X-Xm / ( l ( @X>Xs.i / ` ",
"u t k v n m a Y ) U k s.d.e.j j P & P.L./.W./.^.W.R././.^.P.6.<.l 0.y V -X<X-Xk p.w.l / b.@Xi.N ( ` ",
"/ l V V i.p.) ` t./ l {. Xn.0.<.@ f P.~.W.W.^.E.^.R././.Q.G.f 5 ) g.l i.>X<X-Xm ( e.l l s.g.N k ( q.",
"l y n d.oXg.p Y E p l  X,X&X0.<.@ 8.P.E.E.W.E.Y.R.T.W.W.E.S.f 0 l w.k p.>X>X@Xi i m y l p.i.e r B ( ",
"l 5 n .X:Xp.6 Y Y H k  X,X-Xe.0.# 1.G.L.E.!.Q.Q.~.Y.W.R.E.G.*.s j ( h e.;X,X&XB y l y z h.s.n r k :.",
"0.w V :X<Xp.t t.t./ l |.*Xn.0.y.<.7.7.Z.H.L.L.L.Q.R.E.S.J.4.f % R 9.y B |. X{.k B B y k c.v.V e q.s.",
"9.w V XX:X/ t t.] U k v.z.r.z 1.l.7.7.C.V.V.V.F.6.V.V.C.C.C.*.f h z 4 l s.d.w.r q.B h k s.d.N n s.v.",
"9.l a.&XXX_ t ] 0.Y 9.XX|.s.B 0.u.<.G.4.V.C.C.6.C.F.J.A.A.J.6.*.8 l y q.@X Xh.k ( B h z c.s.n k q.s.",
"B l z.:X X;.j y.y.( r.XX1X|.( 0.u.l.4.Z.Z.Z.4.5.6.F.Z.S.S.S.,.C.k.6 8 l j.+X$X/ m w.x k y.e.z i 9.a.",
"m w f.:X&X9.h u.0.j n q.s.q.h ) y.2.7.Z.Z.Z.5.6.5.7.Z.Z.S.D.,.F.r.# # 7 ' ' [ q / r.x g e.e.j y B w.",
"l 4 i.1X1Xa.j y.<.j 9.z.z.q.t l 9.s 7.D.V.C.F.6.6.k.Z.Z.Z.3.-.k.l.& 0 j ` p.p.b :.>.g 5 B q.q 2 y l ",
"( w a.8X6Xc.R u.<.l s.&X&Xs.j l R @ 5.4.V.C.F.C.k.C.4.Z.7.8.d 1.7.8.f T g.p.h.B >.n.>.g d.[.M b k q.",
"w.k d.6X7Xv.( m.y.U e.v.d.N y l r.@ 7.D.S.D.-.-.C.S.3.D.Z.7.P <.6.f f s r.r.e.N s.*Xs.B v.oXM v _ g.",
"w.l d.6X5Xv.9.m.m.j 9.f.V i 6 9 u.# 7.8.Z.J.-.A.J.S.D.D.Z.7.0 & =.=.=.h q.w.9.i e.c.e.( h.d.v 3 V s.",
"` n v.<X3Xv.) y.m.j q.z.;.i t 7 } * U.: 8.I.8.A.R.R.S.3.I.8.G % h k N r ;.q./ 7 u.N.t.) }.h.b e q.h.",
"/ l {.<X1Xz.9.m.m.y N q.n i u H K A ^ $ : I.&.3.P.H.I.& I.Q K 1 / ` w.p d.h.[ a Y Q W I m.d.v v ( g.",
"U i OX:X.Xa.z 0.R z w a.d.w , 1 S + dXrXmXU.$ c k.2.P $ = mXrX+ S { 1 2 OX%X' b I Y H ) j._ n r m 9.",
"6 4 d.:X&Xd.( w.y.w.n v.oXl y J { S uXo.).nXGXZX@ B.ZX~ NXNXvXiXD *   { [ ' M r / ` H / w.q.V g w l ",
"p y p.XX|.i.9.g.m._ k d.{.y , H S S 0X  o.D GXDXwXeXDX0X+.MXbXlXgXjXfX* %X2XOX> M [ n b ` s.z.;.k B ",
"Y a p.oXd.V z w.N._ V d.OXl t H j.b A SXDXAXyXM.).tXmXqX$.$.pXiXjXgX`.X { %X[.v C f.M n q.d.z.;.x ( ",
"U t p.XXoXi.( e.m.e.p.{.OXp.Y U ' Y A 0X$.nXDXFXGXwXSXNXdXF o fXgX+.tXS 2X Xa.3 C i.V m i.s.f.C l w.",
"/ t M d.i.V B y.q.( d.{.p.p.p 7 0.G rXNXVXzXtXAXDXtXnXmX0XtX^ = F D D ! +X;Xz.> k _ / / h.{.[.;.m e.",
") , i C N e w l R z h.{.i._ p 7 { Z fXbXcXVXBXrXFXeXZXZXyXuX* K Z 1 1 , 2X;X=.R L W W ] }.oX[.>.g 9.",
"' u _ oXoXq.l l l q q.d.M i , 1 S S qXiXiX$.iXdXeX0XyXyX| | G ' { ' 2 e.*X;Xc.s Q 2.W ] }.=X.X>.e ( ",
"j.l i.XX{.( R E ( h n [.{.[ p p b K O kXkXkXgX_.= - D O.qX`.M.Y ) ` p ( }.n.y.R R 0.E q.;X-XXXf.k q.",
"p.a n p.s.k j 0.R k n [.{._ p p _ S O aX%.kXMXhX; - ; X.O._.K W u.w.t y e.( h 4 R y.E l n. X|.a.g ;.",
"` i b i.s.k u t.) l V oXoX_ J J ] J F vXxXkXxXhX- O._._.`.O.A 7 b.y.w h s.e.9.( U w.j 5 9.;.;.r n i.",
"/ m m d.}.z 9 0.0.m >..XoX_ p m [ J Z sXxXxXaXxXX.#.'.'._.F } ' N.g.h z v.s.( l l 0.R y s.;.:.3 k q.",
"p p m OX XB y 0.9.k ;..XoXV a l w.Y S $.lX$..... .#.#.#._.^ %Xp g.0.h B  Xv.V k h B l z n.s.;.e i _ ",
"u t l d.v.m U j.w.n C .X.XV p / 0.7 K D CXcXbXbX@.#.].].O.wXN.< l ( y q.;X Xi.g B w.( l v.f.;.e < y ",
"Y t m h.p.l ) m.w.k C [.|.V l R 0.Y ] ~ sXMXbXkX#.#.#.#.^ eXI.m / w.k m n.n.;.5 w.@Xc.( |.|.z.e i _ ",
"' y / v.w.y ) c.9.q e >.z.N u R 0.) H } o.VXlXlX$.$.#.].(.).2Xi 9.e.k z  X,Xv.z B -Xv.m n.&Xz.r i / ",
") p w.s.q.m ( t.( g f.4X,X;.y j c.E 5 E S fXsXlXhX .].(.: M.` n w.c.z q.;X7X,XN 9.}.s.( v.XXd.e i / ",
") u _ q.m i l j.R e >.3X4Xd.R T d R x M.~ F zXlXhX; X.X.M.N./ y ) w.z :.;X3X&Xk s.@Xp.( {.#Xz.b a / ",
"R y _ p.m w p ` k r ;.4X6Xv.T T T h 0 E M.* sXzXjX- ^ = M.M.0.w z <.k e.*X-Xv.k q.v.( B h.#Xf.e t p ",
"U l s.oX_ w 4 l y 4 >.8X5Xc.T d d 5 *.l.2.A Z . F D O.* 8.2.0.h j h 8 :. X Xa.g k w.l l h.oXV 4 q l ",
"l l v.XXf.i , p l r ;.4X4Xr.d d R 5 1.<.d M.A A = S ! W 2.2.T d 0 s 5 R n.c.a.g k q.l m h.h.[ e p / ",
"R l h.|.i.k q m B w ;.=X*X9.d L j 5 j 1.<.L G G K Y 1 E M.u.L d j j 5 <.n.c.a.k ( g.( R j.h.` i l ` ",
"e.z d.{.d.M i m ( w ;.&X*X0.L P j h L 2.1.s P G Q R h x E 2.T 0 T <.j 9.x.s.;.k 9.h./ / h.h.` i m w.",
"g.B d..Xz.V a l ( h ;.3X5Xc.L d T R T <.f x f T 2.8 z z 0.P P 0 T 0.j x 9.B k 4 ( w./ p.#X@X` e l w.",
"j.m z.&X=XV m a / i a.9X*Xe.Y 7 U I 9 I j d L 9 I 9 z 1.0.<.0 0 <.y.z N z.{.` < u U m _ OX}.w.p ' g.",
"` l d.=X1Xa.m p ' t r.5X*Xe.7 6 I I 9 I T d d 0 9 8 T u.l.<.d d T 0.k m z.|.p.4 H Y m _ {.}.w.p l e."
};
