/* XPM */
static char *Untitled__15_1707913708[] = {
/* columns rows colors chars-per-pixel */
"50 50 227 2 ",
"   c #5E3B3F",
".  c #68363E",
"X  c #333B46",
"o  c #593944",
"O  c #663A47",
"+  c #1E4457",
"@  c #1F5C57",
"#  c #254B5E",
"$  c #2C4A5C",
"%  c #26475C",
"&  c #354E5C",
"*  c #39495A",
"=  c #275857",
"-  c #36595C",
";  c #30484F",
":  c #31645B",
">  c #1E4F60",
",  c #2C4D63",
"<  c #274D66",
"1  c #324D63",
"2  c #3A4E64",
"3  c #324D68",
"4  c #245265",
"5  c #2C5265",
"6  c #2E5B66",
"7  c #2D536A",
"8  c #2D5A6D",
"9  c #27596B",
"0  c #345265",
"q  c #3A5464",
"w  c #345A64",
"e  c #3C5965",
"r  c #34556B",
"t  c #3A556C",
"y  c #345A6D",
"u  c #3B5A6E",
"i  c #2F5D72",
"p  c #2E5573",
"a  c #355770",
"s  c #3C5673",
"d  c #355C72",
"f  c #3B5D73",
"g  c #3C5D7A",
"h  c #395779",
"j  c #3A646A",
"k  c #386968",
"l  c #346275",
"z  c #3C6175",
"x  c #356579",
"c  c #3D637A",
"v  c #3C6A7D",
"b  c #3A6B77",
"n  c #397470",
"m  c #444A5E",
"M  c #484754",
"N  c #544D56",
"B  c #46545B",
"V  c #485758",
"C  c #54585C",
"Z  c #544E4B",
"A  c #6C434C",
"S  c #6D4546",
"D  c #73464A",
"F  c #754B4C",
"G  c #654853",
"H  c #794953",
"J  c #77545A",
"K  c #51615B",
"L  c #444F62",
"P  c #4B4D60",
"I  c #43576B",
"U  c #43596D",
"Y  c #495767",
"T  c #565865",
"R  c #415671",
"E  c #425C75",
"W  c #495D75",
"Q  c #435E7A",
"!  c #4A5F79",
"~  c #795B67",
"^  c #436276",
"/  c #4B6376",
"(  c #43647B",
")  c #4A647C",
"_  c #446A7D",
"`  c #4A6A7E",
"'  c #496C74",
"]  c #526A7D",
"[  c #556778",
"{  c #4A6971",
"}  c #656469",
"|  c #656A78",
" . c #746C76",
".. c #736E71",
"X. c #874A47",
"o. c #85585B",
"O. c #9A5E5A",
"+. c #A35F56",
"@. c #966A5C",
"#. c #8D655D",
"$. c #A7645A",
"%. c #875D61",
"&. c #975C60",
"*. c #8A6866",
"=. c #986A68",
"-. c #826774",
";. c #9D767C",
":. c #9A7A7B",
">. c #8E7176",
",. c #A36665",
"<. c #A67574",
"1. c #B1756F",
"2. c #3F8678",
"3. c #45827A",
"4. c #BD897E",
"5. c #3D5E82",
"6. c #3E6780",
"7. c #3E6E81",
"8. c #3E7485",
"9. c #446581",
"0. c #4A6582",
"q. c #446C82",
"w. c #4B6C84",
"e. c #456D89",
"r. c #4D6D89",
"t. c #536B83",
"y. c #526C89",
"u. c #556986",
"i. c #457285",
"p. c #4B7385",
"a. c #45748A",
"s. c #4C748A",
"d. c #467B8D",
"f. c #4C7A8C",
"g. c #487A85",
"h. c #517086",
"j. c #53748C",
"k. c #58738D",
"l. c #537A8D",
"z. c #557C88",
"x. c #4D7591",
"c. c #4D7B91",
"v. c #477E93",
"b. c #557591",
"n. c #5C7592",
"m. c #547C92",
"M. c #5A7D94",
"N. c #577F98",
"B. c #5C7E9A",
"V. c #55759C",
"C. c #4A6E90",
"Z. c #657884",
"A. c #637E95",
"S. c #607F9B",
"D. c #987886",
"F. c #498782",
"G. c #55878B",
"H. c #4F9D8A",
"J. c #4C8493",
"K. c #4F8997",
"L. c #548295",
"P. c #5B8295",
"I. c #558699",
"U. c #5B849A",
"Y. c #548B9A",
"T. c #5C8B9E",
"R. c #578897",
"E. c #62849B",
"W. c #628A9D",
"Q. c #65899B",
"!. c #639994",
"~. c #779097",
"^. c #5DA998",
"/. c #60AC9F",
"(. c #5D8CA2",
"). c #5D88A4",
"_. c #5E93A3",
"`. c #648CA3",
"'. c #6B8DA4",
"]. c #6A8EAB",
"[. c #6285A7",
"{. c #6392A4",
"}. c #6B92A5",
"|. c #6493AA",
" X c #6A94AC",
".X c #649CAB",
"XX c #6C9BAD",
"oX c #759BA9",
"OX c #6D9BB3",
"+X c #749AB7",
"@X c #6D8DAC",
"#X c #6DACA4",
"$X c #63B4A3",
"%X c #77B0AB",
"&X c #6CA4B3",
"*X c #71A1B6",
"=X c #7BA4BF",
"-X c #75A3BA",
";X c #71A3A0",
":X c #799BC0",
">X c #988993",
",X c #9C9798",
"<X c #88878D",
"1X c #A58A89",
"2X c #B6888E",
"3X c #AD9787",
"4X c #A98D95",
"5X c #B49A9A",
"6X c #AB989A",
"7X c #B9A39F",
"8X c #9195A4",
"9X c #AD9AA2",
"0X c #BAA8A8",
"qX c #CA8C83",
"wX c #D09790",
"eX c #C4A496",
"rX c #E6A39A",
"tX c #D09BA1",
"yX c #CAA9A6",
"uX c #C7B1AA",
"iX c #D9BAB8",
"pX c #DDA6A9",
"aX c #E7AFA9",
"sX c #83A5C9",
"dX c #D8BEC5",
"fX c #CEBDC7",
"gX c #E1C1C4",
/* pixels */
"/ & 0 _ _ # , ( Q Q M.`.l.) I R y.c a q.r.j.g d ( ( ( E.}.l.v 5 ^ d d q.s.U.U.d r ( Q t ) ( t r ^ q.",
"W & w i.g.6 r ` ) Q b.W.l.^ t W j.q.g r.r.w.s y w.c y _ p.v y # c r r _ f.P.P.r , t t t 0.t.f 7 g ) ",
"/ e j l.f.y t ) ! s s.T.l.f 2 W b.e.c b.s.w.g g _ f , d _ _ _ z ) y r c f.U.P.5 r g s E A.S._ , ^ ) ",
"[ I ^ G.l.d r ) ) t w.U.l.u 2 W M.r.6.b.j.j.^ g h._ d c s.z.g.l q.z 7 v l.W.m.5 r t t ( Q.`._ , g ( ",
"I q j p.i.l t ) ! r _ m.s.s 2 ! `.j.9.N.M.b.g r _ ( r c l.l.p.8 ( z 7 c P.{.L.7 3 r r ) '.'.w.7 ^ ) ",
"e 0 y i._ 6 0 s W , f s._ t 3 W S.w.c P.E.B.^ s ( z 5 ( z.P.l.z z u , z U.}.U.j r t 1 E E.E._ 7 r t ",
"t t z i._ r 1 t I 3 _ l.s._ s R w.g f E.'.E.t.( E.j.c p.P.L.p.y g g , c W.XXU.z g u , r j.l.f # ) ) ",
"t 0 b g.g.f t s s u m. X}.M.! E 0.g g [.'.[.0.( M.h.( z.Q.E.f.y ^ _ r _ `.XXU.c h.` t g A.E.p.f f ^ ",
"t 0 z v _ z 0 ) / Q ^ N.I.j.Q Q 9.9.g r.w.( r Q E.j.z j.W.P.p.z ` w.s q.`.XXU.c _ ) s ^ E.`.i.y ^ ) ",
"q r y y l z 0 / ) E d s.s.s.s s r.r.9.b.j.r.s Q E.k.u g h.p.v r ( _ y v W.}.U.c w.w.z ^ P.W.p.x ( ' ",
"Q f b v i.p.( ] t.^ f L.U.B.0.Q y.r.9.b.b.y.Q Q }.E.^ z z.l.` y ` y.c p.{.oXW.z _ q.g u s.j.b d _ q.",
"s r x d.P.j.u W ! u f U.`.[.0.5.r.r.( j.y.w.s g A.k.E c s.z._ r f w.z q.`.XXU.d y g y s p.i.8 4 g q.",
"f , x Y.{.p.1 W ! t d U.|.[.y.9.r.r.( b.r.) r R w.) u z l.z._ 0 y ^ f q.W.XXU.z r f r f l.f.l 4 d c ",
"w.7 v {.XXp.0 t.t.W f L.).P.0.y.b.r.9.b.b.) r E ) ( r ( j.p._ f ^ ) r z L.T.L.l c z r d l.l.x y q.s.",
"9.7 6.T.W.^ 1 ] [ R d m.f.e.g 9.B.r.9.B.M.) 3 g ^ f 5 f _ z r r g f , d f.f.q.5 _ c r d s.f.x l s.m.",
"9.f i.(._._ 0 t.0.! _ ).I.s.g y.S.0.W A.A.) * U / W & / ` w & 0 U f r w.W.W.s.l _ ( y f j.p.x 8 6.x.",
"c f c._.I.9.h u.y.Q e.). XI.^ t.A.t.2 | Z.T X m B B V ] [ K [ ; L U , r l.U.P.q.6.9.h r p.s.y y 9.p.",
"z r a.|.(.9.s u.u.s f q.x.q.r W [ >X8X>X .>X>X,X,X,X<X..} }  ...L I $ 3 ( p.c 9 6.w.d 7 _ p.y 8 c q.",
"s 5 a..X Xa.s u.0.s 6.x.J.q.r U T 9XfXfX7XdXgXiXiXiX0X1X1X4X2X>XM q & 0 w.l.s.c c r.a < c _ 8 4 7 f ",
"( 7 a.*X+Xx.h n.0.h s.(.T.s.s U M ~  .G O X.O D F =.o.S A A A G m R 0 y _ l.s.c e.M.q.s j.l.v d f q.",
"w.y f.*X-Xm.5.n.u.s 0.N.d.c r Y C >X4Xo J H . . X.2XD.o.O O O -.P ! I t ) p.s.l j.U.s.( b.P.b 8 q.j.",
"w.f c.*X*Xm.( n.n.h 9.a.v y , 2 T 6X7X. =.;.,.1.&.pXrXo.H H H D.m ! t t c p.q.d q.M.w.^ l.m.d 4 c s.",
"_ z f.&XOXm.5.n.n.a 6.x.6.d r m Z 3XeX@.4.qX+.1.,.rXqXX.&.,.X.D.T ] ^ y z ^ f + w.l.w._ P.m.x 8 q.b.",
"^ f m.XX Xc.) k.n.r c i.l y t L Z 3XeX@.@.qX1.wX+.aXwXX.O.,.X.<.B ] ^ ^ h.L.l.y g ( f g l.f.i 8 q.b.",
"E y f..XT.s.c 0.R Q 7 i.c.7 $ * M 0XuX*.=.<.=.1.,.aXeXD D ~ H D.m E r z z.P._ y u g r _ x.6.i 9 c _ ",
"1 $ p.{.T.s.( w.b.w.g J.U.d 1 Y V 0X0XJ :.1X#.F %.iXyXF %.H O D.m W r u l.l.v 5 ( _ f c a.7.6.i 7 a ",
"U 0 p._.I.a.( j.n.( i f.L.7 , Y Z >.:.*.<.=.<.<.O.#.=.S o.H o.~ L ` f b P.Q.l.r _ ` f z q.a.d.8.h c ",
"^ y p.R.f.c f r.n.w.b f.G.f 0 Y Z 6XyX5XiXuXeXiXuX1X7X5X1X>.D.D.L ) u ^ Q.{.z.0 ^ h.c z q.f.v.8.d _ ",
"U 0 p.T.I.i._ w.b.w.s.L.G.p.W I T T N T } K ..K K K V V C } M M U w.u c Q.{.` # c y.( c i.f.d.x f 0.",
") 0 v g.i.v c y.w.( l.L.s.p.R 2 u.W * [ ~.- ; : = : : k { ;Xz.e E _ r c Q.!.` $ y ' z ( c.m.v.6.c w.",
"/ , y b x 8 5 g ( h f.L.q._ u q E w e j n @ 3.3.2.^.^.^.n 3.k = r s % z Q.T.` 5 r z e _ I.).K.a.a 9.",
") r _ R.L.e.a f f , i.f.b y $ , u 8 w g.F.: 3.$X$X$X$X/.$X3.= ' _ ^ 7 ' XXQ.p.r ' ` f q.I.).K.a.p _ ",
"j.z q.T.I._ g ^ ^ y x J.K.i.s u u r _ Q.G.n G.%X/.#X#X%X;X!.' j ) ` t c P.P.p.z f ' ^ _ }._.Y.f.d q.",
"w.u l f.p.s t ) ^ y x J.J._ s u w.Q ^ P.P.` g.G.j k = - - e - e h.w.0 w _ ) r $ ^ y.^ f m.P.L.8.i 6.",
"w.u y i.p.d r t.9.z 7.K.Y._ s E 0.h a s.G.s.v = b : 5 ` z./ % 1 M.y.5 y s.p.( c E w.s # _ v b 4 x i.",
"^ z c f.P.g 0 0.) f 7.Y.Y.7.y E r.w.r.[.oX XU.l i.z l R.oX'.0.5.A.j.t g b.s._ f f ) f r p.8.x > d q.",
"t d c m.U.c t ] c x 8.K.Y.v 8 g s h 5.B.+X+X).i v i < e.].+XV.5.y.` r 9.U.b.9.a a ^ g h L.s.7.9 8 _ ",
"t r f f.m.z R k._ l b K.Y.v y E r.5.g ).=X=X[.x 6.x p x.+XsXV.< g ^ a q.`.U.a.a g w.^ f m.s.i.9 % w ",
"Q r g l.p.g / k.w.y x J.K.v f ^ b.5.5.B. X).c.i e.6.p C.].sXS.C.0.0.a c U.N.6.< r.[.n._ N.U.c.i y _ ",
") t ^ l.w.y ( k._ 7 9 8.d.x a ^ e.h h x.s.a a 9 e.6.p C.].:XV.5.9.r.a g U.`.N.g c E.V.g N.(.L.4 r ^ ",
"` s _ s._ g ^ t.) 7 8.&X.Xx 8 ) s.g c b.P.i.d 7 e.6.g e.].+X).5.r.b.g 6.|.=X Xc 9.E.s.9.m.).c.d r ^ ",
") t v i.z d E k.^ 7 8.&X&X8.d z w.c _ N.U.q.y y i.6.g s.].@XB.h b.s.f 6.`.OXU.x s.[.r.9.B.`.c.d r ' ",
"g r _ i.z r t 0.g 5 v &X.Xf.^ E ^ f _ P.P._ y y ^ z d s.].].N.g b.r.f 6.U.(.f.x _ m._ z M.T.s.7 0 z ",
"f y f.I._ 7 3 E t 5 v _..XL.) s j r c l.P.' z j z y 5 r.`.[.m.h ) Q 7 v I.L.i.i d q.h g b.P.e., 5 u ",
"g f G.U.p.y , t r 7 i.&X*XL.) t f 8 z l.m.' l z i.z 5 p.`.U.r.r r r 5 _ I.f.v 8 y q.z z l.m.q.y t ^ ",
"^ l f.I.i.l r W f 7 b T.{.i.W u 9.g c s.l._ y y z._ r l.].P.e.d h l y i.R.f.8.l v j.z z j.l.q.y g ` ",
"q.x d.I.f.c t ( _ 7 l I.U._ t W w.c 9.f.j.z y f l.( y l.`.b.6.h p.` l v J.g.b 8 _ p.c ^ z.l._ y z w.",
"p.c f.I.c._ r R ` r i.OX*Xb.R t ( c c s.e.y r ^ z._ z m.N.6.a 5 l.j.f l v b i # _ p.^ w.W.E.p.r c w.",
"l.( v.)._.7.f t ^ r e.+X).s.I q ^ ^ d v x 7 0 e ` e _ c.c.e.5 , j.f.l f f.P._ + y z f ' M.P.p.d ( j.",
"w.f x._.OX8.z t ' r e.+X).w.q * e 0 7 7.a.f e & & ; w. XOXU.f < _ e.i f b.W.j.# e ^ z _ z.E.w.f f 0."
};
