/* XPM */
static char *c70be694309f4120b9c4a6c2ead15ecbSSXnoUBSo5bG7xOU[] = {
/* columns rows colors chars-per-pixel */
"50 50 211 2 ",
"   c None",
".  c #36324E",
"X  c #39344F",
"o  c #3C3750",
"O  c #3E3851",
"+  c #423750",
"@  c #443B53",
"#  c #4B3D54",
"$  c #533D55",
"%  c #5A3E56",
"&  c #5D3E58",
"*  c #613F58",
"=  c #4B4156",
"-  c #4B4358",
";  c #544357",
":  c #5A4157",
">  c #564659",
",  c #5A4658",
"<  c #564A5C",
"1  c #5B4A5B",
"2  c #5E505F",
"3  c #634359",
"4  c #6D445B",
"5  c #624C5C",
"6  c #694D5C",
"7  c #72445C",
"8  c #74495C",
"9  c #7A4C5D",
"0  c #64515F",
"q  c #6A515E",
"w  c #77535F",
"e  c #5C5362",
"r  c #6B5561",
"t  c #6C5A64",
"y  c #655D6A",
"u  c #6D5F69",
"i  c #605563",
"p  c #765560",
"a  c #7A5560",
"s  c #745D65",
"d  c #7C5B63",
"f  c #7E4660",
"g  c #6B606B",
"h  c #70656E",
"j  c #7D6469",
"k  c #716771",
"l  c #716871",
"z  c #7D7379",
"x  c #824E5F",
"c  c #824760",
"v  c #844961",
"b  c #8A4C62",
"n  c #944C65",
"m  c #994D65",
"M  c #845361",
"N  c #8C5261",
"B  c #845D64",
"V  c #8B5D64",
"C  c #935463",
"Z  c #9B5665",
"A  c #935B64",
"S  c #9B5B65",
"D  c #A45B67",
"F  c #A65368",
"G  c #AE5C69",
"H  c #A45B67",
"J  c #B35D6A",
"K  c #BC5F6C",
"L  c #A04F67",
"P  c #8B6267",
"I  c #836469",
"U  c #8A666A",
"Y  c #856C6E",
"T  c #8B6B6D",
"R  c #806167",
"E  c #936267",
"W  c #956568",
"Q  c #9A6569",
"!  c #966C6C",
"~  c #9B6A6B",
"^  c #876F70",
"/  c #877071",
"(  c #8B7171",
")  c #82767A",
"_  c #957271",
"`  c #9D7472",
"'  c #9A7D78",
"]  c #9F706F",
"[  c #A56469",
"{  c #AD626A",
"}  c #A26D6C",
"|  c #AB6B6C",
" . c #B5636B",
".. c #BC626B",
"X. c #BB6C6E",
"o. c #B16C6D",
"O. c #AC726F",
"+. c #A7726F",
"@. c #B0726F",
"#. c #A27471",
"$. c #AB7470",
"%. c #A37974",
"&. c #AC7B75",
"*. c #A77F78",
"=. c #B37671",
"-. c #BE7672",
";. c #B37A74",
":. c #BE7C74",
">. c #C16B6E",
",. c #C2656C",
"<. c #C46E70",
"1. c #C86D70",
"2. c #C27371",
"3. c #C37D74",
"4. c #CC7B75",
"5. c #C97573",
"6. c #D17B75",
"7. c #D27674",
"8. c #A4847C",
"9. c #AA837B",
"0. c #A9897F",
"q. c #A6887F",
"w. c #BA867B",
"e. c #BB8A7E",
"r. c #B4877D",
"t. c #C48176",
"y. c #CB8177",
"u. c #C48479",
"i. c #CD8579",
"p. c #C48B7E",
"a. c #CC8B7D",
"s. c #D48177",
"d. c #D38579",
"f. c #D38A7B",
"g. c #DA8C7C",
"h. c #D9867A",
"j. c #DD917F",
"k. c #D5907F",
"l. c #8B7F81",
"z. c #928685",
"x. c #978C8A",
"c. c #9B8F8B",
"v. c #8F8484",
"b. c #A48B84",
"n. c #A78A82",
"m. c #B38F82",
"M. c #BE8E81",
"N. c #A9948C",
"B. c #B69384",
"V. c #BC9485",
"C. c #B99A8B",
"Z. c #AB9D94",
"A. c #A69A92",
"S. c #AEA197",
"D. c #BEA999",
"F. c #C48E80",
"G. c #CB8F80",
"H. c #CD9382",
"J. c #C29B89",
"K. c #CB9685",
"L. c #D39583",
"P. c #DC9482",
"I. c #D59A86",
"U. c #DC9A86",
"Y. c #DB9D89",
"T. c #D79C88",
"R. c #E29A85",
"E. c #E29A85",
"W. c #D4A38D",
"Q. c #DCA38C",
"!. c #DEA88F",
"~. c #C8A593",
"^. c #D6AA91",
"/. c #DCAD93",
"(. c #D2A796",
"). c #DBB49A",
"_. c #E1A38B",
"`. c #E6A78D",
"'. c #E4AC91",
"]. c #EBAD92",
"[. c #E4B296",
"{. c #ECB396",
"}. c #E5B699",
"|. c #EAB798",
" X c #E5B99C",
".X c #EDBA9B",
"XX c #F1BD9C",
"oX c #CBB9A7",
"OX c #CBBBA9",
"+X c #DBBCA3",
"@X c #E9BEA1",
"#X c #F2C09F",
"$X c #D7C4AE",
"%X c #DFCCB3",
"&X c #D9C7B0",
"*X c #ECC3A4",
"=X c #E1C7AC",
"-X c #EDCBAD",
";X c #F2C4A3",
":X c #F3CCAC",
">X c #F5CAA7",
",X c #F5D0AE",
"<X c #F8D2AF",
"1X c #E1CFB5",
"2X c #E5D1B6",
"3X c #ECD4B6",
"4X c #F4D4B3",
"5X c #F4D9B9",
"6X c #F3DDBD",
"7X c #FBDBB8",
"8X c #FAE1C0",
/* pixels */
"    . . . . . . . . . X o X . . . . . . . . . . . . . . . . X X X . . X o O o X . . . . .           ",
"    = = = = @ @ @ = @ @ @ @ @ = = = = = @ @ @ = = = = = = @ @ @ @ @ @ @ @ @ @ @ @ @ @ @ @ @         ",
"    y k k k h u u h g < @ < g l l k k h g u u h k k k l h t q 6 6 q r 0 - @ # 5 q r r r r 5         ",
". e l.Z.S.Z.N.n.n.Z.c.y @ y c.S.Z.Z.Z.Z.N.q.b.Z.Z.Z.Z.S.Z.n.~ Q Q ~ #.! 0 @ 1 P ~ ` %.%._ s =       ",
". e N.&X2X%X+X).).=XoX) < ) oX2X1X%X%X%X+X/.).&X%X%X%X1X&X(.p.3.3.u.H.w.d ; w =.u.G.L.I.p.I = .     ",
". e N.3X7X5X:X*X*X4X=Xb.j b.=X7X5X5X5X4X>X.X*X4X5X5X5X5X4X}.P.d.f.g.R.H.! p E y.j.R.E.E.H.U - .     ",
". e N.-X<X:X>X;X;X:X*X~.m.~.*X<X,X:X,X:X;X#X;X:X,X,X,X,X>X].P.h.h.g.R.g.;.} =.d.g.P.R.R.a.P # .     ",
". 1 8.)..X X X}.}. X}./.^./.}. X X X X X}.}.}. X X X X X}.Y.f.i.i.d.d.i.t.3.3.i.d.d.f.f.t.B # .     ",
"X > ( V.J.J.J.J.J.J.J.J.J.J.J.J.J.J.J.J.J.J.J.J.J.J.J.J.V.w.;.@.=.=.=.=.=.=.=.=.=.=.=.=.} w # X     ",
"o = r Y ^ Y ^ ( ( ( ( ( _ ( ( ( ( ( ( ( ( ( ( ( ( Y Y Y Y I d d B B B B B B B B B B B B p , @ o     ",
"o @ - > 1 1 > > > > 1 1 1 1 1 > > > > > > > > > > > 1 1 > > ; ; ; ; ; ; ; ; ; ; ; ; ; ; ; # @ o     ",
"O @ # ; , ; - @ o o o o o o o o o o o o o o o o @ ; > , ; ; $ # @ o o o o o o o o o @ # $ # @ O     ",
"o # 5 d B B 6 @ . . . . . . . . . . . . . X . . # q B B B w 8 3 @ X . . X o o o X X @ 3 7 : @ O     ",
"o ; B =.:.=.P ; o o o o o o o o o o o o o o X o 1 W =.-.=.o.D 9 $ o o o o o o o o o $ x C 8 @ o     ",
"X > ! a.j.f.~ 1 o o @ # $ $ $ # @ @ # # # @ o O 6 $.f.g.f.4.X.C ; @ @ # @ @ O O o o : A { 9 # .     ",
"X 1 ` U._.P.#.1 o o @ : 8 9 8 3 # # 3 8 : @ . o q ;.P.E.U.g.5.S : @ & 3 $ @ o o o o , Q X.M # .     ",
"X 1 %.Q.].U.#.1 o X # 8 Z H D x $ $ 9 C 4 @ . o q ;.Y.'.'.U.i.Q , # 7 v 3 @ o o o o , [ -.B # .     ",
". 1 8./.{.Q.%.1 X . # M  .>...C : ; C { M ; o @ r r.Q.{.[._.f.~ , $ c n 4 @ @ # + o 1 } :.B # .     ",
". 1 8.[.XX!.9.1 X . # V <.7.5.S , : S X.H 8 $ @ r r.'.|.[._.f.~ , $ v m 4 @ # * % @ 1 } :.V # .     ",
". 1 8.[.XX'.0.1 X . # V 3.s.4.Q , , Q 5.X.S 7 # r m.[..X[._.f.~ , $ c n 4 @ & f 7 # 1 } :.B # .     ",
". 1 8./.XX[.0.2 o @ 1 W y.g.d.} 1 , ~ y.4. .x $ r B.}..X[._.f.~ , $ c n 7 $ 7 n v $ 1 } :.B # .     ",
"X 1 ' /.XX[.0.2 @ , B O.d.j.g.#.1 ; ~ i.s.2.N ; t B.}.|.'.U.f.~ , $ c m v 8 b F b $ , } :.B # .     ",
"X 1 ` Q.{.[.0.2 ; B O.3.f.P.P.%.1 ; ~ i.h.4.A ; r B.[.[.Q.U.i.~ , $ c L Z Z H J N % , } :.B # .     ",
"X 1 ` T.{.[.0.2 , ~ y.i.y.k.U.&.q 5 ~ i.g.y.E ; r B.[.'.Y.P.i.~ , $ c F J J ....C : 1 } :.B # .     ",
"X 1 _ I.{.[.0.2 5 $.f.:.+.w.L.w.P B O.f.j.f.! , r B.[.'.Y.P.i.~ , $ b G K ..,...C : 1 } :.B # .     ",
"X 1 _ I.{.[.0.2 5 &.a.] d ` H.H.&.O.3.f.P.L.~ > r B.[.'.U.P.i.~ , % N J ....,...C : 1 } :.B # .     ",
"X 1 ` T.{.[.0.2 5 &.F.U 1 I G.U.i.t.y.i.P.L._ 1 r B.[.'.Y.P.i.~ , $ N J ........C : 1 } :.B # .     ",
"X 1 ` Q.{.[.0.1 5 &.F.I - d p.P.g.i.=.$.p.L.` 1 r B.[.[.Q.U.i.~ , $ 9 S G ....J N $ 1 } :.B # .     ",
"X 1 ' /..X[.0.1 5 &.F.I - d u.j.g.3.E B &.H.` 1 r B.}.|.'.U.f.~ , @ : 9 Z J K J b $ 1 } :.B # .     ",
". 1 8./.XX[.0.1 5 &.F.I ; a :.g.f.=.p 1 _ H.` 1 r B.}..X[._.f.~ , o @ : N J J F c $ 1 } :.B # .     ",
". 1 8.[.XX[.q.1 5 &.p.R - p :.h.f.=.6 - T p.` 1 r B.}..X[._.f.~ , o . # b J G n 4 # 1 } :.B # .     ",
". 1 8.[.XX[.q.1 5 $.u.d # p :.h.f.=.6 - U u.~ , r B.[..X[._.f.~ , X . # M G Z 7 $ @ 1 } :.B # .     ",
". 1 8.[.XX[.0.2 1 } :.d ; d :.h.f.=.q ; P 3.~ > r B.}..X[._.f.~ , o X $ N G N : + o 1 } :.B # .     ",
". 1 n. X>X@Xn.e , [ -.E q P 3.h.s.@.6 ; V -.E ; t C.*X;X.X'.L.~ 1 + # 3 C J N # . o 1 +.t.P # .     ",
". e N.-X7X-XZ.i : S 2.| ~ $.i.d.6.| 6 $ M X.A ; g D.4X4X:X.XU.#.1 # * v H J N # . X 5 &.a.U - .     ",
". e N.2X8X3XZ.e % C X.2.:.t.i.4.5.D 3 # M { N $ g D.3X6X3X@XY.#.1 # 7 m J J M # . X 1 &.p.T - .     ",
". < z.oX&XOXc.e $ x D o.=.-.=.@.{ N : # 8 Z 9 # y A.$X$XOX~.M.T > # 7 n F Z 9 # X X 1 _ 9.j # .     ",
"X - k v.x.z.l - + * 9 M B B B M 9 4 # + % 4 & + < z x.x.z.' Y r = @ & 7 8 8 : @ . . = s j 0 @ X     ",
"o @ < e e e < @ @ # $ ; , , , : ; # @ @ # $ # @ @ < e e e e 1 - @ @ # $ $ $ # @ o o @ ; > - @ o     ",
"o @ - > 1 1 1 1 1 1 1 1 > > > > > > > > 1 1 1 1 ; @ @ - > > ; ; $ $ ; ; ; ; ; ; ; ; ; ; ; # @ o     ",
"o = r Y Y Y ( _ ( ( / / ^ Y I I I I Y ( ( / ( ( s # @ 0 I I d w 9 9 a d d d d B B B B B p , @ o     ",
"X > ( V.J.J.J.J.J.J.J.J.J.V.w.w.w.w.V.J.J.J.J.J.' 1 - ( V.e.;.| D H | =.=.=.=.=.=.=.=.;.} w # X     ",
". 1 8./.|.[./.^.^./.[.[.[.'.Q.Y.Y.Q.'.[.}.[.|.[.B.s r q./._.f.5.>.>.4.i.i.i.i.i.3.3.3.i.:.B # .     ",
". 1 8.'.XX{.W.m.B.W.{.XXXX.X{.].].{..XXXXXXXXX{.I.` _ J.|.].j.s.4.6.d.h.s.6.6.4.-.} } 2.2.M # .     ",
"X 1 %.Q.]._.r.Y Y e.'.{..X.X|.|.|.|..X.X.X.X|.'.Y.F.F.W.|.`.g.d.s.s.d.d.4.1.1.1.[ a a [  .M # .     ",
"X 1 _ H.I.H._ 1 5 #.H.W.^.^.^.^.^.^.^.^.^.^.W.I.H.H.H.W.W.K.u.3.3.3.t.3.X. .J J N : : N D 9 # X     ",
"X > I ` %.` d - - d ` *.q.q.q.q.q.q.q.q.q.q.%.%.#.%.%.8.8.` ~ ~ ~ ~ ~ W A N N N 7 # # 4 x 4 #       ",
"    6 r r r 1 @ @ 1 r t t u u u u u u t u t t r r r r t t r q 6 6 6 6 6 5 3 3 3 $ @ @ $ 3 :         ",
"    @ @ @ @ @ @ @ @ @ @ @ @ @ @ @ @ # # # @ @ # @ @ @ @ @ @ @ @ @ @ @ @ @ @ @ @ @ @ @ @ @ @         ",
"    . . . . X o o X . . . . . . . . . . . . . X . . . . . . X X X X X X X o o o o O O o o           "
};
