/* XPM */
static char *Untitled__17_1707921150[] = {
/* columns rows colors chars-per-pixel */
"50 50 250 2 ",
"   c #5A4B39",
".  c #7C4E2A",
"X  c #7E673E",
"o  c #1E4557",
"O  c #2D4A5B",
"+  c #26485A",
"@  c #354E5B",
"#  c #394C5A",
"$  c #38545A",
"%  c #2B535B",
"&  c #1C4F60",
"*  c #2C4D63",
"=  c #244E62",
"-  c #324D64",
";  c #394D65",
":  c #245265",
">  c #2D5165",
",  c #2D546A",
"<  c #2D5B6C",
"1  c #25576A",
"2  c #345265",
"3  c #3B5464",
"4  c #3C5965",
"5  c #34546B",
"6  c #3A556C",
"7  c #345A6E",
"8  c #3B5A6D",
"9  c #365867",
"0  c #2E5C72",
"q  c #2B5775",
"w  c #3C5672",
"e  c #355C72",
"r  c #3B5C73",
"t  c #375D79",
"y  c #3D5D7A",
"u  c #335575",
"i  c #38606F",
"p  c #346274",
"a  c #3C6175",
"s  c #35647A",
"d  c #3D647A",
"f  c #3C6B7C",
"g  c #366A78",
"h  c #3A727E",
"j  c #2E6772",
"k  c #56524D",
"l  c #48575A",
"z  c #525456",
"x  c #4A4E50",
"c  c #6E5945",
"v  c #655755",
"b  c #654F5B",
"n  c #596456",
"m  c #796257",
"M  c #726852",
"N  c #435A6C",
"B  c #4B5C6C",
"V  c #465867",
"C  c #565A68",
"Z  c #415672",
"A  c #425C75",
"S  c #4A5D74",
"D  c #435E7B",
"F  c #4B5D78",
"G  c #485679",
"H  c #625765",
"J  c #486369",
"K  c #56646A",
"L  c #436276",
"P  c #4B6475",
"I  c #43647B",
"U  c #4A647C",
"Y  c #436A7D",
"T  c #4B6A7D",
"R  c #496975",
"E  c #506C7D",
"W  c #536777",
"Q  c #49757C",
"!  c #577277",
"~  c #5C706F",
"^  c #676767",
"/  c #766869",
"(  c #777466",
")  c #636675",
"_  c #667A79",
"`  c #7B7373",
"'  c #687065",
"]  c #89583C",
"[  c #BD6B33",
"{  c #C46E35",
"}  c #835F5F",
"|  c #856549",
" . c #936D59",
".. c #9E7B56",
"X. c #BB7E5C",
"o. c #B47B5D",
"O. c #A9754B",
"+. c #857369",
"@. c #94766D",
"#. c #B17572",
"$. c #D07C64",
"%. c #EA7B4D",
"&. c #E7A535",
"*. c #BD875C",
"=. c #A9834D",
"-. c #948473",
";. c #B8856A",
":. c #B7927D",
">. c #B28B75",
",. c #CD8957",
"<. c #DA8B59",
"1. c #D58F54",
"2. c #FA8B48",
"3. c #EB9549",
"4. c #FB9A4A",
"5. c #E88756",
"6. c #F18A57",
"7. c #E99B58",
"8. c #FA9655",
"9. c #E78749",
"0. c #FFAF4B",
"q. c #FCA949",
"w. c #E7B54F",
"e. c #FBB64B",
"r. c #FAA858",
"t. c #FEB35B",
"y. c #F9B855",
"u. c #E9A951",
"i. c #D6886B",
"p. c #CB9666",
"a. c #D99666",
"s. c #C78976",
"d. c #C59678",
"f. c #E59965",
"g. c #E38D6C",
"h. c #D6B165",
"j. c #FAAA65",
"k. c #FBB867",
"l. c #E3A769",
"z. c #DDC058",
"x. c #FCCB5E",
"c. c #F9D15F",
"v. c #DDC561",
"b. c #EDC86A",
"n. c #FDC869",
"m. c #FDD368",
"M. c #FCDA79",
"N. c #F3CF6E",
"B. c #FEE77A",
"V. c #FFF37C",
"C. c #3C5B84",
"Z. c #3D6C82",
"A. c #3C6784",
"S. c #3D7388",
"D. c #445B83",
"F. c #446582",
"G. c #4A6483",
"H. c #436C82",
"J. c #4B6C83",
"K. c #456C8A",
"L. c #4C6C8B",
"P. c #476589",
"I. c #536B83",
"U. c #536C8B",
"Y. c #576885",
"T. c #457385",
"R. c #4B7386",
"E. c #46738A",
"W. c #4C748A",
"Q. c #4C7A8C",
"!. c #467C89",
"~. c #507286",
"^. c #53748C",
"/. c #5A738C",
"(. c #537A8E",
"). c #59798A",
"_. c #516C93",
"`. c #4B7691",
"'. c #4C7B92",
"]. c #467A95",
"[. c #547592",
"{. c #5C7492",
"}. c #537D92",
"|. c #5A7D93",
" X c #5B799B",
".X c #62778D",
"XX c #627C93",
"oX c #647C9B",
"OX c #797C85",
"+X c #5B7AA8",
"@X c #687BA7",
"#X c #957E87",
"$X c #817780",
"%X c #48838B",
"&X c #4D8493",
"*X c #4D8799",
"=X c #558394",
"-X c #5C8396",
";X c #568499",
":X c #5B859A",
">X c #538B9A",
",X c #5C8A9D",
"<X c #578897",
"1X c #58808C",
"2X c #7C8688",
"3X c #62859C",
"4X c #61899D",
"5X c #6A8699",
"6X c #788895",
"7X c #6E9096",
"8X c #5D8CA2",
"9X c #5B8BAB",
"0X c #5787A5",
"qX c #5D92A3",
"wX c #5F99A7",
"eX c #5A8EB1",
"rX c #5D95B5",
"tX c #4C85A2",
"yX c #648DA3",
"uX c #6A8DA4",
"iX c #6788A6",
"pX c #6392A4",
"aX c #6493AB",
"sX c #6A94AB",
"dX c #649CAB",
"fX c #6C9BAD",
"gX c #6997A5",
"hX c #7496AF",
"jX c #6B9AB4",
"kX c #749ABC",
"lX c #718FB3",
"zX c #6CA4B6",
"xX c #71A1B6",
"cX c #77A5BC",
"vX c #759BC0",
"bX c #73A5C5",
"nX c #9A8187",
"mX c #A58D82",
"MX c #B69886",
"NX c #AA8E8C",
"BX c #9299A1",
"VX c #FFD987",
"CX c #FEEC84",
"ZX c #FEEA86",
"AX c #FFFD8D",
"SX c #FFF387",
"DX c #FFFC94",
"FX c #FFF591",
"GX c #FFE791",
"HX c #FFFAA0",
/* pixels */
"P @ 9 Q f + * I D D -XyX(.L ; F _.C.u K.W.W.r 7 T L L 5XsX}.A., I e e H.W.=X3X7 2 I D 6 D I 6 5 I H.",
"S @ 9 T.Q < 2 G.U A |.3X(.L 6 F [.P.C.`.E.H.e 7 R L 6 T ~.I 0 = I 7 5 Y W.:X;X5 * w 6 6 J.J.r , A I ",
"W 4 i (.Q.e 6 U D.Z ^.:X^.8 3 S {.K.d W.R.T.a 8 T 8 * 8 T H.H.p I 7 5 d (.,X-X2 5 r 6 D XX3XU > I U ",
"P N L 1XQ.e 5 U U 2 R.:X(.r ; F  XJ.d }.(.!.a a R.T 6 L R.Q.!.e Y r , f (.4X(.: 2 6 6 I uXuXI = r I ",
"N 3 i R.T.7 6 U I 2 F.=XR.r ; F 5X^.L 1X=X(.e 7 Y L 7 a (.%XT.7 Y r > d <XuX=X5 - 5 2 U uXuXJ., I U ",
"4 2 9 Q Q < 2 w S - r W.Y 5 ; B 3XR a -X4X=XI 5 Y A 2 L (.1X%Xj a r > a -XsX=Xp 5 w 2 D 3X3XI , 2 6 ",
"6 6 a T.Y < - 6 Z - Y (.W.Y Z Z T J r -XpX,XJ.A.3X^.I J.<X1XQ < a r 2 d 4XfX:Xa d 8 * 5 /.^.r + L T ",
"6 2 a Q.!.r 6 w Z 6 }.fXuX|.U Z P a a 3XuX4XF.F. XU.L (.uX<X%Xi d I 5 Y 4XfX:Xa W.G.6 w 3X4XT.r A I ",
"6 2 a f Q a 2 U F D d =X=X[.D D J.U r W.P.A.u C.iXL.G.{.|.|.'.p H.J.r H.uXfX-XI d U 8 I 4XuX!.e L T ",
"6 2 p < p 8 2 U F A 6 W.Q.W.w w /.L.F.[.[.L.t F.iX_.w D.[.Q.T.: I U 5 f 4XgX:Xf R.J.A I |.3XR.a I Y ",
"I r d f T.R.I E I.I a =X:X XG.D {.L.D.[.[.W.r D lXoXF Z U.^.J.7 T R.I T.yXhX4Xa I H.r r R.(.p e I J.",
"w 5 p !.<X^.w S U 8 r :XyXyXP.F _.P.y _.[.J.6 L .X.XF S /./.Y e w J.d H.yXfX:X7 e a 5 r R.H.< : d I ",
"r * p <XpXR.- S S 6 e ,XpXiXL.D._.P.D. X(.R 2 L V W V P /./.T 6 6 I r Y 4XfX,Xa 5 r 5 r ^.Q.p : e d ",
"J., Z.qXfXR.- I.I.S t |.0X|.P.U. X_.D. XR.R % V ! K # V ! /.E 6 a U 5 d =X,X}.r d a 5 r (.(.s 0 H.W.",
"F.5 f ,XyXY @ I.U Z e }.'.K.y G. X_.P. X).K % J ~ K V P W V B 2 L r * e Q.Q.H.: Y d , e (.Q.s p W.[.",
"G.e T.8X,XY 2 I.I.F I ,X;XW.D P. X^.F.|.1X~ x n ' ( -.NX+.z l O 6 r 5 H.yXyXQ.p Y I 7 r R.R.s 0 A.W.",
"d r '.pX:XA.w U.U.D J.0XsX;XU J.|.Q.f ).2X( -.| . M X.g.a...l % > L , e '.<X*XA.d Y 6 9 R.R.7 0 Z.L.",
"r < E.pX8XF.w Y.Y.w t H.Q.Z.5 L (.Q Y 6XMXo.p.=.O.*.5.8.8.,.M $ 4 6 + * H.W.Z.q d R.7 $ T Q < < d J.",
"r > T.dXsXE.u U.D.w F.`.'.H.2 w U P C NXg.%.2.2.1.f.8.8.2.3.*.  x V # 9 J.W.K.d d J.8 O L T q : 5 t ",
"I , E.xXkX`.G /.G.w W.8X8XQ.r w A G b s.6.2.4.4.8.j.8.8.4.8.7..   x x l T |.[.I R.-XR 9 R.|.d e r Y ",
"J.7 Q.xXcX}.D.{.U.w K.|.E.d 5 y P.F v s.7.q.0.q.r.t.q.t.t.k.b.=.| M v x B XX^.7 R.3XR.L (.-Xf e H.^.",
"J.r '.xXjX}.I {.{.w A.Q.f 7 * 5 U.B c ;.t.y.e.&.e.w.y.n.M.M.B.v.p.>.-.v l E Y 5 J.).J.a (.}.t * d W.",
"T e }.fXfX'.D./.{.u F.Q.A.e - ; U z | ,.j.t.y.w.c.c.m.B.SXGXZXM.l.p.:.+.C B 8 6 T (.J.H.;X Xd 5 H.^.",
"L r =XfXjX}.I /.{.5 d T.p 7 w V W v O.a.j.u.n.M.B.B.V.SXDXFXM.M.k.,.;.@.2X5XE 2 A R r t }.Q.e 5 G.[.",
"A 7 (.pX,XW.y G.w y , E.Q., O # ^ -.,.7.7.r.VXHXB.AXAXAXDXFXZXn.8.[ ] >.BX|.T 4 6 J 5 A.E.A.t 2 d U ",
"- * !.pX8XQ.I J./.J.p }.,Xr - V ` >.a.3.r.M.GXM.B.SXAXDXDXFXZXn.r.[ ] m nX|.T O L R t s E.H.f 7 > t ",
"8 2 W.,X;XT.I /.{.U 0 Q.=X5 O V ^ @.,.w.y.B.CXv.v.V.DXDXDXSXB.m.r.<.. v 3X4XE $ J ! p s S.].^.J.e d ",
"L 9 R.<XQ.f r L.|.G.f '.Q.a 5 V K M O.y.m.B.ZXb.z.B.AXDXDXM.x.0.4.f. .^ 5XaX^.4 J E d t S.].}.J.r I ",
"8 2 R.,X;XT.d J./.J.Q.=X1XJ.S Z J x | h.k.n.n.u.w.M.CXCXM.k.u.9.9.a. .K 8XaXQ @ J ! h g S.].E.a r G.",
"P 2 f Q.!.f d U.J.F.Q.}.R.R.r ; T $   ..a.j.j.3.q.m.m.m.n.7.5.6.5.i.m V 0XeXZ.+ $ K p A.].*X'.Y I J.",
"T * 7 g s < > w I r (.=XT.Y 6 ; K.t l ( >.p.f.3.4.y.e.0.r.<.$.$.g.,.v Z eXrXE.% $ J i h tX9X<XR.7 U ",
"U 2 Y =X;XT.r r w : T.Q.g 7 * - u 5 4 _ -. .o.<.5.r.4.7.f.X.#.#.#. .x Z eXeXR.$ J J i Z.tX0X;XR.5 d ",
"/.r H.,X=XI d I A 7 g &X;XT.r 6 w 8 L 5X6XOX#X#Xi.$.s.d.MXmXnX#X$X) # w yX:XL.8 N P L U yX8X,X!.e A.",
"J.e p Q.R.r 6 U I e g &X&Xf w N P 4 p %X:X/.Y.b @.} / +.+.^ C C .XY.- 2 U L 5 2 I I.I 8 -X=X=XT.0 H.",
"T e 7 T.W.r 6 G.I a f *X>XZ.r Z I.a s *X0X}.I.x / b k ^ _ ~ N 6 /.~.6 r W.J.T G.A J.w = Y h g : p T.",
"I a d (.=Xr 2 J.U r Z.>X>Xh 6 A T a h tXwXaX3XS W z l _ 7XgXR.s oX/.w L |.^.Y e r T r 5 W.Z.g & 0 Q ",
"6 w a }.:Xa 2 I.I p h >X>Xf 5 r F w d tXbXjXiXD S V $ Q gXzX Xq W.I.5 d ;X|.F.> 7 I r t |.E.Z.1 p Y ",
"6 5 t (.(.I Z /.U 0 h >X>Xf 6 L Y.G t 9XbXbX0Xu T 4 > f wXzXtXq y I 5 F.,XyXW.d y J.d t }.!.S.< o 5 ",
"D 2 d (.W.r I /.J.e j *X*Xh e U Y.G y 0XjX0X[.D U.L 6 H.dXbX9XC.P.J.t I  X}.H., W.iX[.A.|.;X'.1 9 Y ",
"U 5 I (.J.7 U /.Y , 1 S.!.s 5 S Y.G w L.A.q t w U.A 7 E.jXvX+XD.P.G., t 8X8X`.t y :X|.d }.8X*X1 5 L ",
"J.6 Y W.H.a A U.I 5 !.zXwXs > U Y.S S }.;XK.t 2 G.U t K.lXlX@XD._.^.r Z.aXcXaXd A.,XW.A.}.,X`.0 7 L ",
"T 7 Y H.a 7 A /.A , !.zXdX!.e S E L U =X>XZ.e 5 J.J.t Q.iXlX@XG {.W.t A.8XjX8Xs L.8XW.F.|.9X&Xe 7 L ",
"A 5 H.T.a 5 6 J.r : f dXzXQ.r A L i h &X&Xh j 7 I a < Q.aXiXoXD U.U.e I :X8X'.p H.}.I d }.,XE.< 5 8 ",
"r e Q.=XH., - A r * f dXfX=XL w i < j %X&Xh j a d 0 1 S.9XyX{.w I I 5 A.<X=XT.p 0 H.r y }.:XH.: > 8 ",
"r t 1X>XR.7 * w 7 > T.zXzX=XL 6 r < j !.&Xh i r R.p 1 S.qX:XJ.6 6 6 > H.=XQ.f < 7 H.a a ^.}.T., 6 I ",
"I e Q.<XR.p 2 A r , g ,XqXR.A Z F.p g !.%Xg 5 r |.d 0 '.pX<XT 4 8 w 7 H.,XQ.T.< f ^.d a ^.(.H.7 a T ",
"R.p Q.&XE.d 7 S T > p ;X:XY Z G G.D I Q.^.J ; G {.G.0 &X,XQ.P 4 E J.r Y %XR.g < Y R.a L ).(.Y 7 r J.",
"W.d `.>X'.H.6 r T 5 T.jXxX^.Z N U D F.Q.J.5 V S .XG.p `.=Xf 5 2 /.^.r a Y g i = L ^.L R.4X3XT.5 I J.",
"^.I '.8XwXZ.a 9 R 5 E.kX8XJ.V V L A 7 d d , 9 3 W 3 Y '.].H.2 * (.(.d r (.|.Y o 7 8 a Y |.-XJ.7 I ~.",
"J.r ].9XaXE.L 6 L 2 K.kX0XJ.3 # 4 2 < Z.E.a 3 # @ O R.sXjX:Xw * H.H.< t }.3X^.O 8 a a T ).3XR.i t J."
};
