/* XPM */
static char *Untitled__19_1707921150[] = {
/* columns rows colors chars-per-pixel */
"50 50 254 2 ",
"   c #4D523E",
".  c #333B52",
"X  c #294A5C",
"o  c #364B59",
"O  c #2D575A",
"+  c #35555A",
"@  c #32554D",
"#  c #32615C",
"$  c #2C4D63",
"%  c #294D6A",
"&  c #374C65",
"*  c #2D546B",
"=  c #2C5A6B",
"-  c #2B5565",
";  c #335366",
":  c #3B5A63",
">  c #33556A",
",  c #3B546B",
"<  c #335B6D",
"1  c #3A5A6D",
"2  c #3B5565",
"3  c #2E5A73",
"4  c #335472",
"5  c #395472",
"6  c #335C73",
"7  c #3B5D73",
"8  c #3C5D7B",
"9  c #365B7A",
"0  c #3E4C71",
"q  c #34636C",
"w  c #376367",
"e  c #2A6475",
"r  c #346373",
"t  c #3C6274",
"y  c #35637B",
"u  c #3B637B",
"i  c #3C6B7C",
"p  c #3B6A75",
"a  c #346E70",
"s  c #1E4154",
"d  c #4B574E",
"f  c #47565B",
"g  c #505256",
"h  c #68594A",
"j  c #6A5D5B",
"k  c #7E5A4C",
"l  c #58635A",
"z  c #49615A",
"x  c #686558",
"c  c #7A675A",
"v  c #424C67",
"b  c #435565",
"n  c #425B6D",
"m  c #4B5C6C",
"M  c #475667",
"N  c #565967",
"B  c #435C73",
"V  c #425C7A",
"C  c #485874",
"Z  c #555678",
"A  c #695C66",
"S  c #486667",
"D  c #566466",
"F  c #446275",
"G  c #4B6474",
"H  c #43647B",
"J  c #4A647C",
"K  c #446A7C",
"L  c #4C6A7C",
"P  c #486B74",
"I  c #576876",
"U  c #47757B",
"Y  c #56777C",
"T  c #527167",
"R  c #666766",
"E  c #796865",
"W  c #676C73",
"Q  c #677575",
"!  c #777878",
"~  c #74736D",
"^  c #BF6527",
"/  c #FF7B2B",
"(  c #EA773B",
")  c #FD7D3B",
"_  c #F97B3A",
"`  c #CE7134",
"'  c #875D54",
"]  c #945951",
"[  c #936D5B",
"{  c #8D6F54",
"}  c #A7755A",
"|  c #B17055",
" . c #876964",
".. c #85786A",
"X. c #977667",
"o. c #887A77",
"O. c #927172",
"+. c #A67969",
"@. c #AD7569",
"#. c #DA7B5A",
"$. c #D37852",
"%. c #EC7E49",
"&. c #FE7D44",
"*. c #FE7C4B",
"=. c #F87A43",
"-. c #E87A54",
";. c #FC7D58",
":. c #CA7966",
">. c #E17B62",
",. c #73837C",
"<. c #FF832C",
"1. c #FC8435",
"2. c #F5843B",
"3. c #FD833D",
"4. c #FC8C3D",
"5. c #F78937",
"6. c #FC943C",
"7. c #FA9739",
"8. c #E99239",
"9. c #B58459",
"0. c #9B886B",
"q. c #978A7C",
"w. c #8C826D",
"e. c #AA856A",
"r. c #BC8767",
"t. c #A88876",
"y. c #B48C78",
"u. c #DA8659",
"i. c #D28A56",
"p. c #E78547",
"a. c #F48344",
"s. c #FD8343",
"d. c #F58C42",
"f. c #FD8B43",
"g. c #FE834B",
"h. c #FD8C4B",
"j. c #F6854B",
"k. c #EC934B",
"l. c #F59244",
"z. c #FD9443",
"x. c #F49C44",
"c. c #FE9A44",
"v. c #FD934A",
"b. c #FE9B4B",
"n. c #F4984A",
"m. c #E78757",
"M. c #FD8353",
"N. c #FD8B52",
"B. c #F98759",
"V. c #E5965B",
"C. c #FC9853",
"Z. c #FEA34B",
"A. c #F9A649",
"S. c #FEA452",
"D. c #FEAB54",
"F. c #FDA95A",
"G. c #FEB255",
"H. c #FFB45C",
"J. c #FFBA5D",
"K. c #F5B554",
"L. c #F1AE4B",
"P. c #C68666",
"I. c #D98766",
"U. c #D8946A",
"Y. c #C68A77",
"T. c #DA8974",
"R. c #C79476",
"E. c #D79775",
"W. c #CB966A",
"Q. c #E98766",
"!. c #FB8763",
"~. c #EB926E",
"^. c #F8A969",
"/. c #FFB761",
"(. c #F3B172",
"). c #D5A165",
"_. c #F8C35B",
"`. c #FEC362",
"'. c #FFCB69",
"]. c #FCC965",
"[. c #FAD76C",
"{. c #FFDB73",
"}. c #FFD874",
"|. c #FFCF76",
" X c #FEE376",
".X c #FFE47B",
"XX c #FDEB7C",
"oX c #F3E775",
"OX c #F6F17C",
"+X c #EEE773",
"@X c #375C84",
"#X c #3D6484",
"$X c #3C6B83",
"%X c #396A86",
"&X c #3A7488",
"*X c #3E7A94",
"=X c #455E83",
"-X c #456682",
";X c #4A6584",
":X c #436B83",
">X c #4B6C83",
",X c #476B8A",
"<X c #526C83",
"1X c #556987",
"2X c #447384",
"3X c #4B7184",
"4X c #44748B",
"5X c #4B748B",
"6X c #4C7C8B",
"7X c #457A87",
"8X c #53738C",
"9X c #557A8C",
"0X c #567886",
"qX c #496D92",
"wX c #4C7493",
"eX c #4C7B93",
"rX c #4A7A97",
"tX c #527C93",
"yX c #547D9B",
"uX c #577997",
"iX c #576D9B",
"pX c #667787",
"aX c #647B95",
"sX c #6E718A",
"dX c #5C79A2",
"fX c #4A8495",
"gX c #5C8496",
"hX c #578699",
"jX c #598388",
"kX c #758686",
"lX c #668699",
"zX c #6F8D93",
"xX c #5888A5",
"cX c #5693A5",
"vX c #4E90A0",
"bX c #668AA6",
"nX c #6596AB",
"mX c #6B9AB6",
"MX c #7497B6",
"NX c #7391AA",
"BX c #68A5B8",
"VX c #70A2B5",
"CX c #59A0BC",
"ZX c #739EC0",
"AX c #6AA5C3",
"SX c #989288",
"DX c #8C8C8A",
"FX c #B19686",
"GX c #8399A4",
"HX c #CA8A83",
"JX c #FFED82",
"KX c #FFF383",
"LX c #FDFB88",
"PX c #FFFF90",
/* pixels */
"Z v 0 ;X-XX O S S 7 yXbXdX=XC C :Xa e %XqXiX@X9 u t G lXnX7XG 7 H 6 9 :X4XhXgXq > J F , B H 1 < H :X",
"Z v , 8X5X> + P P B yXbXdX=Xb m 0X:Xe &X4X4X8 6 4XH , H U a = X u 3 = $X6XgXhX> X 1 , 2 L >X7 $ u F ",
"S + p eXeX6 ; G J 5 qXxXwX7 + M sX;Xt 6Xa &Xe a i 8 & 5 %X&X&Xe i 1 * H 5XgXgX$ , C 1 B aXlXH $ F J ",
"P w p fXeX9 > J =X5 qXxXrX6 @ S aX1XF 9X,.U w q H ;XV =XrXrX&Xe K B ; H 9XlXjX$ ; 1 , V lXNXH $ V H ",
"w + r 7X7Xr < H J 4 -XyX7X: @ S dXdX;XuXjXY + f I m , F 8X9X2Xq G C & F gXcXfX= - * > F bXNX1X& F J ",
"+ - = 4X$X3 $ n V & @XwX:X: @ n dXqX=XlXkXQ l j o.j g g pXpXY < m C & 7 gXnXhXe 3 = * u aXaXJ & > , ",
"n , 8 ,X,X> o v b o ;XiXwX;X2 B qX@X@XaXlXkX~ +.Y.:.| +.t.w.Q @ n B ; t lXnXhXe e 6 $ > aX9XC X J J ",
"5 5 #XuX5XB f f M b iXMXmXdXV V ,X@X8 lXzXq.e.E.>.!.m.Q.T.R.w.z S F = i bXBXxXi wX,X< 7 aXlX>Xt 7 F ",
"8 % ,X#Xu J v N N C =XiXbXiX8 F L G D Q x { W.Q.*.*.g.=.-.~.r.h S p r U bXmXbX7 -X1X5 u jXhXfX= F L ",
"& % #X@X9 t + G I C V uXaXiX, M D E O.t.e.9.m.2.s.&.3.s.*.B.u.{ R P w P zXNXlXF ;X8XB K cXhXi q H K ",
"n n :X%X4X7X< U K F 5 uXaXsXA c [ } P.~.V.V.Z.5.f.3.a.g.M.M.g.u.X.E g D zXNXzXt u :X= t ,.&Xp ; H :X",
"N b 6 2XvXfX= p S L n zXDXSX+.r.I.#.u.C.x.7.A.7.6.4.d.h.*.*.*.B.T.y.[  .q.zXjX# = r = q K U , $ t H ",
"M o > jXBX7XO z z Q l o.X.R.I.m.;.*.a.b.Z.7.7.8.7.n.f.4.a.a.s.g.!.Q.#.r.y.q.,.+ # w = t 9X9XB 1 7 u ",
"G b F bXNXT @ j E t.X.+.| u.m.a.M.j.a.v.Z.6.7.8.x.Z.b.7.l.h.s.&.=.g.B.~.).y.w.l z : ; t uXtXV 8 :X5X",
"u e i lXzXE ' | P.~.:.>.m.%.2.2.h.l.p.h.N.g.C.G.J._.L.A.A.Z.4.) / ) 3.h.U.P.@. . .N f , wXrXe e 5XtX",
"&Xy i zXSXt.Y.Q.-.!.-.M.!.( a.4.l.n.2.g.N.g./.|.{.[._.K.G.Z.1.3.1.3.) a.u.I.T.FX@. .N v qXfXe e $X5X",
"i q Y kXy.E.m.*.;.;.;.g.s.s.s.3.b.b.4.f.d.n.}.LXPXXX X].x.z.c.s.*.*.&.B.r.e.X.} U.| h f 5X5Xr = :X>X",
"> 1 0XzXFXP.$.*.;.*.*.s.) 3.s.j.S.Z.z.4.8.L.[.LXLXOXXX|.Z.c.c.d.*.M.g.m.{ j h { W.| h f H $X; X u :X",
", & pXGXSX..| #.B.;.s.s.3.f.h.h.F.G.Z.x.8.K.{.KX+XoXJX{.J.D.Z.d.a.g.j.m. .W W w.R.r.E D :X&X7 $ ; 7 ",
"Z v 8XVXGX~ ' | Q.g.f.1.1.f.h.h.C.H.G.K.K._..XJX[.[.JXJX}.'.G.8.f.3.&.V.o.0XQ kXFXy.o.I 5XyX-X7 7 :X",
"sXC iXMXAX9XR +.u.a.5.<.1.2.j.j.d.J.'.[.[. XJX{.[.{..XJXKX.X`.8.5.<.2.I. .pX1X1XSXSX~ P 6XyX-X, -X8X",
"1Xv tXAXAXrXI q.U.a.1.1.3.&.&.a.2.J.}.JXKXLXKX.X}.{. XXXLXJX].8.7.5.v.U.E Z ;XC ! o.I G rXrX=X$ H 5X",
"J < tXBXCX*XI o.I.a.1.1.s.&.&.s.b./..XKXLXKXKX{.'.{.oXoXKX.X_.L.7.c.v.Q.' A Z . W Q G H yXyXu > -XtX",
"3Xr jXnXmXeXD  .#.=.) 3.&.*.&.&.S.'.{.KXKXXXXX{._.[.+X+XXX X`.L.6.6.z.Q.| t.O.v f S w p eXyXu ; K 8X",
"q q jXzXjXY A ] #.=.&.*.( M.&.h.l.K.`.'.[.{. XoX+X+X+XOXJX.X`.x.z.f.l.k.m.T.HXE f z # i 5X$X= - 7 ;X",
"$ - T kXw.q.[ :.;.*.*.M.%.N._ d.x.D.J.`.].}. XXXOXLXLXLX{.'.H.c.v.h.v.d.g.-.T.' l a q r 4X:Xi q * 7 ",
"7 2 R q.q.HX>.~.;.*.*.j.m.m.( l.x.A.D.G.J.'..XKXOXLXLXJX'.J.D.b.N.=.v.2.s.( Q.' l U w q -X5X6XU < H ",
"V b W q.y.~.>.!.*.;.j.p.k.p.` k.x.Z.S.S.D.`.}.KXKXKXKX{.`./.D.h.h._ h.2.3.a.~.' l Y t 7 :XrX6X2X6 H ",
"V M ~ q.W.~.p.&.g.g.g.p.p.` ^ p.n.c.b.b.Z.G.].{..X.X}.'.J.G.S.f.h.g.g.h.2.V.E.x m 8XG t qXrX4Xy t ;X",
"=X, D ! } V.h.z.f.s.h.p.p.` ` p.l.l.z.z.c.Z.D.J.J.`.`.G.b.Z.Z.z.s.h.j.g.d.V.0.d 2 J m G rXfXyXu u >X",
"=X$ O l { i.d.c.f._ f.2.d.( -.B.h.1.4.6.z.c.A.Z.x.x.c.l.8.z.Z.c.4.h.M.j.V.9.~ O 0 =XM Z xXxXxXqX5 -X",
"#X5 a ,.0.).k.c.z.5.6.5.f.a.B.j.g.3.f.4.z.z.z.v.c.z.5.5.5.v.Z.v.f.g.B.V.E.{ T = =X;XZ 1XvXxXyXqX4 H ",
"rXe $XkXX.9.n.7.7.7.7.c.b.f.g.g.*.&.&.s.s.2.f.b.v.z.4.2.3.f.h.h._ =.B.I.X.! I 1 9 -XG J cXvXhX6X6 :X",
"&Xe p I  .} u.5.<.7.c.b.v.h.3.) &.*.g.g.s.f.z.v.c.z.6.3.3.s.s._ s.B.;.@.E N F * H ,XV 1 fXvXhX&X3 :X",
"&Xe p I j } >.;.&.s.N.N.v.f.2.5.2.a.h.v.b.C.Z.k.S.b.l.d.f.f./ ( ( m.T.@.~ Y >X8 u >X7 X i i &X- y 2X",
"i < K 1XsXO.:.~.B.!.!.B.N.d.4.5.5.4.f.l.b.G.F.A.n.S.S.d.d.f.f.%.u.T.Y.O.! 0X:X6 6 ;XC ; &X&Xe % 6 :X",
"n & V aXsXW O.y.HX>.I.m.Q.n.4.1.2.4.6.6.6.Z.Z.A.n.H./.S.k.h.n.m.W.e.[ E pX3Xu 6 6 F C B fX4X&X4 6 K ",
"M o V aXaXZ N ! O.[ } i.U.B.h.s.3.s.d.1.<.7.7.7.x./.(.^.V.U.I.9.{ j g N gXhX&Xy u >XC C jX4X:X4 X ; ",
"N & V uXwX9 > ,.T z l ,.e.:.-.M.*.*.&.) / <.<.<.c./.(.(.E.y.e.c l D g m lXvXi = ,XlX8XJ yXvXyX4 < K ",
"N b V qXwX3 e jXa O @ T ~ [ | m.!.;.&.&.3./ <.6.c.F.^.W.y.SX,.l G L C 1 hXcX&Xi y lXpXV fXxXhX% > H ",
"P < $XqX%Xy r U a # a VXkXx ..Y.-.;.;.M.) s.4.C.C.^.P.y.SXGXaX8 8X1XV -XnXBXnXy i gX8XJ fXvXrX6 > F ",
"p = $X*X#X6 t 0Xq # 7XBXVXU D c | -.Q.Q.m.m.p.u.i.r.{ o.DXNXuX@XwXqXV ;XcXCXxXr 4XlX<XH fXvXrX6 1 F ",
"t : :X4X#X* 2 I : + -XmXmX4Xq g { 9.E.E.W.r.9.X.c x g W sXNXyX@XwXqX5 ;XhXcXeXr i tXJ u fXvX6X= ; t ",
"1 1 wXyX%X* o m M & ;XMXZXhXi : x { 0.0.t.~ x d g f o 1XdXNXiX9 #Xu 5 ;XhXfX2Xr 6 :X7 t fXfX&X% $ 1 ",
"m C uXxX4X9 X : 2 & ,XZXZXxX#Xn d   x Q ,.S : + 3Xt $ tXbXbX,X4 4 3 & ;XjXfXp < < ,XV u 4XfX$X; 1 H ",
"G 1 8XxXqX9 ; B n 4 #XbXbXqXB 2 D + S Y jXP 6 y eX$X3 yXbXgX;X5 9 t , >XhXfXi q i 8XV V 6XfXK 1 t L ",
"U r wXhXqX#X1 F H = %XvXxX:Xb n L 8 8 5X5X8 3 9 tX$X4 hXxX8Xu 9 2XL B L jXi p = K 8XV ;XtXtXL n B ;X",
"2Xy rXxXyX:X5 1 u = &XBXmX0XM b H #X#XyX#Xu > H uX-X6 tXtX$X* * eX5Xn B K p < X H 8XV <XlXgX<X, F >X",
"9Xt eXxXnX$X7 > H > 4XAXbX,Xb b G 7 6 %Xy * > 2 I : $XyXwX$X* $ 6XtXt t 8XjX:Xs < F B L 9XgX>X1 H 8X",
">X7 wXcXmX4Xt : G > :XMXxX>X2 o b ; = $X2Xt : o o X 3XnXMXhX7 $ K -X6 6 tXlX5X$ > F t K tXlX3X7 t ;X"
};
