/* XPM */
static char *Untitled__18_1707921150[] = {
/* columns rows colors chars-per-pixel */
"50 50 256 2 ",
"   c #775D3C",
".  c #2C4B5C",
"X  c #224A5D",
"o  c #364B59",
"O  c #29545B",
"+  c #375459",
"@  c #3E4746",
"#  c #2C4D62",
"$  c #274B64",
"%  c #334D64",
"&  c #3A4D64",
"*  c #384A6E",
"=  c #2D5464",
"-  c #2C536C",
";  c #2E5B6C",
":  c #2A5865",
">  c #345365",
",  c #3B5363",
"<  c #335A65",
"1  c #3A5965",
"2  c #34546B",
"3  c #3B546B",
"4  c #345B6C",
"5  c #3A5C6C",
"6  c #2B5975",
"7  c #345574",
"8  c #3B5572",
"9  c #355B73",
"0  c #3B5C73",
"q  c #345B7A",
"w  c #3B5D7A",
"e  c #3C567A",
"r  c #394E76",
"t  c #3B636D",
"y  c #35646A",
"u  c #356375",
"i  c #3C6274",
"p  c #35637B",
"a  c #3C647B",
"s  c #3D6A7C",
"d  c #386A76",
"f  c #3A757D",
"g  c #2D656E",
"h  c #1F475F",
"j  c #47524E",
"k  c #57574A",
"l  c #474C5B",
"z  c #5B5A5C",
"x  c #4A5759",
"c  c #65585A",
"v  c #655748",
"b  c #796659",
"n  c #736C56",
"m  c #43556B",
"M  c #435B6C",
"N  c #4A5B6B",
"B  c #445763",
"V  c #435C73",
"C  c #4A5D75",
"Z  c #435D7B",
"A  c #465876",
"S  c #4B5570",
"D  c #46656C",
"F  c #54686A",
"G  c #446375",
"H  c #4C6274",
"J  c #44647B",
"K  c #4A647B",
"L  c #446B7C",
"P  c #4D6A7C",
"I  c #486A75",
"U  c #53647D",
"Y  c #536D7C",
"T  c #586876",
"R  c #43717D",
"E  c #49737C",
"W  c #57737C",
"Q  c #5E736E",
"!  c #786765",
"~  c #7A7566",
"^  c #666B77",
"/  c #6C7878",
"(  c #797974",
")  c #676E69",
"_  c #58605F",
"`  c #957557",
"'  c #8C6F51",
"]  c #A77557",
"[  c #AF7F4F",
"{  c #877866",
"}  c #897678",
"|  c #977C6E",
" . c #A6796A",
".. c #D47E55",
"X. c #3A817D",
"o. c #6A807D",
"O. c #ED9838",
"+. c #F8953D",
"@. c #F48A39",
"#. c #F0A036",
"$. c #B48757",
"%. c #94846D",
"&. c #B98966",
"*. c #A88874",
"=. c #B48877",
"-. c #AF926F",
";. c #C7885A",
":. c #D68757",
">. c #D99558",
",. c #D3934F",
"<. c #EE8347",
"1. c #F98B48",
"2. c #EB944A",
"3. c #FE9C43",
"4. c #FD9D4C",
"5. c #F69948",
"6. c #EA8A58",
"7. c #F6895A",
"8. c #E99559",
"9. c #F79957",
"0. c #DDB555",
"q. c #FDA345",
"w. c #FDA34C",
"e. c #FEAB4C",
"r. c #F5A646",
"t. c #FDB34C",
"y. c #FFA453",
"u. c #FFAB53",
"i. c #F6A757",
"p. c #FEB553",
"a. c #FFBC55",
"s. c #FDBC5B",
"d. c #F8B75A",
"f. c #EAAA52",
"g. c #C88A69",
"h. c #D38A67",
"j. c #D79465",
"k. c #C88F72",
"l. c #EA9964",
"z. c #EB8F69",
"x. c #D3B574",
"c. c #F7A868",
"v. c #FEB362",
"b. c #FEB96A",
"n. c #EAB377",
"m. c #EBCA5A",
"M. c #FFC25C",
"N. c #FAC859",
"B. c #F3D15D",
"V. c #FFC464",
"C. c #FFCA64",
"Z. c #FAC969",
"A. c #FFD56C",
"S. c #FBD668",
"D. c #FBCE73",
"F. c #FED473",
"G. c #FEDB74",
"H. c #FAD879",
"J. c #FEEA7D",
"K. c #FCE478",
"L. c #FFF57D",
"P. c #F7E776",
"I. c #DEC44D",
"U. c #3A5E82",
"Y. c #3B6483",
"T. c #3D6B82",
"R. c #396687",
"E. c #3E7384",
"W. c #377588",
"Q. c #3C7394",
"!. c #445C80",
"~. c #535D82",
"^. c #456582",
"/. c #4A6583",
"(. c #436B83",
"). c #4B6C83",
"_. c #446D8A",
"`. c #4C6C8A",
"'. c #48648A",
"]. c #536A83",
"[. c #526B8B",
"{. c #586985",
"}. c #457384",
"|. c #4B7485",
" X c #44748B",
".X c #4C748B",
"XX c #4C7A8B",
"oX c #467A88",
"OX c #537286",
"+X c #53758B",
"@X c #527B8C",
"#X c #5B7B8D",
"$X c #587889",
"%X c #4A6C95",
"&X c #4B7592",
"*X c #4C7C93",
"=X c #457896",
"-X c #537493",
";X c #547C93",
":X c #5A7E93",
">X c #587998",
",X c #556C95",
"<X c #637B8A",
"1X c #787391",
"2X c #6E7AA2",
"3X c #517DA0",
"4X c #3E8388",
"5X c #48848D",
"6X c #59828D",
"7X c #4A8496",
"8X c #558394",
"9X c #5B8395",
"0X c #54859B",
"qX c #5B849B",
"wX c #5B8A9C",
"eX c #578A98",
"rX c #4C929E",
"tX c #67828B",
"yX c #62849B",
"uX c #618B9D",
"iX c #658796",
"pX c #708E9A",
"aX c #5A8DA4",
"sX c #5588A7",
"dX c #4D91A8",
"fX c #5B94AA",
"gX c #5492B2",
"hX c #628CA2",
"jX c #6588A4",
"kX c #6391A4",
"lX c #6393AB",
"zX c #6998AC",
"xX c #679BB3",
"cX c #739DBC",
"vX c #778CAB",
"bX c #6BA3BA",
"nX c #66A3BA",
"mX c #72A2B9",
"MX c #5FA1C1",
"NX c #72A7C2",
"BX c #918D8C",
"VX c #AF9187",
"CX c #929DA8",
"ZX c #9BA29C",
"AX c #CAAF84",
"SX c #EDD083",
"DX c #FFEC85",
"FX c #FFEB8B",
"GX c #FBE685",
"HX c #FFF38C",
"JX c #FFF688",
"KX c #FFF692",
"LX c #FDFC95",
"PX c #FDFE9A",
"IX c #F4FD96",
"UX c #F3F993",
/* pixels */
"H o > L L $ # J Z Z :XhX#XJ m A %XR.6 f X.X.g < L C ~.2XvX#Xa = G 0 6 E.oX0XyXe 7 ^.U.6 i G B B C ^.",
"C + < |.}.< 2 P K Z ;XuX+XG 3 C -X_.6 W.E.f g y ).G 3 P +Xa ; X G 3 ; T. XeXqX8 $ e 7 - L OXM & 0 J ",
"H 1 i 5XXX9 2 K /.m OXqX+X0 , C $X).a +X[.).0 i L y O y }.E.E.p J 3 < I |.eXiX% 8 0 q p 8XyXH % G P ",
"H M G 6XXX9 2 K Z 2 |.qX@X0 & C <XY C #X-X-XZ 0 |.I < y oXoX Xp Y M O d 5XiX#X. & 8 4 a hXhXJ # V J ",
"M , 5 oX|.9 5 K K % (.8XOX8 & C tX<XH :X>X>Xq 7 L G < t XX*X&X9 K N O t 6XuX<X> % 3 2 a hXkX).2 J J ",
"3 > 5 E R ; % 8 Z % 0 .XR 9 % A <XH i 9XhX>Xa q L i = a @X>X;Xw C M . t eXkXtXm , 3 = i eXaXY.- 2 3 ",
"3 3 i }.(.; % 3 8 % L ;XXXJ 3 m .Xp 9 qXkXiX(.a qX-XU.,X2XqX.X2 V M O d eXzX9XD N m . = XX;Xu $ J P ",
"3 > d |.oXi 3 8 m 3 :XzXkX:XK e '.Y.p wXkXiXP J sX%XU.3XhXiXOX5 G a g f fXzXqXZ {.Y < t 8XwX X0 w Z ",
"3 2 i s R i > K C Z G 8X;X;XZ Z R.%X'.[.K C & J :X>Xe %XkX9XE t G _.R.W.dXMXsX6 K I 5 t 9XkX.X9 J P ",
"3 > 9 ; u 0 2 C K V 9 .XXX`.e e 3X%X!.>X#X{.m m 1X<X& m Y E D 1 K J 6 W.dXMXdXU.).].t D 6XwX|.i G J ",
"G 0 s s }.|.J Y ].G i 8XqXqX/.!.,X%XU.-X>X$XB z BX} ! { ~ ) _ + T ).R.Q.gXMXdXU./.K 5 5 E @Xa 9 J (.",
"0 2 u oXeX+X8 C K 8 0 qXhXjX/.Z '.,XY..X).G x b =.k... .-.$.o.k x T a E.dXMXgXU.7 V 4 t E R 4 $ a J ",
"0 $ u eXkX.X% C C 3 0 qXlXjX`./.,X[.^..XI _ k ` h.7...7.l.j.&.' v c m L sXMXgXU.9 0 2 t @XXX9 - 0 a ",
"/.- s kXzX|.% ].].C 0 8XwX>X/.[.,X'.G W / { ` ;.6.7.1.9.9.c.8...` b j D 7XsX3XU.!.w 2 5 XX@Xa 9 '..X",
"^.- s wXkXG = Y U V 7 ;X*X_.w '.0X`.N } =.h.:.7.1.1.4.y.4.3.y.2.j.` k x |.XXE.6 '.Z 2 4 XX.Xp q .X;X",
"^.0  XaXuXL % {.U J a aX0X.XZ /.:XT c  .h.7.<.1.4.w.e.q.@.@.q.w.l.;.' n o.iX>X7 ^.J 5 t XX Xw q (. X",
"G 0 XXfX0X(.m {.U Z _.sXlXsXK _ ~ ` ] ;.6...@.+.u.p.e.5.O.5.5.r.5.,.$.' n o.<X).J K B 1 E oXu e ^. X",
"V 2 .XfXaX^.m T {.7 U.Q.=X^.l c %.g.j.8.1.+.3.q.V.C.C.Z.C.V.s.f.5.5.2.$.$.' F . J ]., + f E.7 8 J ).",
"m #  XxXxX X3 {.U * Y.sX>XG l b &.n.c.v.4.5.u.p.M.N.S.GXGXGXH.s.r.y.i.l.&. .1XB G ).4 O g f 7 * 2 q ",
"C >  XbXbX.XV {.C 3 .XhXpX^ ! ] j.b.b.v.u.q.p.M.r.0.S.JXKXPXGXV.d.u.u.9.j.g.} T ).8XL ; E.5XK A w ^.",
"Y 3 *XbXbX7XZ $X[.V ).+X^ }  .g.8.u.p.M.a.t.M.C.m.m.GXIXLXLXFXZ.s.e.3.1...AX*.^ OXqX.Xd 5X7XJ 3 J +X",
"{.3 *XbXnX7Xa $X$XJ P I F | g.8.4.q.q.t.p.t.V.A.H.P.IXIXIXPXFXZ.M.e.3.1...z.*.) P >X`.Y.oX5X5 = J .X",
"U V ;XnXxX5Xd +X+X0 L F ! =.z.1.1.+.#.t.r.t.C.G.HXLXIXIXIXPXHXH.N.a.+.1.....' @ Y >X{.!.8X5Xy : (.-X",
"C V ;XxXxX7Xa +X$X2 5 F '  .6.@.@.q.e.+.#.r.C.K.KXPXIXIXIXIXDXS.S.M.e.3.1.7.' j V /.A A @X5Xg : L +X",
"C 3 ;XfXaXW.p L J 4 5 F ~ [ ..@.+.+.4.4.O.5.D.FXKXIXPXPXPXLXJXS.N.N.t.+.4.:.n j 3 Z r ~.|.s g = i ^.",
"& . .XfXaXoXs )..X0 i Q | [ <.1.y.w.y.y.2.r.D.KXGXUXPXKXKXKXDXm.B.N.M.e.i.>.b + L '.A ^.oXs d 4 - 0 ",
"S 2 .XaX0X}.J OX:XY.i W } g.2.4.d.v.v.y.+.5.A.FXGXGXUXKXHXJXJ.m.I.m.a.w.8.j.' j J `.w w f oX+X].9 G ",
"C 3 |.0XXXd G ).>X(.s $Xo.&.8.4.b.b.v.4.O.2.b.GXH.P.FXUXHXJXJ.B.m.S.V.f.l.k.! B G  Xp u f oX-X[.8 J ",
"m 2 oXwX8X|.G {.-X_.=X8X~ %.>.v.H.D.b.u.O.O.d.G.S.H.GXDXGXJ.K.N.S.A.Z.i.j.k.! o G .Xa d f 4X&X!.w /.",
"J > J XX}.I C ].`.R.=X8XQ n ;.b.GXGXF.a.#.O.r.V.F.G.DXDXJ.K.S.N.M.v.v.>.k. .c o 8 L 0 d 4X7X*X'.J `.",
"K # 4 a i 1 o C w Y.Q.7XF n [ l.D.G.A.N.t.#.#.t.A.G.JXJXJXP.S.d.e.w.9.,.k.VX^ l m C M G 5XrXsX%X7 J ",
"K 7 ).8X9XY m m e q W.5XD j ' ;.f.s.a.a.t.#.O.e.V.A.J.JXL.P.Z.0.2.2.,.$.*.BXT 3 C U N I 7XdXsX=X6 J ",
"-Xe ).hX9XG C C C - T.8X@XF z ` 6.1.9.4.u.u.r.#.a.N.S.L.JXP.B.A.n.-.b   o.o.W M M H N I kXaXsX=Xq (.",
"[.e 9 XX|.5 1 K K 2 L 8X6XI B ! :.6.6.8.8.i.9.w.a.N.S.L.JXGXD.x.AX-.k j T P M . D W D M :X0XsXQ.6 T.",
"'.0 9 }.|.4 > ].].9 (.eX9XP B z | $.$.$.j.j.2.4.s.N.B.S.GXSX=.` %.{ j j U ).^.q M H M . '.E.R.6 u ).",
"!.w a @X6XG % P K 4 s eXwXP + B ) n ~ %.*.g.:.2.r.t.d.m.x.VX} c ( / B V -X&XR.U.0 H D + |.R.R.h q (.",
"A 8 i 8X9Xt 1 P J ; E.aXeXR > N D t F o.VXVXg.h.8.,.,.$.-.ZX1XS T T 3 ^.3X3XR.U.7 H 5 M <XOX'.6 4 L ",
"8 2 t XX@Xi 5 +X/.9 W.7XeXL < G a u d tXCXVXVXk.&.[ ' { BXmX2Xr !.C 7 Y.sXsXR.U.w ).G M #XOX(.2 X 2 ",
"Z 2 0 @XE t G #X).9 T.7X7X(.3 J %XY.a #XvXBX} } { c l F pXCXfX!.[.[.w R.sX3XQ.6 .XyX#XG :X9X;X- 5 L ",
"P 2 i @XE < G OX).- 6 W.7XT.2 C [.U.9 L +XD l l ^ S m /.kXzX0X9 ^./.7 Y.sXjX3XR.a yX#Xi #XuX;X: 2 G ",
"P 5 L oXR t i ].a 6 W.bXxXp 2 J {.Z Z ;X8X).8 * '.'.U.W.fXzX9X0 OXOX0 (.zXNXlXY.T.qXoXJ 8XeX*X; 4 G ",
"J < L R t 5 5 OXi 6 =XbXbXoX9 A ].Z ^.;X0X).q r %XR.U.=XfXzXeX9 OXOX0 d jXzXwXu  XwX}.s 8XeX7X; 4 G ",
"Z 2 L R y < < ].w $ W.xXxX*XZ V G u E.7XsX_.q e ^.i g  XhXlX>XZ OXY 5 G yXiX@Xu s *Xs p *XwXoX- = 8 ",
"e 9 XX8XL = = 0 7 - R.fXxX;XJ M y ; d 7X7XE.q Z G 1 O E hXjX>XZ G i > G iX#X|.4 4 }.u p *X8XW.: = 5 ",
"w w ;XwX}.< % 8 7 -  XcXmX>XK 3 0 ; p Q.7XE.0 M Y M O E uXyX,Xr 4 4 # I #X$XG 4 4 ).p p ;X8XL < 4 J ",
"J w XX8XoXi > V 0 - R.aXkX.XA m /.q p 5X5Xs 4 5 $XI y XXkXqX'.8 9 p 4 ).yX$XE 4 a |.a p .X+XP 9 G /.",
"`.w XX8X|.i 3 G ^.- p 0XqXL m A {.!.L |.oXy : t #XT.6 7XaX.XI 3  X_.p (.#X|.J 2 L +Xa G #X#XP 3 0 ).",
"`.^.XXwXXXL 4 0 /.7  XxXcX-XA m ~.Z J oXf < + i ;XT.p =X0Xa 1 > *X=Xp q (.a 5 # J .XJ ].yXyXY < G ).",
"-XJ &XaXfXT.i 1 K 2 _.cXaX`.m , H C 9 p d = 1 + P < ^.*X*XT.> . -X*Xp u +X:XL h 2 i i L :XyX).5 J OX",
").0 &XfXxX}.i 1 G 2 _.cXjX^., o B < ; R. X0 1 o + . `.zXxXsX8 % J (.9 9 :XuXOX. 5 0 0 P :X9X).9 i /."
};
