/* XPM */
static char *_2142a8f7aea46e2bcd25d18e2ab3f01b6zXzk3cIPjivz7g[] = {
/* columns rows colors chars-per-pixel */
"50 50 189 2 ",
"   c #050E10",
".  c #1A241D",
"X  c #1D291E",
"o  c #1F2A21",
"O  c #272E28",
"+  c #253221",
"@  c #2B3B24",
"#  c #2B3A25",
"$  c #313E2A",
"%  c #2F4223",
"&  c #314424",
"*  c #364B26",
"=  c #384F26",
"-  c #334529",
";  c #374A28",
":  c #394F29",
">  c #3B5326",
",  c #3F5827",
"<  c #3C542A",
"1  c #3F582A",
"2  c #3F5331",
"3  c #414F2E",
"4  c #455627",
"5  c #425D27",
"6  c #41542C",
"7  c #435B2C",
"8  c #4B5B2C",
"9  c #525F2A",
"0  c #4B4F33",
"q  c #425531",
"w  c #455A32",
"e  c #4B5D33",
"r  c #4B5B39",
"t  c #535B39",
"y  c #555A38",
"u  c #46612D",
"i  c #49652D",
"p  c #4B692E",
"a  c #576A2B",
"s  c #52712B",
"d  c #59732B",
"f  c #55782C",
"g  c #597D2D",
"h  c #476131",
"j  c #4A6432",
"k  c #4D6A32",
"l  c #4D633A",
"z  c #5B6436",
"x  c #506B36",
"c  c #5D633C",
"v  c #536C3B",
"b  c #577337",
"n  c #6D7A2D",
"m  c #717F2D",
"M  c #606537",
"N  c #697338",
"B  c #747D34",
"V  c #7A7E3D",
"C  c #58554F",
"Z  c #5F6541",
"A  c #566D41",
"S  c #656542",
"D  c #676743",
"F  c #716946",
"G  c #6E7141",
"H  c #767647",
"J  c #706A61",
"K  c #817D4E",
"L  c #867E53",
"P  c #80786D",
"I  c #5E832E",
"U  c #628A2F",
"Y  c #78852E",
"T  c #648C30",
"R  c #778E3F",
"E  c #679130",
"W  c #6B9531",
"Q  c #6E9B33",
"!  c #719E33",
"~  c #7D9E3F",
"^  c #75A334",
"/  c #7CA735",
"(  c #7CA638",
")  c #7D8E45",
"_  c #879634",
"`  c #929F35",
"'  c #88A735",
"]  c #84AA36",
"[  c #8DAD36",
"{  c #84AA3B",
"}  c #97A737",
"|  c #91AE36",
" . c #8EB036",
".. c #92B137",
"X. c #9AB436",
"o. c #97B338",
"O. c #9CB439",
"+. c #A3AF3C",
"@. c #A2B539",
"#. c #A6BA39",
"$. c #ADBC3A",
"%. c #B1BC3E",
"&. c #84844B",
"*. c #8B9545",
"=. c #829A44",
"-. c #9C9C49",
";. c #938B53",
":. c #928659",
">. c #968B5A",
",. c #88A942",
"<. c #9AAA47",
"1. c #95A050",
"2. c #B5AE49",
"3. c #AEB246",
"4. c #B3B346",
"5. c #B2BB43",
"6. c #B8B24C",
"7. c #AAA358",
"8. c #B5A452",
"9. c #BDA756",
"0. c #B4AF57",
"q. c #BFA15A",
"w. c #A5B357",
"e. c #BFB85D",
"r. c #A79562",
"t. c #9AA271",
"y. c #B8A76A",
"u. c #A3B962",
"i. c #ABB07E",
"p. c #C0B95C",
"a. c #C39B61",
"s. c #C89C6C",
"d. c #CB9F71",
"f. c #C6A168",
"g. c #C8B26A",
"h. c #C7A871",
"j. c #D1AA7A",
"k. c #CAB671",
"l. c #B9C245",
"z. c #BBC248",
"x. c #BAC160",
"c. c #C1C54E",
"v. c #C4C651",
"b. c #C6C852",
"n. c #C9C956",
"m. c #CECA5C",
"M. c #D5D15F",
"N. c #CDC364",
"B. c #CAC96A",
"V. c #D6CE64",
"C. c #D5CC69",
"Z. c #D9D166",
"A. c #DDD16A",
"S. c #DBC27C",
"D. c #DAD179",
"F. c #E1D46E",
"G. c #E4CE7B",
"H. c #E4D572",
"J. c #E9D776",
"K. c #E8D678",
"L. c #EDD97B",
"P. c #F1DA7E",
"I. c #AC9D8E",
"U. c #D5AC82",
"Y. c #DAAF8A",
"T. c #D7B384",
"R. c #C0AF9E",
"E. c #DEB592",
"W. c #E0BE97",
"Q. c #C9B6A4",
"!. c #C6C38B",
"~. c #C9CA95",
"^. c #EFD682",
"/. c #F5DC83",
"(. c #F9DE87",
"). c #F7DB88",
"_. c #FADE89",
"`. c #F8E083",
"'. c #FEE18D",
"]. c #FFE492",
"[. c #DFC9B4",
"{. c #EAC8A9",
"}. c #EAD3BE",
"|. c #F2D3B6",
" X c #F4D7BD",
".X c #EED6C0",
"XX c #F4DBC4",
"oX c #F9DDC3",
"OX c #FDE2CB",
/* pixels */
"p p k v v k p p p v v k p p p p p p p p p k v x k v v p p p p p p p v v k v v k p p p k A k p p k k ",
"x k k v v k k k k k x k p k k k p k k k p k v v k v v k k k k k k k v v k v v k k k k k x k k k k p ",
"A v k v v k v v k p k k p j v v x v v p p j v k k v k j v v k v v x v v k k v k k v k p k p k v x p ",
"A v k k k k v v k p k v w < r c D D c 8 1 < 1 u k k u 1 2 q 8 c D D D Z e e j k x A k k v k k v v p ",
"v k k k k k x x k p j w w e H :.r.r.;.B M t e e u 7 8 e t M B ;.r.r.r.>.G e 1 p k v k k A k k A v p ",
"k k k v v k p k k p u q z &.y.S.)._.H.5.-.:.K Z q < c K :.-.5.H._.)._.G.7.N 6 7 j k k k v k k v x p ",
"v k k v v k p k v < 3 K 7.e.C.L.'.].H.z.N.S.k.>.D D ;.k.S.N.z.H.].'.`.J.N.7.K 3 < v k k A k k k k p ",
"A v k v v p p j r r H g.G.H.F.J.(.'.L.m.F.`.).y.L L y.).`.F.m.L.'.(.J.A.H.G.g.H r r j k v k p p p p ",
"A v k v v k k 1 $ L S.)._./.A.A.J.(.(.K.m.m.^.h.:.:.h.^.m.m.K.(.(.J.A.A./._.).S.L $ 1 k k k p p p p ",
"A v k k k p k < + V V._.].'./.H.V.M.0.H M z F D y y D F M M H 0.M.V.H./.'.]._.V.V + < k v k k v k p ",
"v x p p k k u 6 0 *.n.J.P.L.P.F.v.@.n + X X o @ & & @ X X X + n @.v.F.P.L.P.J.n.*.0 6 h v k k v v p ",
"k k p p x v - y y.G.J.n.v.v.v.b.5.B 8 < 1 w l j u u u 7 7 7 q 8 B 5.b.v.v.v.n.J.G.y.y - v x k v v p ",
"p k x k k l - M k._._.F.A.A.A.A.m.-.N 8 7 h l k k k k j 7 7 e N -.m.A.A.A.A.F._._.k.M - l k k x k p ",
"p v v k h e 8 B p.K._._.(.(._./.H.b.} a 4 6 w w u u e w 6 4 a } b.H./._.(.(._._.K.p.B 8 e h p p k k ",
"p v v h 7 8 B ` 5.m.F.F.F.F.H.V.b.l.#.} n 9 8 6 * * 6 8 9 n } #.l.b.V.H.F.F.F.F.m.5.` n 8 7 u p x v ",
"p v v w 4 a _ #.$.z.v.v.v.v.v.z.5.$.$.$.` Y m a 8 8 a Y Y ` $.$.$.5.z.v.v.v.v.v.z.$.#._ a 6 7 p v A ",
"p x l < 4 n } $.$.$.$.$.%.5.%.%.$.$.$.$.%.$.+._ Y Y _ +.$.%.$.$.$.$.$.$.$.$.$.$.$.$.$.} n 8 2 p v A ",
"p j w < a _ @.$.$.$.$.5.n.V.n.z.$.$.$.%.n.Z.m.5.} } 5.m.Z.n.%.$.$.$.$.$.$.$.$.$.$.$.$.@._ a < 7 j k ",
"p u 1 = d ' #.$.$.$.$.z.A./.A.v.$.$.#.@.C./.L.Z.n.n.Z.L./.C.@.#.$.$.$.$.$.$.$.$.$.$.$.#.' d > 1 h k ",
"p u 1 = d | #.$.$.$.$.z.A./.A.v.$.$.X.{ B.'._.(././.(._.'.B.{ X.$.$.$.$.$.$.$.$.$.$.$.#.| d = 1 j v ",
"p u 1 = d | #.$.$.$.$.%.c.n.c.l.$.$.X.{ B.'._._._._._._.'.B.{ X.$.$.$.$.$.$.$.$.$.$.$.#.| d = 1 h x ",
"k u 1 = d | #.$.$.$.$.$.$.#.$.$.$.$.@.| x.D.D.D.D.D.D.D.D.x.| @.$.$.$.$.$.$.$.$.$.$.$.#.| d = 1 u p ",
"v j 1 = d | #.$.$.$.$.$.$.$.$.$.$.$.$.3.w.u.u.u.u.u.u.u.u.w.3.$.$.$.$.$.$.$.$.$.$.$.$.#.| d = 1 u p ",
"A l 1 = d | #.$.$.$.$.$.$.$.$.$.$.$.6.g.!.~.!.i.t.t.i.!.~.!.g.6.$.$.$.$.$.$.$.$.$.$.$.#.| d = 1 u p ",
"v j 1 = d [ #.$.$.$.$.$.$.$.$.$.%.2.g.W. XoX[.I.P P I.[.oX XW.g.2.%.$.$.$.$.$.$.$.$.$.#.[ d = 1 u p ",
"k u 1 = s ] O.#.$.$.$.$.$.$.$.%.2.q.U.|.OXXXQ.J O O J Q.XXOX|.U.q.2.%.$.$.$.$.$.$.$.#.O.] s < w h p ",
"p h w : s / o.#.$.$.$.$.$.$.$.4.9.a.Y.oXOX.XR.C     C R..XOXoXY.a.9.4.$.$.$.$.$.$.$.#.o./ s < w j p ",
"p h q < p ! [ O.#.$.$.$.$.$.$.4.9.a.U.|.OXXXQ.J O O J Q.XXOX|.U.a.9.4.$.$.$.$.$.$.#.O.[ ! p < q h k ",
"p 1 ; 7 p g ! [ #.$.$.$.$.$.$.$.4.q.d.Y.|.OX}.Q.I.I.Q.}.OX|.Y.d.q.4.$.$.$.$.$.$.$.#.[ ! g p 7 ; 1 p ",
"p < & p I I W / ..#.$.$.$.$.$.$.$.2.q.d.E.{.{.|.XXXX|.{.{.E.d.q.2.$.$.$.$.$.$.$.#.../ W I I p & < p ",
"7 < > U ^ ^ ^ ^ ^ ..#.$.$.$.$.$.$.$.2.a.s.h.U.{. X X{.U.h.s.a.2.$.$.$.$.$.$.$.#...^ ^ ^ ^ ^ U > < 7 ",
"@ , I ! ^ ^ Q Q ^ / [ #.$.$.$.$.$.$.$.4.2.8.f.j.T.T.j.f.8.2.4.$.$.$.$.$.$.$.#.[ / ^ Q Q ^ ^ ! I , @ ",
". 5 ^ ^ ^ ^ T I E Q / ..@.#.$.$.$.$.$.$.O.<.8.8.8.8.8.8.<.O.$.$.$.$.$.$.#.@.../ Q E I T ^ ^ ^ ^ 5 . ",
"X 5 ^ ^ ^ ! g p s T ^ / [ @.#.$.$.$.$.$.[ ] X.O.O.O.O.X.] [ $.$.$.$.$.#.@.[ / ^ T s p g ! ^ ^ ^ 5 X ",
"X 5 ^ ^ ^ ! I u 1 p I ^ ] [ X.@.#.$.$.#.[ /  ......... ./ [ #.$.$.#.@.X.[ ] ^ I p 7 i I ! ^ ^ ^ 5 X ",
"X 5 ^ ^ ^ ^ g 7 = > i U ! / ] ..O.@.#.#.| ] ..X.o.o.X...] | #.#.@.O...] / ! U i < : 5 g ^ ^ ^ ^ 5 X ",
"X 5 ^ ^ ^ ! i * 1 1 1 u I ^ / / ] [ o.#.O.O.#.#.#.#.#.#.O.O.#.o.[ ] / / ^ I u 1 1 7 * i ! ^ ^ ^ 5 X ",
"@ , g ( ,.R e : u * & p T ! T U W ^ ] ......o.o.o.o.o.o.......] ^ W U T ! T p & ; u = 8 R ,.( g , @ ",
"7 < 7 *.1.H t q 7 & = I ^ Q g s f W ^ / / / / / / / / / / / / ^ W f s g Q ! I = - 7 1 e H 1.*.7 < 7 ",
"u 6 y ;.&.q 7 1 @ u T Q ^ ^ Q f 5 g Q ^ / ^ ^ ^ ^ ^ ^ ^ / / ^ Q g 5 f Q ^ ^ Q T u @ 1 7 q &.;.y 6 u ",
"p 7 0 D D q p 1 + p ^ ^ ^ ^ ^ T p i i p p g Q ^ ! ! ! Q g p p p i p T ^ ^ ^ ^ ^ p + 6 j 1 c D 0 e k ",
"p u 7 ; q v x 7 @ u T ! ^ ^ ^ Q U 1 @ + + : g U U U U g = + + @ 1 T Q ^ ^ ^ ! T u @ r v j < ; 7 l A ",
"p k l 7 h A x j e - > W ^ ^ ^ U u q 2 < q q * * * * * * 2 q < q w u I Q ^ / W > & 7 v v k j j p v A ",
"p k v k k v k k l $ % E ^ ^ ! f = q j k v l & % % & & & l v k v r : i U ! / E % @ u v x k v v k v A ",
"p k k k p k k u : < p Q / ! T p < 7 p k v v j p j v l j v v k v l < , s Q / Q p < : u k k v v k v A ",
"p k v k p p x w @ N 1.{ ,.=.x 7 w h p p k k k p k v v k v v k k j 7 > k =.,.{ 1.N @ 1 p k v v k k k ",
"p v v k p k v r @ H w.~ ) ) i w l k k k k p p p k v v k v v k k k u 1 j ) =.=.w.H & 1 p p v v k k k ",
"p x v k p k v v u x b b b x p k v k k v k p p p k v v k k k k v v k p p x b b b v l k p p k k p v v ",
"p k k k p k v v k k k j p p p x v k k v k k v k k k k k k k k v v k k x k k k p k x k k v k p p v A ",
"p p p p p k v v k v v k p p p x v k k v k k A v k k p k v v k v v k v v k p p p p p p k v k p p v A "
};
