/* XPM */
static char *e3c2c603feb34d91d50c5ab933f77031BJrkIRmJ9nMEBa4X[] = {
/* columns rows colors chars-per-pixel */
"50 50 168 2 ",
"   c None",
".  c #6A5765",
"X  c #6D5867",
"o  c #655E6E",
"O  c #6D5C6A",
"+  c #715967",
"@  c #735C6A",
"#  c #7C5E6B",
"$  c #6C606F",
"%  c #70606E",
"&  c #7E636E",
"*  c #666676",
"=  c #6D6371",
"-  c #686877",
";  c #656D7D",
":  c #696A79",
">  c #726472",
",  c #7B6571",
"<  c #756975",
"1  c #746C79",
"2  c #825E6D",
"3  c #85616E",
"4  c #8A646F",
"5  c #826670",
"6  c #8C6472",
"7  c #846A73",
"8  c #8B6C74",
"9  c #926672",
"0  c #996776",
"q  c #966873",
"w  c #9C6A76",
"e  c #9E6F78",
"r  c #8B7076",
"t  c #917176",
"y  c #9E7177",
"u  c #947479",
"i  c #9C7279",
"p  c #95797C",
"a  c #9F7B7F",
"s  c #A56D76",
"d  c #A96F77",
"f  c #A46C78",
"g  c #AA6F7A",
"h  c #A47077",
"j  c #AA7077",
"k  c #A5737B",
"l  c #AE717B",
"z  c #A27A7D",
"x  c #AC797F",
"c  c #B0737D",
"v  c #B9777D",
"b  c #B67C7F",
"n  c #CE767F",
"m  c #C07A7F",
"M  c #5F7485",
"N  c #637787",
"B  c #6D7382",
"V  c #637788",
"C  c #657989",
"Z  c #6B7D8C",
"A  c #727582",
"S  c #767985",
"D  c #767F8B",
"F  c #A57F81",
"G  c #AB7D81",
"H  c #B17D81",
"J  c #BA7F82",
"K  c #CC7F82",
"L  c #7A818C",
"P  c #6D8897",
"I  c #728290",
"U  c #788B97",
"Y  c #748B99",
"T  c #7E8F9A",
"R  c #76919D",
"E  c #7E929C",
"W  c #7C96A1",
"Q  c #82969F",
"!  c #A68282",
"~  c #AC8384",
"^  c #B28686",
"/  c #BD8384",
"(  c #B18A87",
")  c #BD8986",
"_  c #B78788",
"`  c #BC8588",
"'  c #B58B8A",
"]  c #BA8D8B",
"[  c #BE938E",
"{  c #BD9E97",
"}  c #839BA4",
"|  c #C18E8C",
" . c #DA8486",
".. c #D58B89",
"X. c #D98F8B",
"o. c #C2928E",
"O. c #C9928B",
"+. c #DC918D",
"@. c #C49590",
"#. c #C09B91",
"$. c #C99E93",
"%. c #D59B91",
"&. c #D89D92",
"*. c #E28587",
"=. c #E18588",
"-. c #E48C8B",
";. c #E0938E",
":. c #E69791",
">. c #E89791",
",. c #EC9D94",
"<. c #CAA396",
"1. c #D1A195",
"2. c #DBA295",
"3. c #D1A399",
"4. c #DFB09E",
"5. c #E0A497",
"6. c #EBA297",
"7. c #E3A799",
"8. c #EEA69A",
"9. c #E3AB9B",
"0. c #EEA99B",
"q. c #F2A197",
"w. c #F1A79A",
"e. c #F1A99B",
"r. c #E5B29F",
"t. c #DEB2A4",
"y. c #E2B7A2",
"u. c #EBB5A1",
"i. c #E9BCA5",
"p. c #F3B6A2",
"a. c #F4BEA7",
"s. c #E8C2AB",
"d. c #F6C4AA",
"f. c #F8C4AD",
"g. c #FCC6AC",
"h. c #FAC4AA",
"j. c #FBCAAE",
"k. c #FBCBAF",
"l. c #FBC9AD",
"z. c #FCCAAE",
"x. c #FCCBAE",
"c. c #FCCBAF",
"v. c #FDCBAE",
"b. c #FDC8AD",
"n. c #FCCCAF",
"m. c #FFCCAF",
"M. c #FCCBAE",
"N. c #E8C6B0",
"B. c #E8CBB4",
"V. c #E7CEB8",
"C. c #FFCEB1",
"Z. c #FCCDB0",
"A. c #FDCDB1",
"S. c #E7D3BC",
"D. c #E8D0B9",
"F. c #F7D2B7",
"G. c #FBD2B6",
"H. c #FED3B7",
"J. c #FCD1B4",
"K. c #F7D5BA",
"L. c #FDD6BD",
"P. c #F7D9BE",
"I. c #FBD8BC",
"U. c #FCD9BF",
"Y. c #E7D7C0",
"T. c #E7D8C2",
"R. c #F6E1C6",
"E. c #FDE1C4",
/* pixels */
"                    7 & + & 7 7 7 7 7 7 7 7 7 & + & 7 7 7 7 7 7 7 7 7 7 & + & 7                     ",
"              & 6 ! d.5.& 5.d.f.d.P.F.F.R.P.d.2.& 7.d.f.d.P.F.F.R.R.P.d.2.& 5.d.! 6 &               ",
"          6 p { f.x.x.i.& s.m.l.l.l.l.l.l.l.x.i.& d.x.l.l.l.l.l.l.l.l.x.i.& s.C.x.f.{ p 6           ",
"        q 3.L.E.I.x.x.r.& r.x.m.m.m.m.m.m.m.x.9.& u.x.m.m.m.m.m.m.m.m.x.r.& u.x.x.I.E.L.3.q         ",
"      z t.U.J.l.h.p.8.+.& +.w.e.e.e.e.e.e.e.w.X.& ;.w.e.e.e.e.e.e.e.e.w.+.& +.8.p.h.l.J.U.t.z       ",
"    . 1.H.J.l.h.0.-.*.n @ 9 q q q q q q q q q 9 + q q q q q q q q q q q 9 @ n *.-.0.h.l.J.H.1..     ",
"  X ) a.x.l.a.6.-.K 4 2 + 5 q w w w w w w q 2 X X ; O . # q w w w w w q 5 + 2 4 K -.6.a.l.x.a.) X   ",
"  @ 4.x.l.l.e.-.m # X X 6 f g g g g g g g g w X X M O X q g g g g g g g f 6 X X # m -.e.l.l.x.4.@   ",
"@ %.d.l.l.p.>.v + X + @ # # # # # # # # # # @ X X M O X + + + + + + + + + + X X X + v >.p.n.l.d.%.@ ",
"@ i.x.l.C.8. .h X # 0 g j x x x x x x x x g 6 X O N O X @ # & & & & & & & & & # @ X h  .8.C.l.x.i.@ ",
"@ u.m.C.x.w.j . # f j c ) @.@.@.@.@.@.@.o./ f X O I O X w J o.@.@.@.@.@.@.@.) c f # . j w.x.C.m.u.@ ",
"+ ~ [ #.] b 9 . # q q q a a a a a a a a a i 4 X O Z O X 3 i z a a a a a a a z q q # . 9 b ] #.[ ~ + ",
"+ z ( ( ~ k 4 X X . + 6 u u u u u u u u u u u 4 O Z O 3 u u u u u u u u u u 6 + . X X 4 k ~ ( ( z + ",
"@ r.m.C.g.q.j o ; B : 6 o.@.@.@.@.@.@.@.@.@.@.^ @ C O G @.@.@.@.@.@.@.@.@.o.6 : B ; o j q.f.C.m.r.@ ",
"@ D.H.l.C.w.d - Y W Z @ [ @.@.@.@.@.@.@.@.@.@.] @ Z O ' @.@.@.@.@.@.@.@.@.[ @ Z W Y - d w.A.l.H.D.@ ",
"@ Y.H.l.m.w.d O > < , k o.@.@.@.@.@.@.@.@.@.@.' @ I $ ^ @.@.@.@.@.@.@.@.@.o.k , < > O d w.m.l.H.Y.@ ",
"@ s.C.l.m.w.d # k ( ' _ ] ] ] ] ] ] ] ] ] ] _ f @ } > w _ ] ] ] ] ] ] ] ] ] _ ^ ^ k # d w.m.l.C.s.@ ",
"@ D.H.l.m.w.j . + @ @ @ @ @ @ @ @ @ @ @ @ + + + @ } > # & 5 5 5 5 5 5 5 5 5 5 5 5 & X j w.m.l.H.D.@ ",
"@ i.x.l.m.w.j X # # # # # # # # # # # # # # # @ @ E % k ] @.o.o.o.o.o.o.o.o.o.o.@./ 3 d w.m.l.x.i.@ ",
"@ i.x.l.C.e.d # g j j l l l j j j j j j j j g q @ U % ' @.@.@.@.@.@.@.@.@.@.@.@.@.@.8 d e.C.l.x.i.@ ",
"@ 9.x.C.h.q.j # g l l l l l l l l l c c l l j w @ T % G o.@.@.@.@.@.@.@.@.@.@.@.@.| 6 j q.h.C.x.9.@ ",
"+ i ! ! z h 3 + 2 3 3 3 3 3 3 3 3 3 4 6 3 3 3 # O I O 2 8 t t t t t t t t t t t t 6 @ 3 h z ! ! i + ",
"+ ^ $.<.o./ q # y ! ! ! ! ! ! ! ! ! ! ! ! ! F 9 O C O 6 z ! F F F F F F F F F F ! y # q / o.<.$.^ + ",
"@ u.C.C.x.w.d 8 o.@.@.@.@.@.@.@.@.@.@.@.@.@.@.^ @ M O ~ o.@.@.@.@.@.@.@.@.@.@.@.@.o.8 d w.x.C.C.u.@ ",
"@ S.H.l.m.w.d 8 @.@.@.@.@.@.@.@.@.@.@.@.@.` k , @ O O , e ` @.@.@.@.@.@.@.@.@.@.@.@.8 d w.m.l.H.S.@ ",
"% S.H.l.m.w.d # x ] ' ' ' ' ' ' ] ' ' ] ^ y > } Q % T } 1 w ^ ' ' ' ' ' ' ' ' ' ' x # d w.m.l.H.S.@ ",
"@ s.C.l.m.w.j . + X X X X X X X X X X X X X = Y } % I } 1 @ 3 7 7 7 7 7 7 7 7 7 7 & + j w.m.l.C.s.@ ",
"@ V.J.l.m.w.j . + # 3 3 3 3 3 3 3 3 3 3 # @ = Y } % I } 1 w ` @.@.@.@.@.@.@.@.@.@.` 5 d w.n.l.J.V.@ ",
"@ i.x.l.m.w.j . # g j j l j j j j j j l g 9 = Y } % I } 1 F @.@.@.@.@.@.@.@.@.@.@.@.8 d w.m.l.m.i.@ ",
"@ i.x.l.C.w.j . # g l l l l l l l l l l g 9 = Y } % I } 1 y | @.@.@.@.@.@.@.@.@.@.` 5 d w.C.l.m.i.@ ",
"@ 7.x.m.a.,.j . + # 3 3 3 3 3 3 3 3 3 3 2 @ = Y } % I } 1 # 6 8 8 8 8 8 8 8 8 8 8 5 + j ,.a.m.x.7.@ ",
"X 6 u p t 6 # # k ~ ~ ~ ~ ~ ~ ~ ~ ~ ~ ~ G 6 = Y } % I } 1 . X X X X X X X X X X X X X # 6 t p u 6 X ",
"@ O.r.y.2...w 8 o.@.@.@.@.@.@.@.@.@.@.@.@.G $ Y } % I } 1 2 w f f f f f f f f f q # . w ..2.y.r.O.@ ",
"@ i.C.x.l.w.d 8 @.@.@.@.@.@.@.@.@.@.@.@.@.~ $ Y } % I } 1 9 j j j j j j j j j j g 2 . j w.x.x.C.i.@ ",
"% Y.H.l.m.w.d # k ' ^ ^ ^ ^ ^ ^ ^ ^ ^ ' G 9 = Y } % I } 1 # q s s s w w w w w w 9 @ . j w.m.l.H.Y.@ ",
"@ V.J.l.m.w.d + 5 8 8 7 7 7 7 7 7 7 7 7 7 & $ P } @ Z } 1 # 7 7 7 8 7 7 7 7 7 8 8 8 @ d w.m.l.J.V.@ ",
"@ N.C.l.m.w.d # w z G ` @.@.@.@.@.@.@.@.o.H , ; L - ; D 7 x o.@.@.@.@.@.@.@.` G z F & d w.m.l.A.N.@ ",
"@ B.C.l.m.w.d $ A S 1 9 o.@.@.@.@.@.@.@.@.o.H 6 X M O 4 H | @.@.@.@.@.@.@.o.9 1 S A $ d w.m.l.C.B.@ ",
"@ i.x.l.m.w.d * P R C @ [ @.@.@.@.@.@.@.@.@.@.^ @ Z O ^ @.@.@.@.@.@.@.@.@.[ @ C R P * d w.m.l.x.i.@ ",
"@ i.x.l.m.w.d O = = > e o.@.@.@.@.@.@.@.@.@.| x @ I $ ' @.@.@.@.@.@.@.@.@.o.e > = = . d w.n.l.x.i.@ ",
"@ 2.d.f.u.>.h . + + + # 3 5 5 5 5 5 5 5 5 5 & # O I O & 5 5 5 5 5 5 5 5 5 5 & @ + + . h >.u.f.d.2.@ ",
"X 4 8 r 6 4 # # w g g g g g g g g g g g g s 6 X O V O w ^ ] ] ] ] ] ] ] ] ] ] ] ] G 3 # 4 6 r 8 4 X ",
"@ &.a.d.u.>.d 2 j j j j j j j j j j j j j j w X O Z O ^ @.@.@.@.@.@.@.@.@.@.@.@.@.@.8 d >.u.d.a.&.@ ",
"@ s.C.l.m.w.d @ 9 w w w w w w w w w w w w w 3 X O C O ~ @.@.@.@.@.@.@.@.@.@.@.@.@.o.8 d w.m.l.A.s.@ ",
"@ Y.H.l.m.w.j . . . . . . . . . . . . . . . . X O Z O 6 z ! F F F F F F F F F F ! e # d w.m.l.J.Y.@ ",
"@ B.A.l.C.e.d @ 6 u u u u u u u u u u u u u u 3 O M O X . . . . . . . . . . . . . . . j e.C.l.A.B.@ ",
"@ 7.l.m.d.,.d 6 | @.@.@.@.@.@.@.@.@.@.@.@.@.@.^ @ M O X 4 9 9 9 9 9 9 9 9 9 9 9 9 # . j ,.d.n.l.7.@ ",
"+ ..,.,.>.=.s 5 ` @.@.@.@.@.@.@.@.@.@.@.@.@.o.x O M O X 9 g c l l l l l l l l l f # . s =.>.,.,...+ ",
"X 3 3 3 3 3 # + & 5 5 5 5 5 5 5 5 5 5 5 5 5 3 # X O X X + # # # # # # # # # # # @ + X # 3 3 3 3 3 X ",
"X X X X X X X X X X X X X X X X X X X X X X X X X X X X X X X X X X X X X X X X X X X X X X X X X X "
};
