/* XPM */
static char *Untitled__10_1707905839[] = {
/* columns rows colors chars-per-pixel */
"50 50 255 2 ",
"   c #0F0011",
".  c #19112F",
"X  c #3E282C",
"o  c #4A3737",
"O  c #4A2D2D",
"+  c #5B2E24",
"@  c #1C355A",
"#  c #393648",
"$  c #3B3A58",
"%  c #31294D",
"&  c #1E3262",
"*  c #2C3467",
"=  c #181645",
"-  c #513B46",
";  c #443A51",
":  c #483E68",
">  c #663D45",
",  c #2C4B5D",
"<  c #27465B",
"1  c #324D5E",
"2  c #35475A",
"3  c #2D535B",
"4  c #1F4564",
"5  c #2C4C64",
"6  c #284E69",
"7  c #324D64",
"8  c #3B4C65",
"9  c #344E6A",
"0  c #3B4C6D",
"q  c #354567",
"w  c #2C5365",
"e  c #2D546B",
"r  c #2D5C6C",
"t  c #295765",
"y  c #335265",
"u  c #3B5264",
"i  c #335A64",
"p  c #3C5A66",
"a  c #34536B",
"s  c #3B556C",
"d  c #335A6C",
"f  c #3B5A6D",
"g  c #3B4B72",
"h  c #384876",
"j  c #2E5672",
"k  c #3B5473",
"l  c #355C73",
"z  c #3C5C74",
"x  c #3A537A",
"c  c #345C7A",
"v  c #3C5C7A",
"b  c #335575",
"n  c #2F4B7D",
"m  c #2D6468",
"M  c #3A626A",
"N  c #346273",
"B  c #3C6375",
"V  c #35637A",
"C  c #3C647B",
"Z  c #3C6A7C",
"A  c #366A79",
"S  c #3B717C",
"D  c #2C6475",
"F  c #4A454A",
"G  c #464957",
"H  c #57495A",
"J  c #48525A",
"K  c #585659",
"L  c #57534C",
"P  c #634B57",
"I  c #6E5350",
"U  c #7A6354",
"Y  c #424C6A",
"T  c #464866",
"R  c #42536B",
"E  c #435B6C",
"W  c #485867",
"Q  c #565768",
"!  c #464C76",
"~  c #425472",
"^  c #425C74",
"/  c #4B5C74",
"(  c #435C7A",
")  c #4B5D7B",
"_  c #485478",
"`  c #555A74",
"'  c #584B6B",
"]  c #645769",
"[  c #655776",
"{  c #6D506A",
"}  c #47646C",
"|  c #436275",
" . c #4C6374",
".. c #44637B",
"X. c #4B647C",
"o. c #436B7C",
"O. c #4A6B7D",
"+. c #486C74",
"@. c #546679",
"#. c #48737C",
"$. c #59727D",
"%. c #5B6767",
"&. c #69656A",
"*. c #796766",
"=. c #686876",
"-. c #786B74",
";. c #6D7475",
":. c #855958",
">. c #8C654F",
",. c #886868",
"<. c #8A7677",
"1. c #977B75",
"2. c #8F6E6D",
"3. c #A47362",
"4. c #998976",
"5. c #A88778",
"6. c #E79C7B",
"7. c #3A3D8A",
"8. c #3A4B89",
"9. c #3C5484",
"0. c #395688",
"q. c #3A5293",
"w. c #3D6583",
"e. c #3C6C83",
"r. c #366987",
"t. c #3B7387",
"y. c #3E6D96",
"u. c #464A89",
"i. c #445D84",
"p. c #485888",
"a. c #595988",
"s. c #4A5798",
"d. c #555999",
"f. c #4C4B8F",
"g. c #625C8D",
"h. c #436583",
"j. c #4B6583",
"k. c #436B83",
"l. c #4B6B83",
"z. c #49638C",
"x. c #446D8B",
"c. c #4B6D8C",
"v. c #436389",
"b. c #536B82",
"n. c #536B8B",
"m. c #566884",
"M. c #457284",
"N. c #4B7385",
"B. c #45748B",
"V. c #4B748B",
"C. c #4C7B8C",
"Z. c #487A88",
"A. c #53738B",
"S. c #547B8C",
"D. c #58758A",
"F. c #486796",
"G. c #556794",
"H. c #4C7493",
"J. c #4C7C93",
"K. c #487A97",
"L. c #537C93",
"P. c #5B7D94",
"I. c #537D9A",
"U. c #577997",
"Y. c #786C89",
"T. c #667B88",
"R. c #667998",
"E. c #6D6B91",
"W. c #4957A7",
"Q. c #525AA6",
"!. c #4B55AB",
"~. c #5969A8",
"^. c #5766B7",
"/. c #5E72B7",
"(. c #5B7DA3",
"). c #6568A8",
"_. c #6574BB",
"`. c #7177BB",
"'. c #6770B3",
"]. c #5D6BC5",
"[. c #5F70C0",
"{. c #636BC3",
"}. c #6775C9",
"|. c #6D74D2",
" X c #88748C",
".X c #52818E",
"XX c #4C8498",
"oX c #558393",
"OX c #598596",
"+X c #55849B",
"@X c #5C849B",
"#X c #5C8B9C",
"$X c #55899B",
"%X c #558996",
"&X c #638899",
"*X c #62919C",
"=X c #6F8792",
"-X c #5B8BA2",
";X c #5788A4",
":X c #5D92A9",
">X c #5088A9",
",X c #6389A4",
"<X c #6492A3",
"1X c #6495AB",
"2X c #6B96A8",
"3X c #6C9BB3",
"4X c #699AB6",
"5X c #7190B6",
"6X c #71A2B5",
"7X c #669BC2",
"8X c #759DC0",
"9X c #6AA1C8",
"0X c #96868E",
"qX c #A78E98",
"wX c #B49590",
"eX c #B8A599",
"rX c #8C93AD",
"tX c #A78FA8",
"yX c #B6B0B0",
"uX c #CA968C",
"iX c #CF9D91",
"pX c #E69C88",
"aX c #E09F96",
"sX c #D7A698",
"dX c #C4A794",
"fX c #EAA48A",
"gX c #E6A899",
"hX c #F6A996",
"jX c #F7AB8F",
"kX c #CCACA9",
"lX c #D9AAA6",
"zX c #D8B4A8",
"xX c #D4B7B4",
"cX c #ECACA2",
"vX c #EFB5A8",
"bX c #D09EA1",
"nX c #CDC8B3",
"mX c #F6D6AC",
"MX c #E8CBB8",
"NX c #EAD6B8",
"BX c #FBDABA",
"VX c #EDCCAB",
"CX c #FBE4B8",
"ZX c #B7AED1",
"AX c #C9B8D7",
"SX c #D1C4CC",
"DX c #F7DDC7",
"FX c #F9DBD6",
"GX c #E8D4CF",
"HX c #FDE7C9",
"JX c #FDEAD5",
"KX c #FCFCFF",
"LX c #F7F2FB",
"PX c #FBEDEA",
"IX c #E5D2E6",
/* pixels */
" .1 y #.o.5 , ..( ( OX,XS.X.s ~ A.N V Z N.B | f j.i.F.(.5XR.} 3 E ^ d S .XXXS.z s ..B d A C k s ( k.",
"/ 1 i #.M.r a X.X.^ P.@XS.| s | N.M.c V.L.A.a a j.z.s.0.p.j.J 3  .^ d A Z.%XL.a , f a r o.N.z y ( ..",
" .p M .XC.l a X.j.k A.@XA.z u / A.M.x.v.(.v.c c 9.0.q.0.9.p.+.M  .^ t N Z.$XoXs s z d B OX&X..7 ..O.",
"@.E | .XC.B a X.X.a l.#XS.f 8 / S.N.H.F.F.0.F.~.'./._._./.F.x f ) ( e N C.$X@Xw a k d C ,X<XX.5 k ..",
"E u M Z.M.N s X.X.a o.L.N.k 7 / &XD.w._.8.^./.}._.].{.].^.q.& & ( ( j e.+X-XU.e 7 s e Z *X<Xl.y | X.",
"s y d #.o.r y k ( 7 z N.o.d 8 / =XO.9.^.W.[.].].{.{.].].^.^.W.q.h q 6 w.$X1X@Xz s b w N OX&X..y a s ",
"R s B M.M.d 7 s s 7 o.S.S...s E #.f 9.8.].].|.].}.^.!.].^.^.^./.i.9 4 w.;X4X,X( v k 5 e C.S.z , X.X.",
"s y B Z.M.z s s ~ s U.2X2XoXX.~ W } x 8.}.|.].|.{.W.q.^.].^.^.5X'.p.6 B.:X1X&Xv n.l.d A OX&Xl.z ^ | ",
"s a B Z k.B y X.X.....oXL.A.( ^ / @.! ^.{.|.{.{.'.7.!.{.{.!.{.Q.).X.c B.;X4X5X^ h...d C &X<XN.d ....",
"a y d N N M s  .) ^ z V.J.A.^ ~ $.m.& Q.{.{.|.`.7.d.f.). X* '. XR.j.6 h.1X3XI.z b.n.B A oX#XN.^ | O.",
"^ z Z Z M.N.| j.m.| B oX-XU.j.) m.X.* Q.{.'.'.f.* : f.g.g.% : E.R * e K.+X1X2Xv X.l.N N M.C.B f ..l.",
"z a A Z.%XA.^ / X.k z @X<X-Xh.( n.@ d.).f.d.u.7.: g.a.. % ZXSX= % p...h.:X3XP.( k v d l M.M.d 5 C o.",
"z 5 A +X<XN.y /  .s l @X1X@Xj.i.G.8.s.f.).g.= AXa.' { '      XI W _ ..C.OX3X2X7 s z r N C.C.z w l C ",
"k.e Z <X2XN.a @.b./ z oX-X@Xc.G.~.s.W.).f.a._ IX X{ g. XAXxXNXI G  .5 N #X#Xx.X.( ^ e N C.J.C l k.c.",
"h.a Z #X<Xo.1 b.X.^ l L.J.x.( z.8.^.s.Q.f._ : Y. X{  X XSXkXVXDXJ R d B M.M.o.a X.| r r V.Z.C l A.I.",
"j.l M.-X#Xo.7 b.b.( ..@XI.x.v p.q.^.W.s.d.! : ; O : ' tXFXDXHXeXG E y N *X2XS.f X.| d N Z.B.C l h.N.",
"..B C.<X%Xo.f m.n.^ k.#X5X;Xx i.Q.Q.!.^.s.g 8 ; Y.[ {  XxXGX2.- W , u ^ o.*X&X| | ..f d Z.t.V c k.N.",
"z a Z.*X#Xo.d j.X.l v k.H.w.x s.s.Q.!.W.s.! $ T { Y.2.{ 2.O P ; W f < 2 M.t.l B ..O.W y S t.j j C k.",
"z 5 M.2X2XM.s b...s h.J.J.w.x p.d.Q.W.s.u.! # =. XqXqX2.,.P ; ; 1 p 2 9 M.XXL.e | O.u , A e.e 6 a z ",
") a N.6X6XC.z D.X.a x.-X<XH.b h s.W.s.s.h ! # <.IXPXkXFX] qXrXa. .p q s e.t.-Xw.V.P.O.f B..Xo.f z h.",
"l.b V.6X6XoX..D.A.k k.L.J.h.9 h f.s.f.p.! : #  XJXNXHXeXGXLXAXrX2  ./ q t.t.H.w.N.@Xb. ..XoXo.s k.V.",
"c.v L.6X3XL...D.D.z k.V.A e 9 x 9.u._ p.q : ; <.DXCXCX4.SXLXKXKX=X` Q 2 k.B.y.4 x.P.O.| Z..Xf 1 ..V.",
"j.v L.3X3XL...D.D.f o.C.B d s k 0.9.g ! : $ : *.HXCXCX4.GXKXLXKXLX%.H Q X.c w.e x.L.j.O.oX.XM f l.A.",
"..v I.3X3XU...n.P.5 l M.A l s a x.x < < $ $ { ,.NXCXmXHXeXKXKXKXeX*.<.H @.&XA.e v k.^ k .XZ.d s O.A.",
"( l L.1X-XB.( j.~ v w M.C.r < 7 V D l T.E.ZXtX{ NXCXCXCX4.HXGX4.GXDXkX-.;.D.b.a z ..s ..Z.A l y v h.",
"9 6 N.1X-XV...l.D.l.N S.OXM y B V S B @.rXY.Y.L wXCXmXBXeX4.dXNXHXHXxXqX;.$.+.p o.o.k | t.t.w.z e z ",
"k e V.-X+XN...D.D...d Z.oXw , f C.D w D.rX[ tXPX4.CXHXHXBXHXVXHXNXJXFXkXK $.$.p ..l.^ v t.t.K.x.l C ",
"/ d V.$XC.Z v n.R.l.Z S.S.A y f A m M D.=.tXqXwXU 5.HXBXDXCXHXBXDXU o SX%.rX$.3 | N.| l t.XXK.x.z ..",
"z y M.#X+XB.) n.D.c.V.oX.X#.| k M.l | $.p <.4.kXPXMX>.MXVXzXsXU L K K F =X&Xl.y | N. ...t.t.K.w.z j.",
"..y Z C.M.Z ( c.j.X.S.L.Z.N.E 7 C h.u G nXJXHXNXzX0XFXbX5.1.+ I L W J @.D.2XN.< d X.^ ..XXXXXXw.C c.",
"+., r Z A d a z X.z J..XM.o.f y j._ 8 Q nXCXCXCXBXFXxX,.I 1.:.P W 3 7 ..<X:XN.w a B s O.XX;X;Xc.b ..",
"+.d k.OXoXl.s ~ k 6 M.J.A l , 7 ~ g W =.4.HXmXCXHXFXGXeXsXbXcXL  .B ( a 1X#XN.a |  .^ k.+X;X;Xc.j o.",
"Z.N t.,XR. ./ `  .e r.K.K.t.t  .) ! @.=X%.nXnXCXmXHXBX3.cXcXhX+ ] #.y ..&XR.m.W W  .C e.:X:X;XV.l k.",
"M.r c A.n./ W ` p t r.>X>Xt. .2 ' ' Q Y.;.*.NXHXmXBXaXaXaXaXhX3.*. .l a i.p.R ` / @...D +X>X+XB.b k.",
"o.d l x.n.k W +.#.m t.$X@X@.F ] U O :.wX3.>.CXjXCXmXI >.lXcXpXfX*. .a b H.(.X.R W @.l 4 r.e.Z w V M.",
"..v w.U.R.| 1 +.+.m S $XS.$.o iXgXiXcXhX6.6.mXCXBXuXO I dXgXjXhX- @.z x.I.r.P.a E O.v j H.x.A < d k.",
"R f h.U.(.C i +.m m S *XT.] ,.gXsXfXjXjXjXjX6.hXsXI L =.*.sXvXpX,.=.W v.;Xr.J.d d | v V +XB.o.t d o.",
"R 8 x U.U.C M #.S m S #X=XL zXsXvXgXsXgXhXpXpXcX2.L K T.F sXhXjXlXP 2 v 4X:Xr.e B N.9.x J.V.o.i < y ",
"/ u v L.V.N C S.S m r C.T.&.kXlX XO O qXbXcXxXI &./ 8 / H kXfXjXaX> P / ;XXXD D c.&XU.v.+X%X.X3 d O.",
" .p ..L.x.b C C.B m t Z.$.%.o qXQ Q H -.{ : - H / ~ 9.i.=.qXfXfXcX:.P T @X;XXXD v ,XU.w.I.-X.X3 i ..",
"+.p k.V.x.C | b.B r y.4X2X .G K m.~ x ) m._ T q i.8.0.p.g.- uXjXjXgXP =.&X6X2Xm O.U.H.v.I.-XZ.d d | ",
"} y o.k.v l ^ A.C b K.7X4XV.W  .) x x w.h.k 0 0 u.f.q.u.g.-.:.gXhXpX,.L 2X*X*XM N.&Xc.w.I.:X.Xd i | ",
"M i k.B.V j s O.k j y.7X7XH.B p R Y k w.h.l a g g p.8.u.a. X- wXaXcXxXyX;.*X+.B O.S.h.w.XX-XZ.3 y z ",
"p N C.+Xw.a 7 E s 6 y.7X9X>XB 1 2 T s h.h.c s 0 ! ! h d.a.a.Q { vXuXqX# =X.XO.y f O.v V I.+Xe.3 w f ",
"B l oX;XB.d , p ^ j F.7X7X;XC q T G Y i.h.v 8 8 / Y q d.G._ E.; - X G R x U.P.a f O.V V J.I.O.y f | ",
"..z J.+XZ.m 3 } E e r.:X4XF.z 8 W T ~ i.w.x s 8 ` W 0 i.z.d._ Y $ Q 8 0 I.G.( a | N.V V B.C.O.p | O.",
"c.v H.>Xt.A 3 M } t C ;X,Xz.Y Y ! ~ 0.y.q.0.g s  .W f v x.F.h g ) s x 0.F.K.c...O.N.A A .XS.+.W ^ j.",
"G.i.H.;X.XS i M +.i x.6X5XG.W / ~ b 0.q.0.8.g R  .u k ( z.x ! h ( w.c r.y.H.& s X.N.Z M.#X#X@.u | l.",
"D.h.J.;X:XZ M i  .y x.8X,Xc.E T O.~ x x g h g 0 Y k ~ i.p.( h h ) c.v r.K.I.k.< f ^ B o.oXOXO.E ..A.",
"l.z H.:X4XB.B f +.y x.6X;Xj.8 8 k g k ( ( ~ g 0 0 g _ G.n.p.~ Y _ j.l V C.oXl.7 R ^ B O..XOXl.f v l."
};
