/* XPM */
static char *_6eac0984b384ad18030c9dc2ba8bfaemUCbOJ1WBBnMfyQr[] = {
/* columns rows colors chars-per-pixel */
"50 50 256 2 ",
"   c #2A183C",
".  c #342A2F",
"X  c #0E0012",
"o  c #452826",
"O  c #4E3532",
"+  c #462426",
"@  c #6A4829",
"#  c #794F1D",
"$  c #173259",
"%  c #38374A",
"&  c #343150",
"*  c #363667",
"=  c #293867",
"-  c #1C3369",
";  c #4C384F",
":  c #663B4A",
">  c #473969",
",  c #2D4C5D",
"<  c #26495B",
"1  c #374958",
"2  c #39575D",
"3  c #2C5254",
"4  c #2B4C64",
"5  c #284B67",
"6  c #324D64",
"7  c #3A4D65",
"8  c #334D6C",
"9  c #3A4968",
"0  c #2B5365",
"q  c #2D536B",
"w  c #2D5A6B",
"e  c #295664",
"r  c #335364",
"t  c #3B5464",
"y  c #3C5A65",
"u  c #33546B",
"i  c #3B546C",
"p  c #345B6D",
"a  c #3B5B6D",
"s  c #355966",
"d  c #2C4B72",
"f  c #374C75",
"g  c #2B5A73",
"h  c #355472",
"j  c #3B5573",
"k  c #345B73",
"l  c #3B5C73",
"z  c #3B537B",
"x  c #3C5D79",
"c  c #335979",
"v  c #3B616D",
"b  c #35686D",
"n  c #366274",
"m  c #3C6274",
"M  c #35637A",
"N  c #3C637B",
"B  c #3D6A7C",
"V  c #376879",
"C  c #3F717D",
"Z  c #2C6278",
"A  c #2A5157",
"S  c #4D444B",
"D  c #4A4657",
"F  c #574755",
"G  c #49535D",
"H  c #595653",
"J  c #674855",
"K  c #655458",
"L  c #775458",
"P  c #6C524B",
"I  c #53655F",
"U  c #474A66",
"Y  c #425B6C",
"T  c #485668",
"R  c #575967",
"E  c #454976",
"W  c #564879",
"Q  c #425473",
"!  c #435C74",
"~  c #4A5D75",
"^  c #435D7B",
"/  c #4C5D7B",
"(  c #4A547A",
")  c #565876",
"_  c #564968",
"`  c #6A5667",
"'  c #73596B",
"]  c #46636D",
"[  c #576468",
"{  c #436275",
"}  c #4B6474",
"|  c #43647B",
" . c #4A647C",
".. c #426B7D",
"X. c #4B6B7B",
"o. c #4A6973",
"O. c #51667D",
"+. c #516A7E",
"@. c #566675",
"#. c #46737A",
"$. c #55737E",
"%. c #786A64",
"&. c #776677",
"*. c #686A73",
"=. c #62624A",
"-. c #856E55",
";. c #8F726E",
":. c #A46E7A",
">. c #945D56",
",. c #9A8A76",
"<. c #AD8B7B",
"1. c #C59671",
"2. c #F1A57A",
"3. c #F19D78",
"4. c #384C85",
"5. c #3D5885",
"6. c #394E93",
"7. c #3D6581",
"8. c #3D6C84",
"9. c #396C89",
"0. c #3F7895",
"q. c #364BA8",
"w. c #465889",
"e. c #595C8A",
"r. c #434C98",
"t. c #495997",
"y. c #565B96",
"u. c #454986",
"i. c #655884",
"p. c #644F8A",
"a. c #436582",
"s. c #4A6682",
"d. c #446B83",
"f. c #4B6B83",
"g. c #4C638C",
"h. c #466B89",
"j. c #526B83",
"k. c #526D8A",
"l. c #546481",
"z. c #467384",
"x. c #4B7385",
"c. c #4C738B",
"v. c #4C7A8B",
"b. c #477788",
"n. c #527384",
"m. c #53748C",
"M. c #5B758D",
"N. c #537B8C",
"B. c #5C7686",
"V. c #4B6794",
"C. c #55669A",
"Z. c #4B7592",
"A. c #4B7B92",
"S. c #487895",
"D. c #537593",
"F. c #537C93",
"G. c #5C7D94",
"H. c #567899",
"J. c #666989",
"K. c #677686",
"L. c #637C98",
"P. c #787589",
"I. c #4C59A8",
"U. c #535DA8",
"Y. c #4D5DBA",
"T. c #5667A7",
"R. c #5867BA",
"E. c #5E73B8",
"W. c #576FAB",
"Q. c #6679B6",
"!. c #676EB3",
"~. c #5B69CB",
"^. c #5F70CC",
"/. c #636BC9",
"(. c #6372C9",
"). c #6677C8",
"_. c #6976D5",
"`. c #6E75CD",
"'. c #8A7790",
"]. c #A07D84",
"[. c #54808E",
"{. c #4C849A",
"}. c #558294",
"|. c #5B8395",
" X c #54839B",
".X c #5B859C",
"XX c #5C8B9D",
"oX c #5A8896",
"OX c #4E818A",
"+X c #638A9D",
"@X c #668598",
"#X c #678B94",
"$X c #5585A2",
"%X c #5C84A2",
"&X c #5D8BA2",
"*X c #588CA8",
"=X c #5E95AA",
"-X c #5793AB",
";X c #628DA4",
":X c #6888A5",
">X c #6B99AC",
",X c #6593A6",
"<X c #6D9BB2",
"1X c #6798B8",
"2X c #729CBA",
"3X c #7590AA",
"4X c #72A3B7",
"5X c #65A0BE",
"6X c #69A4C2",
"7X c #96869A",
"8X c #8B8892",
"9X c #B58895",
"0X c #AE9290",
"qX c #B4A58C",
"wX c #928AA9",
"eX c #B399A7",
"rX c #AE9CBA",
"tX c #B7A8B2",
"yX c #97A5AE",
"uX c #DB9B95",
"iX c #C7978F",
"pX c #ED9C8B",
"aX c #D9A696",
"sX c #CCA98E",
"dX c #E9A689",
"fX c #E9A498",
"gX c #F5AA93",
"hX c #D7A8A7",
"jX c #D0AFB1",
"kX c #E8A9AA",
"lX c #EEB4AB",
"zX c #D299A0",
"xX c #F0D59C",
"cX c #DCC4AB",
"vX c #D2C7AE",
"bX c #FAD5A8",
"nX c #E6C9B7",
"mX c #FAD9BA",
"MX c #EAD0B3",
"NX c #F9E3AC",
"BX c #FBE5BA",
"VX c #ECE0A4",
"CX c #BCB8CA",
"ZX c #B2B1D0",
"AX c #C5B3C2",
"SX c #D5C8D3",
"DX c #EDDAC8",
"FX c #F1D5D0",
"GX c #FDE7C6",
"HX c #FBEDD4",
"JX c #D4D0EB",
"KX c #F3D6E9",
"LX c #E8E7FA",
"PX c #FEFBFF",
"IX c #F9F5FE",
"UX c #F3ECF5",
/* pixels */
"} 2 r ....4 4 | ^ ^ G.;XN.| i ! x.v 2 o.f.H.5.4.g.^  .3X:XG.2 3 a { l B v..X}.p u | ^ j | | j j { s.",
"~ 2 s x.z.w u s. .! F.+XN.{ i ~ f...v $.m.g.5.- d - $ z w.D.y 3 { l u N N..XF.p 5 l i i s.k.l u x | ",
"} y m N.v.p u  . .j c..Xm.l 7 ~ :XD.q n.l 5 t.E.W.Q.E.E.6.g.{ y  .l 5 N F..XF.k u l i ! L.@X| 4 {  .",
"} Y { N.v.k u  . .i f..XN.l 7 / V.:Xa.m.5 V.(.).E.E.(.~.R.W.D.x s.l q | F..XF.q q l u | @X:X| 5 l | ",
"Y t a b.z.k i  . .u ..F.x.l 7 / :XV.5.H.W.Q.R.(.`.R.^.Y.Y.6.4.= z l h | F.;X}.q 0 u r | +X:Xf.r {  .",
"i r p z...p 6 Q ~ 4 m b...p 7 ^ :XV.C.4.T._._.~.(.Y.(.R.~.q.R.E.d h u N F.,XXXw u p r ! @X@X| 0 u i ",
"i i m z.z.p 6 i Q 6 ..F.v.| i Q k.h z W._.~.^._._.I.t.T.(.^._.(.4.8 5 a..X>X;Xk m l 4 u m.N.a < |  .",
"t u m v.b.m i j Q i F.>X,XG. .!  .l $ Q.~._.^./.R.U.C.Q.E.(.~.(.w.h 5 d.;X<X;XN v.d.u l @X+Xx.a l { ",
"i u m B ..m u  . .! m |.}.m.^ ~ !  .f T.`./././.u.* C.Q.T.U.`.R.5.8 q c.;X<X;Xk | | a { @X;Xx.p |  .",
"i r p w n l u  . .l p v.v.f.j Q j./ w.t.!.`.R.r.* ( E e.e.* !.y.w.| x c.;X<X&Xk f.f.m m G.+Xx.m | | ",
"! l N B z.x.| O.j.{ l |..XF.| ^ M.= w.C.C.w.$ * * u.* * ) 7X& > Q | l d.;X<X&XV ..d.l l x.N.m p | f.",
"l u V v.oXm.l ~ ~ i l .X;X.Xs.w.C.4.C.w.w.J.J.ZXW W i.& X . ; D Q k.| h.,X>X}.k p m p a x.f.p 4 N | ",
"l 5 n oX,Xx.6 ! ~ i l .X,X&Xf.w.4.I.T.C.e.U *.SX> p.; ` J 0X;.. T j.{ d.;X>X.XV p l u l m.v.k 0 k N ",
"f.q B ,X>Xx.r j.O.! l |..XH.s.g.t.I.r.y.y.& R CX> W ; KX-.lXDXjXT ! q m F.XX}.V V m u l N.N.N k a.c.",
"s.u B XX;X| 6 j.O.Q k v.A.c.x w.r.R.R.I.u.> ; &   '.; KXGXmXlX. @.! u N b.v.d.< ..N u k v.v.V k c.F.",
"s.k z.XXXX..r j.j. .| .X XZ.x w.T.r.U.t.> _ >   '.: + SXcX-.o S T r q c.XXXX}.k ..| p l v.b.n k a.c.",
"| l v.;XoX..a j.j.^ d. X2XH.d V.I.U.y.E U   i._ '.eX].L o . R 1 a w 4 | x.oXXXM {  .p p z.z.v p ..x.",
"! u b.;XXX..u j.f.u k 8.F.h.5 t.I.r.e._   &.7X7XKX].9X0XH *.& a 0 m , i X...d.n | f.p 0 C #.s r | d.",
"l 4 z.>X,Xz.u j. .i a.Z.F.h.8 5.I.U.e.% 8XHXDXHXeXSX9XtXAXLXyX2 Y 1 1 T } X.N.q | j.a 4 V 8.u 5 u l ",
"| q c.4X4Xv.l m. .i F.&X.XZ.j f 6.T.U . DXHXBXcX0XtXUXKX7XJXPXIXP.D D % K.@Xn.| j.L.f.k b.{.7.k l d.",
"f.k v.4X4XF.{ M.k.i v.F.z.d.h f d ( D eXmXMXGXqXqXSXIXUXPXIXrXPXJX&.eX&.D @.B.} k.L.c.7.A. Xa.h d.m.",
"k.l F.4X4XF.{ M.M.i d.b.B N 8 i l.% . nXGXGXGX-.%.PXPXPXPXIXLXPXSX' ].F R *.] , +.G.h.7.A.A.c d | c.",
"s.x F.<X<XF.| M.M.i ..z.d.V 4 i } [ ,.GXGXbX0X0XtXPXPXIXIXPXLXZXtX;.jX&.R G ] , +.M.f.d. X{.7.h d.m.",
"a.x F.<X<XF.| m.M.u m B B k , Y ] [ vXBXbXGXL tX'.IXPXSXUXCXCXrX8X` ' . *.@.$.s !  .l n A.A.l h s.m.",
"^ k F.,X&Xc.x s.Q l 0 z.v.0 , 6 { 2 =.BXbXBX0XtXwXJXZXJXLXP.U 8X'.P.D % T B.X.v y ! p B b.B l 8 x s.",
"8 5 c.,X&Xc.{ f.m.f.k N.oXn r ! a.} H MXBXBXnXL '.rXZXLXPXT ZXP.T ) U U B.@Xm < { X.a m z...| l u l ",
"l u b.&X.Xz.| m.M.| p v.[.w , l a. .R P GXmXsX;.FXJX'.IXPXwX9 9 !  .( / @X,Xb.w { X.v v #.z.n.f.l { ",
"! u b..XA.B l j.L.f.N v.[.m r a D.x U S eXHXcXBXMXvX;.` '.> Q 8 d.f.! ~ G.+Xz.p { n.{ v C v.N.f.l | ",
"l u b.XX.Xz.| k.M.f.v.}.N.z.! a N l T *.FXeXnXBXBX1.@ cXKX% / 8 N a.l  .+X+XB 0 { n.| m z.v.v.m l f.",
"| r B v.z.B ^ k.s.| N.F.b.z.a r | M.T F ; O aXsX1.# 1.mXMX0X@.i k M l  .;X,X..0 i  .{ N v.{.A.| N f.",
"} , p B M w u ! | l N.F.z...a r a.6 R %.%.o P <.1.bXbXNXBXHXI ] b w 4 a @X+X..0 i ~ l a. X*X$Xc.k | ",
"| u d..X}.f.a l l 4 d.v.{ y 1 1 U ; K ,.@ aXaX>.lXGXmXbXNXBX. I o.m u { :X3Xn.u ~  .l d.$X*X$XZ.h | ",
"m.n d.;X|.| ! { m k 8.b.K.[ P 0XiXuXdXdX2.2.dXkX:.FXGXNXxXbXqXR } x.u k :X+X~ ~ Y  .m 8.=X*X*XH.k a.",
"z.k k v.n.a y } m q h.|.@XR :.iXfXgXpX3.2.2.dXkX9XJ DXBXNXGXnXK K.f.q g d.| i 7 ~ +.m Z {.$X%XV.k a.",
"d.k k h.n.a t X.X.q 9. X@XH jXlXuXkXfXfXgXgXaXlXJ J O GXVXxXMXO K.s.q M 8.8.x.~ ! X.p < B 8.h.d N z.",
"| m N F.G.{ r X.x.g 9. X@XG tXzX;.o >.zXiXhXeXO ` ' S ,.bXbXaX;.P.M.k 8.{.A.N.i Q  .v e z.d.N 5 k d.",
"k k N F..X{ t X...n 9.*X+XT %.%.[ 1 R P.8X7X'.R ) _ F O aXdXgXuX` l.i M {.{.8.0 i { y v [.x...q p ..",
"a u x D.F.{ a n.B M 9.*X.X@.S H +.u ^ :X3X3XB.1 ) _ D J iXlXpXlX: R i m {.$X8.k ^ X.{ a N.x...w < u ",
"{ u x D.c.l { B.d.Z 7.{.F.X.G [ Y k.w.w.W.g.5  .i ~ D ` 9XfXpXfX:.` R ..{.$XV k k.@XM.} |.}.v.w p ..",
" .u | F.f.k { n.B g g {.S.l T T  .j f w.t.5.c 5 N u U _ J hXlXfXzXJ D } OX=Xb.N ^ @XG.{ N.XX}.e u | ",
" .a d.Z.d.N { x.m g 0.5X1Xa.t T ~ f z t.t.w.h q x u f ( &.' kXfXkX: K @.oX4X<Xk s.L.k.| F.XXA.g p { ",
"} i a.h.N k a n.m w S.6X2XZ.i t ! i ( t.y.w.f q m k z w.i.' <.hXkX9XK R #X>X.XN k.:Xk.s.F.&XA.g p { ",
"] u d.c.M q u X.v e 9.1X1XA.l 7 i i Q g.t.5.f i u i f w.e.J.L hXhXjXAX% |.+Xv.| s.G.s.N F.&XZ.q u l ",
"Y a Z. X8.q , a y e 9.1X1XH.^ 7 i 7 Q l.e.( f h i 8 d w.y.J.S 0XjX' . T 3X}.| j j f.l n A. Xh.5 r a ",
"Y a F.&XZ.k , y s r b.2X4X%X| i Q 9 U ) e.( E f | u d 5.C.g.U R ; F 1 { ..F.D.u a f.n M v.F.f.u l { ",
"] a A.$XZ.k r Y Y 2 B &X*Xc.^ Q Q i U ) ) ( E f  .u d 5.T.w.} 1 U T +.N .X.XN k { x.b b v.N.f.i ! X.",
"X.m c. XS.N s ] o., n  X%Xa.j ^ 7.c a { ~ E E E ~ i f w.C.w.( 9 Q M.$ Z.$XZ.N k ..x.b b OXN.+.i ! f.",
"n.{ A.$XA.8.s y o.s d.2X2XD.Q j 8.M M { ! 9 9 Q / ~ z w.t.z 9 Q m.D.Z.g 8.M N 4 ..#.b #.#X#X+.t ! f.",
"m.N A.*X=X8.v s } u h.2X;Xc.Y t | m p N N u i 7 ~ 7 5.Z.Z.h.i , m.F.N M F.G...< p m m ..G.|.f.a | n.",
"f.l Z.&X>Xz.m a } u h.2X%Xf.t 1 y u q 8.c.m t 1 7 6 Z.1X1X|.y , | d.k k F.+Xm.4 a m l ..G.|.f.l l f."
};
